<?xml version="1.0" standalone="no"?>
<!DOCTYPE svg PUBLIC "-//W3C//DTD SVG 1.1//EN" "http://www.w3.org/Graphics/SVG/1.1/DTD/svg11.dtd" >
<svg xmlns="http://www.w3.org/2000/svg" xmlns:xlink="http://www.w3.org/1999/xlink" version="1.1">
<metadata>
Created by FontForge 20201107 at Wed Apr 21 18:53:16 2021
 By Jimmy Wärting
Retrolight (c)Almarkhatype 2021. All Rights Reserved
</metadata>
<defs>
<font id="Retrolight" horiz-adv-x="791" >
  <font-face 
    font-family="Retrolight"
    font-weight="400"
    font-stretch="normal"
    units-per-em="1000"
    panose-1="2 0 5 0 0 0 0 0 0 0"
    ascent="800"
    descent="-200"
    x-height="700"
    cap-height="700"
    bbox="-34 -241 1240 1003"
    underline-thickness="50"
    underline-position="-100"
    unicode-range="U+001D-2265"
  />
<missing-glyph horiz-adv-x="415" 
d="M409 0h-403v700h403v-700zM384 24v652q-93 -28 -182 -28q-88 0 -171 28v-652q86 39 174 39q89 0 179 -39zM200 104q-5 0 -10 5l-30 35q-3 4 -3 8q0 5 5 11l28 28q5 5 10 5t10 -5l28 -29q4 -6 4 -10q0 -5 -5 -11l-27 -30q-7 -7 -10 -7zM206 222h-16q-17 47 -17 72
q0 37 39.5 106.5t39.5 105.5q0 28 -16 44t-44 16h-8l16 -25q2 -4 2 -8q0 -6 -7 -12l-32 -24q-7 -5 -11 -5q-6 0 -9 7l-23 39l-1 6q0 8 13.5 19t26.5 19q26 14 55 14q45 0 72 -23t27 -62q0 -24 -11 -48.5t-42 -63t-48.5 -64.5t-17.5 -48q0 -19 12 -65z" />
    <glyph glyph-name=".notdef" horiz-adv-x="415" 
d="M409 0h-403v700h403v-700zM384 24v652q-93 -28 -182 -28q-88 0 -171 28v-652q86 39 174 39q89 0 179 -39zM200 104q-5 0 -10 5l-30 35q-3 4 -3 8q0 5 5 11l28 28q5 5 10 5t10 -5l28 -29q4 -6 4 -10q0 -5 -5 -11l-27 -30q-7 -7 -10 -7zM206 222h-16q-17 47 -17 72
q0 37 39.5 106.5t39.5 105.5q0 28 -16 44t-44 16h-8l16 -25q2 -4 2 -8q0 -6 -7 -12l-32 -24q-7 -5 -11 -5q-6 0 -9 7l-23 39l-1 6q0 8 13.5 19t26.5 19q26 14 55 14q45 0 72 -23t27 -62q0 -24 -11 -48.5t-42 -63t-48.5 -64.5t-17.5 -48q0 -19 12 -65z" />
    <glyph glyph-name="uni001D" horiz-adv-x="0" 
 />
    <glyph glyph-name="uni001D" horiz-adv-x="0" 
 />
    <glyph glyph-name="glyph2" horiz-adv-x="508" 
 />
    <glyph glyph-name="space" unicode=" " horiz-adv-x="301" 
 />
    <glyph glyph-name="space" unicode="&#xa0;" horiz-adv-x="301" 
 />
    <glyph glyph-name="exclam" unicode="!" horiz-adv-x="1213" 
d="M375 551q-22 0 -28 26q-3 14 -3 34q0 55 32 55q20 0 27 -21q4 -14 4 -40q0 -54 -32 -54zM939 551q-22 0 -28 24q-3 13 -3 34q0 46 18 54q5 3 13 3q22 0 28 -23q4 -13 4 -35q0 -45 -18 -54q-6 -3 -14 -3zM83 553h-10v111h33q30 0 30 -31q0 -21 -13 -27q-6 -3 -20 -3h-20
v-50zM199 553h-51v111h48l2 -6h-39v-43h31v-3v-3.5t-31 -0.5v-49h42q-1 -6 -2 -6zM281 553h-11q-1 0 -4 14q-11 38 -17 38h-24v-52h-10v111h32q29 0 29 -29q0 -25 -16 -28q9 -11 21 -54zM306 553h-8q-1 0 -3 12q6 -6 11 -6q13 0 13 18q0 13 -13 35q-9 17 -9 28q0 17 13 23
l7 1h10q1 0 3 -10v-1q-7 5 -11 5q-11 0 -11 -13t11 -32.5t11 -34.5q0 -17 -14 -23q-5 -2 -10 -2zM479 553h-8q-5 6 -44 94v-94h-6v56q0 55 1 55h9l41 -90h1v90h6v-111zM560 553h-11l-10 33h-33l-10 -33h-6l32 111h5q1 -1 4 -14zM625 553h-51v111h10v-105h42zM710 551
q-18 0 -24.5 13t-6.5 44v56h11v-62q0 -32 5 -38.5t16 -6.5q13 0 16.5 9t3.5 34v64h7v-49q0 -40 -4 -48q-6 -16 -24 -16zM761 553h-8l-3 12q6 -6 11 -6q11 0 13 15v4q0 12 -12 33q-10 18 -10 31q0 16 14 21q3 1 7 1h10l3 -11q-8 5 -12 5q-11 0 -11 -13t11 -33t11 -34
q0 -17 -14 -23q-4 -2 -10 -2zM854 553h-51q-1 0 -1 56q0 55 1 55h47q1 0 2 -6h-39v-43h31v0q1 -1 1 -3q0 -3 -0.5 -3.5t-31.5 -0.5v-49h42zM1042 553h-8l-43 94v-94h-6v111h10l41 -90v90h6v-111zM1107 553h-50q-1 0 -1 56l1 55h10v-105h42q0 -6 -2 -6zM1134 553h-11v56
l-27 55h11q1 0 24 -47l23 47h7l-27 -54v-57zM376 557q12 0 16 9.5t4 42.5q0 36 -5 43.5t-15 7.5q-14 0 -17.5 -11.5t-3.5 -39.5q0 -34 4.5 -43t16.5 -9zM940 557q12 0 16 11t4 41q0 39 -6 45t-15 6q-12 0 -16 -10t-4 -41q0 -38 5 -45t16 -7zM105 609q12 0 15.5 6t3.5 18
q0 19 -8 23q-3 2 -15 2h-18v-49h22zM242 612q15 0 18.5 4.5t3.5 18.5q0 17 -5 20t-17 3h-17v-46h17zM537 592l-15 51l-14 -51h29zM638 134q-2 0 -9 5q-9 4 -11.5 10.5t-2.5 25.5q0 84 63 263q0 1 -23 1q-115 0 -137 -47q-6 9 -6 23q0 31 33 40t100 9q29 0 33 2q11 0 17 8
l3 1q6 0 9 -13l6 -12q1 0 2 -2l-7 -15q-42 -92 -57 -175q-2 -11 -2 -17q43 128 75 128q13 0 19 -15q1 -5 1 -13q0 -24 -15 -60q-6 -11 -16 -23.5t-16 -16.5t-14 -7q-3 -1 -3 -2q0 -2 9 -11q5 -3 10 -3q10 0 26 17q25 30 26 42q4 20 12 51q18 68 46 138q4 12 7 15t5 4h3
q3 -2 5 -7q3 -11 8 -18l1 -2q0 -2 -7 -16q-43 -91 -59 -181l-2 -21q1 0 4 9q41 100 74 100l12 -1q10 0 11 -6q0 -4 -7 -18q-27 -53 -27 -100q0 -38 30 -59q15 -9 32 -9q-7 -15 -34 -15q-38 0 -53 38q-4 11 -4 25q0 37 16 94l3 11q-53 -106 -65 -149q-4 -10 -7 -10l-7 5
q-7 3 -8.5 6t-1.5 15q0 18 2 44q-29 -25 -46 -25q-10 0 -17 10q-10 12 -14 19q-1 0 -3 -7q-6 -19 -14 -65q-5 -18 -8 -18zM984 324q-10 4 -10 16q0 10 12 37l9 22q-16 -23 -20 -23q-3 0 -7 10v2q-10 -12 -14 -12q-3 0 -9 11l-1 8q0 7 7 25l10 29q0 1 -1 1q-17 -1 -23 -15v-1
q-7 3 -7 10q0 10 22 14q13 2 13.5 2.5t1.5 5.5q2 8 3.5 11t5 3.5t11.5 3.5q1 0 2 -2l-8 -20q0 -1 4 -1q29 0 54 -7q10 -4 10 -8q0 -2 -1 -2q-3 2 -14 5q-17 4 -37 4q-4 0 -8 -0.5t-9.5 -0.5t-22.5 -49l-3 -8q1 -3 3 -3t7 5q10 10 17 19q3 5 13 9q-2 -6 -11 -21l-4 -11
q3 0 6 6q24 31 27 31q5 -1 5 -3q-14 -30 -26 -62q-8 -26 -8 -34zM378 -12h-6q-63 0 -97.5 40t-34.5 100q0 49 18 109q11 32 23 56l9 18q-2 1 -40 1q-76 0 -100 -28l-7 -11q-4 11 -4 21q0 28 28 39q16 6 55 6l80 -3q3 0 7 7q13 20 31 42q54 61 89 61q17 0 17 -16
q-9 -72 -71 -103q-20 -9 -22 -9q-8 -3 -22.5 -5t-16 -4.5t-12.5 -31.5q-35 -91 -35 -149q0 -54 41 -87q29 -22 63 -22q53 0 155 32l109 34q114 38 182 38q84 0 130 -46q16 -16 16 -25l-1 -1q-44 39 -135 39q-93 0 -230 -47l-104 -34q-72 -21 -115 -21zM1058 382q-8 0 -13 7
v4q0 15 8 29l4 2q6 0 7 -8q0 -14 -12 -23v-2q1 -3 3 -3q5 2 9 9.5t4 16.5q0 6 -2 17v1q7 0 9 -16l1 -6q0 -14 -11 -25q-4 -3 -7 -3zM993 326q-5 3 -5 8q1 12 25 72q9 21 12 21q6 -1 6 -4l-5 -9q-6 -12 -11 -26l21 37q5 0 6 -18q0 -24 -11 -25q-3 0 -8 4q-1 0 -5 -8
q-17 -31 -23 -49zM334 337q24 0 50 19q14 12 21 21q16 24 17 42l1 5q-22 -13 -48 -34q-32 -30 -46 -52v-1h5zM1054 402q5 5 5 12h-1q-4 -7 -4 -12zM1024 389q11 0 11 15q0 5 -1 5zM605 104q-19 0 -32 15q-9 12 -9 25q0 20 21 112l16 67q1 4 5 9q-16 -6 -42 -13q-1 0 -1 -2
v-17q0 -38 -11 -90q-15 -53 -30 -53q-4 0 -9.5 6.5t-10.5 9t-8.5 12.5t-3.5 46q-19 -76 -33 -76q-4 0 -8 6q-1 1 -7 3.5t-8.5 11.5t-2.5 18q0 26 10 59q7 20 17 35q15 23 26 23q10 0 15 -19q5 9 10.5 14.5t10.5 5.5q7 0 11 -3q0 -2 -5.5 -10.5t-9.5 -21.5q-9 -29 -9 -56
q0 -22 6 -33q2 -4 3 -4q5 3 11 23q15 47 15 92q0 25 -7 27q-20 8 -20 26q0 13 14 20q4 2 8 2q16 0 22 -31q1 -5 3 -5l30 8q13 5 14.5 5.5t7 6t9.5 5.5q9 0 10 -12q0 -3 -5 -20q-33 -112 -33 -166q0 -30 13 -60zM976 124q-25 0 -45.5 22.5t-20.5 71.5q0 20 7 41v4
q-29 -78 -39 -78q-4 0 -7 6t-9 8q-3 0 -6 4q-4 7 -4 18q0 18 9 52q8 27 18 44q19 36 36 36q11 0 16 -22q15 35 26 35q6 0 6 -11q0 -13 -14 -61q-17 -59 -17 -98q0 -37 16 -55q9 -7 19 -7q13 0 29 12q35 30 35 107q0 28 -4 53q-3 9 -6 9q-4 0 -14 -22q-17 -39 -17 -71
q0 -18 7 -29q1 -2 2 -2q-6 -3 -10 -3q-13 0 -18 28q-2 8 -5 12q-3 8 -3 17q0 18 16 46q5 7 15.5 19t15.5 14q10 6 20 6q37 0 37 -52q0 -29 -11 -67q-7 -21 -16 -38q-29 -49 -64 -49zM676 255q4 1 12 9t13 18q12 20 22 62q-12 -12 -32 -51q-16 -32 -16 -38h1zM876 212
q8 14 48 106q0 9 -6 17l-1 1q-2 0 -9 -12q-22 -37 -31 -82l-2 -20zM358 70q-5 0 -11 5q-14 14 -14 55q0 31 10 77v1q-15 -39 -22 -62l-2 -8h-1q-6 0 -14 5q-12 8 -12 28q0 26 21 87q14 37 19 37q18 -2 18 -6q0 -2 -8 -19q-27 -66 -27 -89q32 77 55 115q7 11 11 11t12 -5
l2 -2l-9 -21q-10 -24 -19 -59q-11 -42 -11 -68l1 -1q29 98 52 149q12 22 18 22l14 -3q4 -1 4 -4l-7 -24q-14 -41 -26 -100q-5 -28 -5 -51q0 -21 8 -21q3 0 25 7q39 13 59 13q26 0 38 -15q-7 -1 -32.5 -5.5t-41.5 -10t-33 -14.5q-5 -2 -10 -2q-10 0 -18 13l-8 8
q-11 10 -11 32q0 16 12 66l3 16h-1q-15 -40 -28 -90q-10 -41 -10 -61v-4q0 -2 -1 -2zM235 43q-19 0 -31 17q-9 14 -9 37t6 75v1q-1 0 -7 -13q-14 -30 -25 -48q-5 -8 -10 -8q-4 0 -7.5 6.5t-10 8.5t-6.5 19t12 52q9 24 20 42q21 36 39 36q10 0 14 -17q13 28 16 32q6 8 12 12
t8 4q4 0 5 -7q0 -13 -18 -56q-20 -54 -20 -96q0 -56 19 -93l1 -2q0 -2 -8 -2zM456 177q2 0 7 17q26 74 26 80t-5 14h-2q-11 -3 -24 -55q-5 -19 -7 -40v-2q1 -14 5 -14zM158 131q4 4 8 12l45 86q2 3 2 7q0 5 -4 14l-1 1q-2 0 -9 -9q-17 -24 -30 -58q-10 -28 -11 -48v-5z
M418 -172h-9v86l9 4v-90zM657 -172h-10l-25 35l-3 -3v-32h-8v86q0 1 8 4v-51l25 22h7l-22 -20zM707 -172h-9v34q0 17 -4 20t-8 3q-9 0 -12 -11v-46h-9v86q0 1 9 4v-33q5 4 12 4q15 0 19 -13q2 -6 2 -30v-18zM799 -172q-19 0 -22 5.5t-3 21.5v30h-9v4h9v12q0 1 8 4v-16h11v-4
h-11v-31q0 -18 3 -19.5t6 -1.5q4 0 10 4zM862 -202h-1q0 84 -1 87l6 3l3 -3q5 5 14 5q13 0 18 -11q2 -6 2 -20q0 -25 -9 -29q-5 -3 -11 -3q-8 0 -13 4v-29q0 -1 -3 -2t-5 -2zM501 -172h-9v32q0 18 -3 21.5t-8 3.5q-10 0 -12 -14v-43h-9v26q0 24 -2.5 27.5t-8.5 3.5
q-9 0 -11 -10q-1 -3 -1 -26v-21h-9v58q0 1 3.5 2t5.5 2v-4q5 3 12 3q12 0 17 -7v-1q0 3 5.5 5.5t8.5 2.5q15 0 19 -10q2 -7 2 -34v-17zM572 -172h-9v58q1 1 9 4v-8q2 4 10 7h16q1 0 4 -10q-8 6 -15 6q-10 0 -14 -16q-1 -9 -1 -31v-10zM829 -201h-13l-3 10q8 -5 13 -5
q12 0 14 14l1 14q-5 -4 -13 -4q-14 0 -18 11q-3 6 -3 17v30l9 4v-31q0 -20 3.5 -23t7.5 -3q11 0 14 11v42q0 1 8 4v-61q0 -30 -20 -30zM1156 -172h-8v26q0 24 -3 27.5t-9 3.5q-8 0 -11 -10q-1 -4 -1 -25v-22h-8q-1 0 -1 34q0 17 -3 20t-8 3q-8 0 -11 -9q-1 -4 -1 -27v-21h-8
q-1 0 -1 58q0 1 9 4v-4q5 3 13 3q11 0 16 -6v-2q0 3 5 5.5t9 2.5q16 0 20 -12q1 -6 1 -34v-15zM949 -172h-15q-21 0 -21 25v11q0 26 22 26q20 0 20 -27q0 -2 -10 -4l-23 -5q0 -17 7 -20q3 -1 8 -1q7 0 15 5zM1052 -173q-22 0 -22 31q0 32 22 32q21 0 21 -31t-21 -32z
M133 -172h-4l-13 36l-12 -36h-4q-1 0 -2 5l-20 56h9l17 -46l10 28l-7 18h9q1 0 17 -46l17 46h5zM219 -172h-4q-1 1 -6.5 17.5t-6.5 17.5l-12 -35h-4q-1 1 -22 61h9l3 -7q12 -33 13 -39q1 0 9 24l2 4l-7 18h9l17 -46l17 46h5zM305 -172h-4l-13 36q-12 -36 -13 -36h-4l-21 61
h9l16 -46l10 28l-6 18h9q1 0 17 -46l17 46h5zM372 -173q-12 0 -16 13l-1 9q0 24 32 24q0 12 -13 12q-9 0 -14 -5l-2 -1q3 10 4 10h14q17 0 20 -16v-36q0 -5 3 -9h-8q-2 1 -3 5q-6 -6 -16 -6zM528 -173q-12 0 -16 12l-1 9q0 16 10 20.5t22 4.5q0 12 -13 12q-9 0 -15 -5l-1 -1
q2 10 3 10h15q20 0 20 -26q0 -32 2 -35h-7q-2 0 -3 6q-7 -7 -16 -7zM734 -173q-12 0 -16 12q-1 3 -1 9q0 16 9.5 20.5t22.5 4.5q-1 6 -3.5 9t-9.5 3q-9 0 -16 -6q2 10 3 10h15q14 0 18 -13q2 -5 2 -19q0 -25 2 -29h-8q-2 3 -2 6q-7 -7 -16 -7zM1019 -172h-14q-22 0 -22 31
q0 30 21 30h15q1 0 3 -10q-7 6 -14 6q-11 0 -13 -4.5t-2 -22.5q0 -20 3 -22.5t11 -2.5t15 5q-2 -10 -3 -10zM883 -168q7 0 9.5 6.5t2.5 23.5t-4 20t-9 3q-12 0 -12 -14v-25q0 -14 13 -14zM922 -140l24 4q0 21 -12 21t-12 -23v-2zM1052 -168q7 0 9.5 7t2.5 20q0 20 -4.5 23
t-7.5 3q-13 0 -13 -26q0 -21 4.5 -24t8.5 -3zM375 -166q8 0 13 7v27q-15 0 -19.5 -5.5t-4.5 -13.5q0 -15 10 -15h1zM530 -166q9 0 13 7v27q-15 0 -19 -5.5t-4 -13.5q0 -14 10 -15zM736 -166q9 0 13 7v27q-17 0 -22 -9q-2 -4 -2 -11q0 -14 11 -14zM343 -172h-1q-4 0 -6 4
q0 5 5 7q4 0 6 -5q0 -5 -4 -6zM971 -172h-2q-5 0 -5 5q0 4 5 6q4 0 5 -2.5t1 -3.5q0 -3 -4 -5z" />
    <glyph glyph-name="quotedbl" unicode="&#x22;" horiz-adv-x="328" 
d="M112 491l36 184h-32v-75h-26v75h-30l36 -184h16zM232 491l36 184h-32v-75h-26v75h-30l35 -184h17zM254 465h-60l-30 154l-30 -154h-60l-46 236h272z" />
    <glyph glyph-name="numbersign" unicode="#" horiz-adv-x="1213" 
d="M375 551q-22 0 -28 26q-3 14 -3 34q0 55 32 55q20 0 27 -21q4 -14 4 -40q0 -54 -32 -54zM939 551q-22 0 -28 24q-3 13 -3 34q0 46 18 54q5 3 13 3q22 0 28 -23q4 -13 4 -35q0 -45 -18 -54q-6 -3 -14 -3zM83 553h-10v111h33q30 0 30 -31q0 -21 -13 -27q-6 -3 -20 -3h-20
v-50zM199 553h-51v111h48l2 -6h-39v-43h31v-3v-3.5t-31 -0.5v-49h42q-1 -6 -2 -6zM281 553h-11q-1 0 -4 14q-11 38 -17 38h-24v-52h-10v111h32q29 0 29 -29q0 -25 -16 -28q9 -11 21 -54zM306 553h-8q-1 0 -3 12q6 -6 11 -6q13 0 13 18q0 13 -13 35q-9 17 -9 28q0 17 13 23
l7 1h10q1 0 3 -10v-1q-7 5 -11 5q-11 0 -11 -13t11 -32.5t11 -34.5q0 -17 -14 -23q-5 -2 -10 -2zM479 553h-8q-5 6 -44 94v-94h-6v56q0 55 1 55h9l41 -90h1v90h6v-111zM560 553h-11l-10 33h-33l-10 -33h-6l32 111h5q1 -1 4 -14zM625 553h-51v111h10v-105h42zM710 551
q-18 0 -24.5 13t-6.5 44v56h11v-62q0 -32 5 -38.5t16 -6.5q13 0 16.5 9t3.5 34v64h7v-49q0 -40 -4 -48q-6 -16 -24 -16zM761 553h-8l-3 12q6 -6 11 -6q11 0 13 15v4q0 12 -12 33q-10 18 -10 31q0 16 14 21q3 1 7 1h10l3 -11q-8 5 -12 5q-11 0 -11 -13t11 -33t11 -34
q0 -17 -14 -23q-4 -2 -10 -2zM854 553h-51q-1 0 -1 56q0 55 1 55h47q1 0 2 -6h-39v-43h31v0q1 -1 1 -3q0 -3 -0.5 -3.5t-31.5 -0.5v-49h42zM1042 553h-8l-43 94v-94h-6v111h10l41 -90v90h6v-111zM1107 553h-50q-1 0 -1 56l1 55h10v-105h42q0 -6 -2 -6zM1134 553h-11v56
l-27 55h11q1 0 24 -47l23 47h7l-27 -54v-57zM376 557q12 0 16 9.5t4 42.5q0 36 -5 43.5t-15 7.5q-14 0 -17.5 -11.5t-3.5 -39.5q0 -34 4.5 -43t16.5 -9zM940 557q12 0 16 11t4 41q0 39 -6 45t-15 6q-12 0 -16 -10t-4 -41q0 -38 5 -45t16 -7zM105 609q12 0 15.5 6t3.5 18
q0 19 -8 23q-3 2 -15 2h-18v-49h22zM242 612q15 0 18.5 4.5t3.5 18.5q0 17 -5 20t-17 3h-17v-46h17zM537 592l-15 51l-14 -51h29zM638 134q-2 0 -9 5q-9 4 -11.5 10.5t-2.5 25.5q0 84 63 263q0 1 -23 1q-115 0 -137 -47q-6 9 -6 23q0 31 33 40t100 9q29 0 33 2q11 0 17 8
l3 1q6 0 9 -13l6 -12q1 0 2 -2l-7 -15q-42 -92 -57 -175q-2 -11 -2 -17q43 128 75 128q13 0 19 -15q1 -5 1 -13q0 -24 -15 -60q-6 -11 -16 -23.5t-16 -16.5t-14 -7q-3 -1 -3 -2q0 -2 9 -11q5 -3 10 -3q10 0 26 17q25 30 26 42q4 20 12 51q18 68 46 138q4 12 7 15t5 4h3
q3 -2 5 -7q3 -11 8 -18l1 -2q0 -2 -7 -16q-43 -91 -59 -181l-2 -21q1 0 4 9q41 100 74 100l12 -1q10 0 11 -6q0 -4 -7 -18q-27 -53 -27 -100q0 -38 30 -59q15 -9 32 -9q-7 -15 -34 -15q-38 0 -53 38q-4 11 -4 25q0 37 16 94l3 11q-53 -106 -65 -149q-4 -10 -7 -10l-7 5
q-7 3 -8.5 6t-1.5 15q0 18 2 44q-29 -25 -46 -25q-10 0 -17 10q-10 12 -14 19q-1 0 -3 -7q-6 -19 -14 -65q-5 -18 -8 -18zM984 324q-10 4 -10 16q0 10 12 37l9 22q-16 -23 -20 -23q-3 0 -7 10v2q-10 -12 -14 -12q-3 0 -9 11l-1 8q0 7 7 25l10 29q0 1 -1 1q-17 -1 -23 -15v-1
q-7 3 -7 10q0 10 22 14q13 2 13.5 2.5t1.5 5.5q2 8 3.5 11t5 3.5t11.5 3.5q1 0 2 -2l-8 -20q0 -1 4 -1q29 0 54 -7q10 -4 10 -8q0 -2 -1 -2q-3 2 -14 5q-17 4 -37 4q-4 0 -8 -0.5t-9.5 -0.5t-22.5 -49l-3 -8q1 -3 3 -3t7 5q10 10 17 19q3 5 13 9q-2 -6 -11 -21l-4 -11
q3 0 6 6q24 31 27 31q5 -1 5 -3q-14 -30 -26 -62q-8 -26 -8 -34zM378 -12h-6q-63 0 -97.5 40t-34.5 100q0 49 18 109q11 32 23 56l9 18q-2 1 -40 1q-76 0 -100 -28l-7 -11q-4 11 -4 21q0 28 28 39q16 6 55 6l80 -3q3 0 7 7q13 20 31 42q54 61 89 61q17 0 17 -16
q-9 -72 -71 -103q-20 -9 -22 -9q-8 -3 -22.5 -5t-16 -4.5t-12.5 -31.5q-35 -91 -35 -149q0 -54 41 -87q29 -22 63 -22q53 0 155 32l109 34q114 38 182 38q84 0 130 -46q16 -16 16 -25l-1 -1q-44 39 -135 39q-93 0 -230 -47l-104 -34q-72 -21 -115 -21zM1058 382q-8 0 -13 7
v4q0 15 8 29l4 2q6 0 7 -8q0 -14 -12 -23v-2q1 -3 3 -3q5 2 9 9.5t4 16.5q0 6 -2 17v1q7 0 9 -16l1 -6q0 -14 -11 -25q-4 -3 -7 -3zM993 326q-5 3 -5 8q1 12 25 72q9 21 12 21q6 -1 6 -4l-5 -9q-6 -12 -11 -26l21 37q5 0 6 -18q0 -24 -11 -25q-3 0 -8 4q-1 0 -5 -8
q-17 -31 -23 -49zM334 337q24 0 50 19q14 12 21 21q16 24 17 42l1 5q-22 -13 -48 -34q-32 -30 -46 -52v-1h5zM1054 402q5 5 5 12h-1q-4 -7 -4 -12zM1024 389q11 0 11 15q0 5 -1 5zM605 104q-19 0 -32 15q-9 12 -9 25q0 20 21 112l16 67q1 4 5 9q-16 -6 -42 -13q-1 0 -1 -2
v-17q0 -38 -11 -90q-15 -53 -30 -53q-4 0 -9.5 6.5t-10.5 9t-8.5 12.5t-3.5 46q-19 -76 -33 -76q-4 0 -8 6q-1 1 -7 3.5t-8.5 11.5t-2.5 18q0 26 10 59q7 20 17 35q15 23 26 23q10 0 15 -19q5 9 10.5 14.5t10.5 5.5q7 0 11 -3q0 -2 -5.5 -10.5t-9.5 -21.5q-9 -29 -9 -56
q0 -22 6 -33q2 -4 3 -4q5 3 11 23q15 47 15 92q0 25 -7 27q-20 8 -20 26q0 13 14 20q4 2 8 2q16 0 22 -31q1 -5 3 -5l30 8q13 5 14.5 5.5t7 6t9.5 5.5q9 0 10 -12q0 -3 -5 -20q-33 -112 -33 -166q0 -30 13 -60zM976 124q-25 0 -45.5 22.5t-20.5 71.5q0 20 7 41v4
q-29 -78 -39 -78q-4 0 -7 6t-9 8q-3 0 -6 4q-4 7 -4 18q0 18 9 52q8 27 18 44q19 36 36 36q11 0 16 -22q15 35 26 35q6 0 6 -11q0 -13 -14 -61q-17 -59 -17 -98q0 -37 16 -55q9 -7 19 -7q13 0 29 12q35 30 35 107q0 28 -4 53q-3 9 -6 9q-4 0 -14 -22q-17 -39 -17 -71
q0 -18 7 -29q1 -2 2 -2q-6 -3 -10 -3q-13 0 -18 28q-2 8 -5 12q-3 8 -3 17q0 18 16 46q5 7 15.5 19t15.5 14q10 6 20 6q37 0 37 -52q0 -29 -11 -67q-7 -21 -16 -38q-29 -49 -64 -49zM676 255q4 1 12 9t13 18q12 20 22 62q-12 -12 -32 -51q-16 -32 -16 -38h1zM876 212
q8 14 48 106q0 9 -6 17l-1 1q-2 0 -9 -12q-22 -37 -31 -82l-2 -20zM358 70q-5 0 -11 5q-14 14 -14 55q0 31 10 77v1q-15 -39 -22 -62l-2 -8h-1q-6 0 -14 5q-12 8 -12 28q0 26 21 87q14 37 19 37q18 -2 18 -6q0 -2 -8 -19q-27 -66 -27 -89q32 77 55 115q7 11 11 11t12 -5
l2 -2l-9 -21q-10 -24 -19 -59q-11 -42 -11 -68l1 -1q29 98 52 149q12 22 18 22l14 -3q4 -1 4 -4l-7 -24q-14 -41 -26 -100q-5 -28 -5 -51q0 -21 8 -21q3 0 25 7q39 13 59 13q26 0 38 -15q-7 -1 -32.5 -5.5t-41.5 -10t-33 -14.5q-5 -2 -10 -2q-10 0 -18 13l-8 8
q-11 10 -11 32q0 16 12 66l3 16h-1q-15 -40 -28 -90q-10 -41 -10 -61v-4q0 -2 -1 -2zM235 43q-19 0 -31 17q-9 14 -9 37t6 75v1q-1 0 -7 -13q-14 -30 -25 -48q-5 -8 -10 -8q-4 0 -7.5 6.5t-10 8.5t-6.5 19t12 52q9 24 20 42q21 36 39 36q10 0 14 -17q13 28 16 32q6 8 12 12
t8 4q4 0 5 -7q0 -13 -18 -56q-20 -54 -20 -96q0 -56 19 -93l1 -2q0 -2 -8 -2zM456 177q2 0 7 17q26 74 26 80t-5 14h-2q-11 -3 -24 -55q-5 -19 -7 -40v-2q1 -14 5 -14zM158 131q4 4 8 12l45 86q2 3 2 7q0 5 -4 14l-1 1q-2 0 -9 -9q-17 -24 -30 -58q-10 -28 -11 -48v-5z
M418 -172h-9v86l9 4v-90zM657 -172h-10l-25 35l-3 -3v-32h-8v86q0 1 8 4v-51l25 22h7l-22 -20zM707 -172h-9v34q0 17 -4 20t-8 3q-9 0 -12 -11v-46h-9v86q0 1 9 4v-33q5 4 12 4q15 0 19 -13q2 -6 2 -30v-18zM799 -172q-19 0 -22 5.5t-3 21.5v30h-9v4h9v12q0 1 8 4v-16h11v-4
h-11v-31q0 -18 3 -19.5t6 -1.5q4 0 10 4zM862 -202h-1q0 84 -1 87l6 3l3 -3q5 5 14 5q13 0 18 -11q2 -6 2 -20q0 -25 -9 -29q-5 -3 -11 -3q-8 0 -13 4v-29q0 -1 -3 -2t-5 -2zM501 -172h-9v32q0 18 -3 21.5t-8 3.5q-10 0 -12 -14v-43h-9v26q0 24 -2.5 27.5t-8.5 3.5
q-9 0 -11 -10q-1 -3 -1 -26v-21h-9v58q0 1 3.5 2t5.5 2v-4q5 3 12 3q12 0 17 -7v-1q0 3 5.5 5.5t8.5 2.5q15 0 19 -10q2 -7 2 -34v-17zM572 -172h-9v58q1 1 9 4v-8q2 4 10 7h16q1 0 4 -10q-8 6 -15 6q-10 0 -14 -16q-1 -9 -1 -31v-10zM829 -201h-13l-3 10q8 -5 13 -5
q12 0 14 14l1 14q-5 -4 -13 -4q-14 0 -18 11q-3 6 -3 17v30l9 4v-31q0 -20 3.5 -23t7.5 -3q11 0 14 11v42q0 1 8 4v-61q0 -30 -20 -30zM1156 -172h-8v26q0 24 -3 27.5t-9 3.5q-8 0 -11 -10q-1 -4 -1 -25v-22h-8q-1 0 -1 34q0 17 -3 20t-8 3q-8 0 -11 -9q-1 -4 -1 -27v-21h-8
q-1 0 -1 58q0 1 9 4v-4q5 3 13 3q11 0 16 -6v-2q0 3 5 5.5t9 2.5q16 0 20 -12q1 -6 1 -34v-15zM949 -172h-15q-21 0 -21 25v11q0 26 22 26q20 0 20 -27q0 -2 -10 -4l-23 -5q0 -17 7 -20q3 -1 8 -1q7 0 15 5zM1052 -173q-22 0 -22 31q0 32 22 32q21 0 21 -31t-21 -32z
M133 -172h-4l-13 36l-12 -36h-4q-1 0 -2 5l-20 56h9l17 -46l10 28l-7 18h9q1 0 17 -46l17 46h5zM219 -172h-4q-1 1 -6.5 17.5t-6.5 17.5l-12 -35h-4q-1 1 -22 61h9l3 -7q12 -33 13 -39q1 0 9 24l2 4l-7 18h9l17 -46l17 46h5zM305 -172h-4l-13 36q-12 -36 -13 -36h-4l-21 61
h9l16 -46l10 28l-6 18h9q1 0 17 -46l17 46h5zM372 -173q-12 0 -16 13l-1 9q0 24 32 24q0 12 -13 12q-9 0 -14 -5l-2 -1q3 10 4 10h14q17 0 20 -16v-36q0 -5 3 -9h-8q-2 1 -3 5q-6 -6 -16 -6zM528 -173q-12 0 -16 12l-1 9q0 16 10 20.5t22 4.5q0 12 -13 12q-9 0 -15 -5l-1 -1
q2 10 3 10h15q20 0 20 -26q0 -32 2 -35h-7q-2 0 -3 6q-7 -7 -16 -7zM734 -173q-12 0 -16 12q-1 3 -1 9q0 16 9.5 20.5t22.5 4.5q-1 6 -3.5 9t-9.5 3q-9 0 -16 -6q2 10 3 10h15q14 0 18 -13q2 -5 2 -19q0 -25 2 -29h-8q-2 3 -2 6q-7 -7 -16 -7zM1019 -172h-14q-22 0 -22 31
q0 30 21 30h15q1 0 3 -10q-7 6 -14 6q-11 0 -13 -4.5t-2 -22.5q0 -20 3 -22.5t11 -2.5t15 5q-2 -10 -3 -10zM883 -168q7 0 9.5 6.5t2.5 23.5t-4 20t-9 3q-12 0 -12 -14v-25q0 -14 13 -14zM922 -140l24 4q0 21 -12 21t-12 -23v-2zM1052 -168q7 0 9.5 7t2.5 20q0 20 -4.5 23
t-7.5 3q-13 0 -13 -26q0 -21 4.5 -24t8.5 -3zM375 -166q8 0 13 7v27q-15 0 -19.5 -5.5t-4.5 -13.5q0 -15 10 -15h1zM530 -166q9 0 13 7v27q-15 0 -19 -5.5t-4 -13.5q0 -14 10 -15zM736 -166q9 0 13 7v27q-17 0 -22 -9q-2 -4 -2 -11q0 -14 11 -14zM343 -172h-1q-4 0 -6 4
q0 5 5 7q4 0 6 -5q0 -5 -4 -6zM971 -172h-2q-5 0 -5 5q0 4 5 6q4 0 5 -2.5t1 -3.5q0 -3 -4 -5z" />
    <glyph glyph-name="dollar" unicode="$" horiz-adv-x="1213" 
d="M375 551q-22 0 -28 26q-3 14 -3 34q0 55 32 55q20 0 27 -21q4 -14 4 -40q0 -54 -32 -54zM939 551q-22 0 -28 24q-3 13 -3 34q0 46 18 54q5 3 13 3q22 0 28 -23q4 -13 4 -35q0 -45 -18 -54q-6 -3 -14 -3zM83 553h-10v111h33q30 0 30 -31q0 -21 -13 -27q-6 -3 -20 -3h-20
v-50zM199 553h-51v111h48l2 -6h-39v-43h31v-3v-3.5t-31 -0.5v-49h42q-1 -6 -2 -6zM281 553h-11q-1 0 -4 14q-11 38 -17 38h-24v-52h-10v111h32q29 0 29 -29q0 -25 -16 -28q9 -11 21 -54zM306 553h-8q-1 0 -3 12q6 -6 11 -6q13 0 13 18q0 13 -13 35q-9 17 -9 28q0 17 13 23
l7 1h10q1 0 3 -10v-1q-7 5 -11 5q-11 0 -11 -13t11 -32.5t11 -34.5q0 -17 -14 -23q-5 -2 -10 -2zM479 553h-8q-5 6 -44 94v-94h-6v56q0 55 1 55h9l41 -90h1v90h6v-111zM560 553h-11l-10 33h-33l-10 -33h-6l32 111h5q1 -1 4 -14zM625 553h-51v111h10v-105h42zM710 551
q-18 0 -24.5 13t-6.5 44v56h11v-62q0 -32 5 -38.5t16 -6.5q13 0 16.5 9t3.5 34v64h7v-49q0 -40 -4 -48q-6 -16 -24 -16zM761 553h-8l-3 12q6 -6 11 -6q11 0 13 15v4q0 12 -12 33q-10 18 -10 31q0 16 14 21q3 1 7 1h10l3 -11q-8 5 -12 5q-11 0 -11 -13t11 -33t11 -34
q0 -17 -14 -23q-4 -2 -10 -2zM854 553h-51q-1 0 -1 56q0 55 1 55h47q1 0 2 -6h-39v-43h31v0q1 -1 1 -3q0 -3 -0.5 -3.5t-31.5 -0.5v-49h42zM1042 553h-8l-43 94v-94h-6v111h10l41 -90v90h6v-111zM1107 553h-50q-1 0 -1 56l1 55h10v-105h42q0 -6 -2 -6zM1134 553h-11v56
l-27 55h11q1 0 24 -47l23 47h7l-27 -54v-57zM376 557q12 0 16 9.5t4 42.5q0 36 -5 43.5t-15 7.5q-14 0 -17.5 -11.5t-3.5 -39.5q0 -34 4.5 -43t16.5 -9zM940 557q12 0 16 11t4 41q0 39 -6 45t-15 6q-12 0 -16 -10t-4 -41q0 -38 5 -45t16 -7zM105 609q12 0 15.5 6t3.5 18
q0 19 -8 23q-3 2 -15 2h-18v-49h22zM242 612q15 0 18.5 4.5t3.5 18.5q0 17 -5 20t-17 3h-17v-46h17zM537 592l-15 51l-14 -51h29zM638 134q-2 0 -9 5q-9 4 -11.5 10.5t-2.5 25.5q0 84 63 263q0 1 -23 1q-115 0 -137 -47q-6 9 -6 23q0 31 33 40t100 9q29 0 33 2q11 0 17 8
l3 1q6 0 9 -13l6 -12q1 0 2 -2l-7 -15q-42 -92 -57 -175q-2 -11 -2 -17q43 128 75 128q13 0 19 -15q1 -5 1 -13q0 -24 -15 -60q-6 -11 -16 -23.5t-16 -16.5t-14 -7q-3 -1 -3 -2q0 -2 9 -11q5 -3 10 -3q10 0 26 17q25 30 26 42q4 20 12 51q18 68 46 138q4 12 7 15t5 4h3
q3 -2 5 -7q3 -11 8 -18l1 -2q0 -2 -7 -16q-43 -91 -59 -181l-2 -21q1 0 4 9q41 100 74 100l12 -1q10 0 11 -6q0 -4 -7 -18q-27 -53 -27 -100q0 -38 30 -59q15 -9 32 -9q-7 -15 -34 -15q-38 0 -53 38q-4 11 -4 25q0 37 16 94l3 11q-53 -106 -65 -149q-4 -10 -7 -10l-7 5
q-7 3 -8.5 6t-1.5 15q0 18 2 44q-29 -25 -46 -25q-10 0 -17 10q-10 12 -14 19q-1 0 -3 -7q-6 -19 -14 -65q-5 -18 -8 -18zM984 324q-10 4 -10 16q0 10 12 37l9 22q-16 -23 -20 -23q-3 0 -7 10v2q-10 -12 -14 -12q-3 0 -9 11l-1 8q0 7 7 25l10 29q0 1 -1 1q-17 -1 -23 -15v-1
q-7 3 -7 10q0 10 22 14q13 2 13.5 2.5t1.5 5.5q2 8 3.5 11t5 3.5t11.5 3.5q1 0 2 -2l-8 -20q0 -1 4 -1q29 0 54 -7q10 -4 10 -8q0 -2 -1 -2q-3 2 -14 5q-17 4 -37 4q-4 0 -8 -0.5t-9.5 -0.5t-22.5 -49l-3 -8q1 -3 3 -3t7 5q10 10 17 19q3 5 13 9q-2 -6 -11 -21l-4 -11
q3 0 6 6q24 31 27 31q5 -1 5 -3q-14 -30 -26 -62q-8 -26 -8 -34zM378 -12h-6q-63 0 -97.5 40t-34.5 100q0 49 18 109q11 32 23 56l9 18q-2 1 -40 1q-76 0 -100 -28l-7 -11q-4 11 -4 21q0 28 28 39q16 6 55 6l80 -3q3 0 7 7q13 20 31 42q54 61 89 61q17 0 17 -16
q-9 -72 -71 -103q-20 -9 -22 -9q-8 -3 -22.5 -5t-16 -4.5t-12.5 -31.5q-35 -91 -35 -149q0 -54 41 -87q29 -22 63 -22q53 0 155 32l109 34q114 38 182 38q84 0 130 -46q16 -16 16 -25l-1 -1q-44 39 -135 39q-93 0 -230 -47l-104 -34q-72 -21 -115 -21zM1058 382q-8 0 -13 7
v4q0 15 8 29l4 2q6 0 7 -8q0 -14 -12 -23v-2q1 -3 3 -3q5 2 9 9.5t4 16.5q0 6 -2 17v1q7 0 9 -16l1 -6q0 -14 -11 -25q-4 -3 -7 -3zM993 326q-5 3 -5 8q1 12 25 72q9 21 12 21q6 -1 6 -4l-5 -9q-6 -12 -11 -26l21 37q5 0 6 -18q0 -24 -11 -25q-3 0 -8 4q-1 0 -5 -8
q-17 -31 -23 -49zM334 337q24 0 50 19q14 12 21 21q16 24 17 42l1 5q-22 -13 -48 -34q-32 -30 -46 -52v-1h5zM1054 402q5 5 5 12h-1q-4 -7 -4 -12zM1024 389q11 0 11 15q0 5 -1 5zM605 104q-19 0 -32 15q-9 12 -9 25q0 20 21 112l16 67q1 4 5 9q-16 -6 -42 -13q-1 0 -1 -2
v-17q0 -38 -11 -90q-15 -53 -30 -53q-4 0 -9.5 6.5t-10.5 9t-8.5 12.5t-3.5 46q-19 -76 -33 -76q-4 0 -8 6q-1 1 -7 3.5t-8.5 11.5t-2.5 18q0 26 10 59q7 20 17 35q15 23 26 23q10 0 15 -19q5 9 10.5 14.5t10.5 5.5q7 0 11 -3q0 -2 -5.5 -10.5t-9.5 -21.5q-9 -29 -9 -56
q0 -22 6 -33q2 -4 3 -4q5 3 11 23q15 47 15 92q0 25 -7 27q-20 8 -20 26q0 13 14 20q4 2 8 2q16 0 22 -31q1 -5 3 -5l30 8q13 5 14.5 5.5t7 6t9.5 5.5q9 0 10 -12q0 -3 -5 -20q-33 -112 -33 -166q0 -30 13 -60zM976 124q-25 0 -45.5 22.5t-20.5 71.5q0 20 7 41v4
q-29 -78 -39 -78q-4 0 -7 6t-9 8q-3 0 -6 4q-4 7 -4 18q0 18 9 52q8 27 18 44q19 36 36 36q11 0 16 -22q15 35 26 35q6 0 6 -11q0 -13 -14 -61q-17 -59 -17 -98q0 -37 16 -55q9 -7 19 -7q13 0 29 12q35 30 35 107q0 28 -4 53q-3 9 -6 9q-4 0 -14 -22q-17 -39 -17 -71
q0 -18 7 -29q1 -2 2 -2q-6 -3 -10 -3q-13 0 -18 28q-2 8 -5 12q-3 8 -3 17q0 18 16 46q5 7 15.5 19t15.5 14q10 6 20 6q37 0 37 -52q0 -29 -11 -67q-7 -21 -16 -38q-29 -49 -64 -49zM676 255q4 1 12 9t13 18q12 20 22 62q-12 -12 -32 -51q-16 -32 -16 -38h1zM876 212
q8 14 48 106q0 9 -6 17l-1 1q-2 0 -9 -12q-22 -37 -31 -82l-2 -20zM358 70q-5 0 -11 5q-14 14 -14 55q0 31 10 77v1q-15 -39 -22 -62l-2 -8h-1q-6 0 -14 5q-12 8 -12 28q0 26 21 87q14 37 19 37q18 -2 18 -6q0 -2 -8 -19q-27 -66 -27 -89q32 77 55 115q7 11 11 11t12 -5
l2 -2l-9 -21q-10 -24 -19 -59q-11 -42 -11 -68l1 -1q29 98 52 149q12 22 18 22l14 -3q4 -1 4 -4l-7 -24q-14 -41 -26 -100q-5 -28 -5 -51q0 -21 8 -21q3 0 25 7q39 13 59 13q26 0 38 -15q-7 -1 -32.5 -5.5t-41.5 -10t-33 -14.5q-5 -2 -10 -2q-10 0 -18 13l-8 8
q-11 10 -11 32q0 16 12 66l3 16h-1q-15 -40 -28 -90q-10 -41 -10 -61v-4q0 -2 -1 -2zM235 43q-19 0 -31 17q-9 14 -9 37t6 75v1q-1 0 -7 -13q-14 -30 -25 -48q-5 -8 -10 -8q-4 0 -7.5 6.5t-10 8.5t-6.5 19t12 52q9 24 20 42q21 36 39 36q10 0 14 -17q13 28 16 32q6 8 12 12
t8 4q4 0 5 -7q0 -13 -18 -56q-20 -54 -20 -96q0 -56 19 -93l1 -2q0 -2 -8 -2zM456 177q2 0 7 17q26 74 26 80t-5 14h-2q-11 -3 -24 -55q-5 -19 -7 -40v-2q1 -14 5 -14zM158 131q4 4 8 12l45 86q2 3 2 7q0 5 -4 14l-1 1q-2 0 -9 -9q-17 -24 -30 -58q-10 -28 -11 -48v-5z
M418 -172h-9v86l9 4v-90zM657 -172h-10l-25 35l-3 -3v-32h-8v86q0 1 8 4v-51l25 22h7l-22 -20zM707 -172h-9v34q0 17 -4 20t-8 3q-9 0 -12 -11v-46h-9v86q0 1 9 4v-33q5 4 12 4q15 0 19 -13q2 -6 2 -30v-18zM799 -172q-19 0 -22 5.5t-3 21.5v30h-9v4h9v12q0 1 8 4v-16h11v-4
h-11v-31q0 -18 3 -19.5t6 -1.5q4 0 10 4zM862 -202h-1q0 84 -1 87l6 3l3 -3q5 5 14 5q13 0 18 -11q2 -6 2 -20q0 -25 -9 -29q-5 -3 -11 -3q-8 0 -13 4v-29q0 -1 -3 -2t-5 -2zM501 -172h-9v32q0 18 -3 21.5t-8 3.5q-10 0 -12 -14v-43h-9v26q0 24 -2.5 27.5t-8.5 3.5
q-9 0 -11 -10q-1 -3 -1 -26v-21h-9v58q0 1 3.5 2t5.5 2v-4q5 3 12 3q12 0 17 -7v-1q0 3 5.5 5.5t8.5 2.5q15 0 19 -10q2 -7 2 -34v-17zM572 -172h-9v58q1 1 9 4v-8q2 4 10 7h16q1 0 4 -10q-8 6 -15 6q-10 0 -14 -16q-1 -9 -1 -31v-10zM829 -201h-13l-3 10q8 -5 13 -5
q12 0 14 14l1 14q-5 -4 -13 -4q-14 0 -18 11q-3 6 -3 17v30l9 4v-31q0 -20 3.5 -23t7.5 -3q11 0 14 11v42q0 1 8 4v-61q0 -30 -20 -30zM1156 -172h-8v26q0 24 -3 27.5t-9 3.5q-8 0 -11 -10q-1 -4 -1 -25v-22h-8q-1 0 -1 34q0 17 -3 20t-8 3q-8 0 -11 -9q-1 -4 -1 -27v-21h-8
q-1 0 -1 58q0 1 9 4v-4q5 3 13 3q11 0 16 -6v-2q0 3 5 5.5t9 2.5q16 0 20 -12q1 -6 1 -34v-15zM949 -172h-15q-21 0 -21 25v11q0 26 22 26q20 0 20 -27q0 -2 -10 -4l-23 -5q0 -17 7 -20q3 -1 8 -1q7 0 15 5zM1052 -173q-22 0 -22 31q0 32 22 32q21 0 21 -31t-21 -32z
M133 -172h-4l-13 36l-12 -36h-4q-1 0 -2 5l-20 56h9l17 -46l10 28l-7 18h9q1 0 17 -46l17 46h5zM219 -172h-4q-1 1 -6.5 17.5t-6.5 17.5l-12 -35h-4q-1 1 -22 61h9l3 -7q12 -33 13 -39q1 0 9 24l2 4l-7 18h9l17 -46l17 46h5zM305 -172h-4l-13 36q-12 -36 -13 -36h-4l-21 61
h9l16 -46l10 28l-6 18h9q1 0 17 -46l17 46h5zM372 -173q-12 0 -16 13l-1 9q0 24 32 24q0 12 -13 12q-9 0 -14 -5l-2 -1q3 10 4 10h14q17 0 20 -16v-36q0 -5 3 -9h-8q-2 1 -3 5q-6 -6 -16 -6zM528 -173q-12 0 -16 12l-1 9q0 16 10 20.5t22 4.5q0 12 -13 12q-9 0 -15 -5l-1 -1
q2 10 3 10h15q20 0 20 -26q0 -32 2 -35h-7q-2 0 -3 6q-7 -7 -16 -7zM734 -173q-12 0 -16 12q-1 3 -1 9q0 16 9.5 20.5t22.5 4.5q-1 6 -3.5 9t-9.5 3q-9 0 -16 -6q2 10 3 10h15q14 0 18 -13q2 -5 2 -19q0 -25 2 -29h-8q-2 3 -2 6q-7 -7 -16 -7zM1019 -172h-14q-22 0 -22 31
q0 30 21 30h15q1 0 3 -10q-7 6 -14 6q-11 0 -13 -4.5t-2 -22.5q0 -20 3 -22.5t11 -2.5t15 5q-2 -10 -3 -10zM883 -168q7 0 9.5 6.5t2.5 23.5t-4 20t-9 3q-12 0 -12 -14v-25q0 -14 13 -14zM922 -140l24 4q0 21 -12 21t-12 -23v-2zM1052 -168q7 0 9.5 7t2.5 20q0 20 -4.5 23
t-7.5 3q-13 0 -13 -26q0 -21 4.5 -24t8.5 -3zM375 -166q8 0 13 7v27q-15 0 -19.5 -5.5t-4.5 -13.5q0 -15 10 -15h1zM530 -166q9 0 13 7v27q-15 0 -19 -5.5t-4 -13.5q0 -14 10 -15zM736 -166q9 0 13 7v27q-17 0 -22 -9q-2 -4 -2 -11q0 -14 11 -14zM343 -172h-1q-4 0 -6 4
q0 5 5 7q4 0 6 -5q0 -5 -4 -6zM971 -172h-2q-5 0 -5 5q0 4 5 6q4 0 5 -2.5t1 -3.5q0 -3 -4 -5z" />
    <glyph glyph-name="percent" unicode="%" horiz-adv-x="998" 
d="M229 258q-85 0 -139 66t-54 157q0 92 54 157.5t139 65.5t139 -65.5t54 -157.5q0 -91 -54 -157t-139 -66zM413 4h-81l277 674h-25l-277 -674h-29q8 18 289 700h82l-278 -673h25q274 665 278 673h28q-8 -18 -289 -700zM229 284q73 0 119.5 57.5t46.5 139.5q0 83 -46.5 140
t-119.5 57t-120 -57t-47 -140q0 -82 47 -139.5t120 -57.5zM229 315q-63 0 -102.5 50t-39.5 116q0 68 39.5 117t102.5 49t102.5 -49t39.5 -117q0 -66 -39.5 -116t-102.5 -50zM229 341q51 0 83.5 41t32.5 99q0 59 -32.5 99.5t-83.5 40.5t-83.5 -40.5t-32.5 -99.5
q0 -58 32.5 -99t83.5 -41zM229 372q-39 0 -65.5 30.5t-26.5 78.5q0 50 26 80t66 30q39 0 65 -30t26 -80q0 -48 -25 -79q-27 -30 -66 -30zM229 398q29 0 47 21.5t18 61.5q0 42 -19 62q-16 21 -46 21t-47.5 -20.5t-17.5 -62.5q0 -40 18.5 -61.5t46.5 -21.5zM751 4
q-85 0 -138.5 66t-53.5 157q0 92 53.5 158t138.5 66t139 -66t54 -158q0 -91 -54 -157t-139 -66zM751 31q74 0 120.5 57t46.5 139q0 83 -46.5 140t-120.5 57q-73 0 -119.5 -57t-46.5 -140q0 -82 46.5 -139t119.5 -57zM751 61q-61 0 -101.5 50t-40.5 116q0 68 40.5 117.5
t101.5 49.5q63 0 103 -49.5t40 -117.5q0 -66 -40 -116t-103 -50zM751 88q51 0 83.5 41t32.5 98q0 59 -32.5 99.5t-83.5 40.5q-49 0 -82.5 -40.5t-33.5 -99.5q0 -57 33.5 -98t82.5 -41zM751 118q-39 0 -66 30q-25 31 -25 79q0 50 26 80t65 30q41 0 66.5 -30t25.5 -80
q0 -48 -25 -79q-28 -30 -67 -30zM751 144q30 0 46 21q20 22 20 62q0 42 -18 63t-48 21q-28 0 -46.5 -21t-18.5 -63q0 -40 18.5 -61.5t46.5 -21.5z" />
    <glyph glyph-name="ampersand" unicode="&#x26;" horiz-adv-x="1213" 
d="M375 551q-22 0 -28 26q-3 14 -3 34q0 55 32 55q20 0 27 -21q4 -14 4 -40q0 -54 -32 -54zM939 551q-22 0 -28 24q-3 13 -3 34q0 46 18 54q5 3 13 3q22 0 28 -23q4 -13 4 -35q0 -45 -18 -54q-6 -3 -14 -3zM83 553h-10v111h33q30 0 30 -31q0 -21 -13 -27q-6 -3 -20 -3h-20
v-50zM199 553h-51v111h48l2 -6h-39v-43h31v-3v-3.5t-31 -0.5v-49h42q-1 -6 -2 -6zM281 553h-11q-1 0 -4 14q-11 38 -17 38h-24v-52h-10v111h32q29 0 29 -29q0 -25 -16 -28q9 -11 21 -54zM306 553h-8q-1 0 -3 12q6 -6 11 -6q13 0 13 18q0 13 -13 35q-9 17 -9 28q0 17 13 23
l7 1h10q1 0 3 -10v-1q-7 5 -11 5q-11 0 -11 -13t11 -32.5t11 -34.5q0 -17 -14 -23q-5 -2 -10 -2zM479 553h-8q-5 6 -44 94v-94h-6v56q0 55 1 55h9l41 -90h1v90h6v-111zM560 553h-11l-10 33h-33l-10 -33h-6l32 111h5q1 -1 4 -14zM625 553h-51v111h10v-105h42zM710 551
q-18 0 -24.5 13t-6.5 44v56h11v-62q0 -32 5 -38.5t16 -6.5q13 0 16.5 9t3.5 34v64h7v-49q0 -40 -4 -48q-6 -16 -24 -16zM761 553h-8l-3 12q6 -6 11 -6q11 0 13 15v4q0 12 -12 33q-10 18 -10 31q0 16 14 21q3 1 7 1h10l3 -11q-8 5 -12 5q-11 0 -11 -13t11 -33t11 -34
q0 -17 -14 -23q-4 -2 -10 -2zM854 553h-51q-1 0 -1 56q0 55 1 55h47q1 0 2 -6h-39v-43h31v0q1 -1 1 -3q0 -3 -0.5 -3.5t-31.5 -0.5v-49h42zM1042 553h-8l-43 94v-94h-6v111h10l41 -90v90h6v-111zM1107 553h-50q-1 0 -1 56l1 55h10v-105h42q0 -6 -2 -6zM1134 553h-11v56
l-27 55h11q1 0 24 -47l23 47h7l-27 -54v-57zM376 557q12 0 16 9.5t4 42.5q0 36 -5 43.5t-15 7.5q-14 0 -17.5 -11.5t-3.5 -39.5q0 -34 4.5 -43t16.5 -9zM940 557q12 0 16 11t4 41q0 39 -6 45t-15 6q-12 0 -16 -10t-4 -41q0 -38 5 -45t16 -7zM105 609q12 0 15.5 6t3.5 18
q0 19 -8 23q-3 2 -15 2h-18v-49h22zM242 612q15 0 18.5 4.5t3.5 18.5q0 17 -5 20t-17 3h-17v-46h17zM537 592l-15 51l-14 -51h29zM638 134q-2 0 -9 5q-9 4 -11.5 10.5t-2.5 25.5q0 84 63 263q0 1 -23 1q-115 0 -137 -47q-6 9 -6 23q0 31 33 40t100 9q29 0 33 2q11 0 17 8
l3 1q6 0 9 -13l6 -12q1 0 2 -2l-7 -15q-42 -92 -57 -175q-2 -11 -2 -17q43 128 75 128q13 0 19 -15q1 -5 1 -13q0 -24 -15 -60q-6 -11 -16 -23.5t-16 -16.5t-14 -7q-3 -1 -3 -2q0 -2 9 -11q5 -3 10 -3q10 0 26 17q25 30 26 42q4 20 12 51q18 68 46 138q4 12 7 15t5 4h3
q3 -2 5 -7q3 -11 8 -18l1 -2q0 -2 -7 -16q-43 -91 -59 -181l-2 -21q1 0 4 9q41 100 74 100l12 -1q10 0 11 -6q0 -4 -7 -18q-27 -53 -27 -100q0 -38 30 -59q15 -9 32 -9q-7 -15 -34 -15q-38 0 -53 38q-4 11 -4 25q0 37 16 94l3 11q-53 -106 -65 -149q-4 -10 -7 -10l-7 5
q-7 3 -8.5 6t-1.5 15q0 18 2 44q-29 -25 -46 -25q-10 0 -17 10q-10 12 -14 19q-1 0 -3 -7q-6 -19 -14 -65q-5 -18 -8 -18zM984 324q-10 4 -10 16q0 10 12 37l9 22q-16 -23 -20 -23q-3 0 -7 10v2q-10 -12 -14 -12q-3 0 -9 11l-1 8q0 7 7 25l10 29q0 1 -1 1q-17 -1 -23 -15v-1
q-7 3 -7 10q0 10 22 14q13 2 13.5 2.5t1.5 5.5q2 8 3.5 11t5 3.5t11.5 3.5q1 0 2 -2l-8 -20q0 -1 4 -1q29 0 54 -7q10 -4 10 -8q0 -2 -1 -2q-3 2 -14 5q-17 4 -37 4q-4 0 -8 -0.5t-9.5 -0.5t-22.5 -49l-3 -8q1 -3 3 -3t7 5q10 10 17 19q3 5 13 9q-2 -6 -11 -21l-4 -11
q3 0 6 6q24 31 27 31q5 -1 5 -3q-14 -30 -26 -62q-8 -26 -8 -34zM378 -12h-6q-63 0 -97.5 40t-34.5 100q0 49 18 109q11 32 23 56l9 18q-2 1 -40 1q-76 0 -100 -28l-7 -11q-4 11 -4 21q0 28 28 39q16 6 55 6l80 -3q3 0 7 7q13 20 31 42q54 61 89 61q17 0 17 -16
q-9 -72 -71 -103q-20 -9 -22 -9q-8 -3 -22.5 -5t-16 -4.5t-12.5 -31.5q-35 -91 -35 -149q0 -54 41 -87q29 -22 63 -22q53 0 155 32l109 34q114 38 182 38q84 0 130 -46q16 -16 16 -25l-1 -1q-44 39 -135 39q-93 0 -230 -47l-104 -34q-72 -21 -115 -21zM1058 382q-8 0 -13 7
v4q0 15 8 29l4 2q6 0 7 -8q0 -14 -12 -23v-2q1 -3 3 -3q5 2 9 9.5t4 16.5q0 6 -2 17v1q7 0 9 -16l1 -6q0 -14 -11 -25q-4 -3 -7 -3zM993 326q-5 3 -5 8q1 12 25 72q9 21 12 21q6 -1 6 -4l-5 -9q-6 -12 -11 -26l21 37q5 0 6 -18q0 -24 -11 -25q-3 0 -8 4q-1 0 -5 -8
q-17 -31 -23 -49zM334 337q24 0 50 19q14 12 21 21q16 24 17 42l1 5q-22 -13 -48 -34q-32 -30 -46 -52v-1h5zM1054 402q5 5 5 12h-1q-4 -7 -4 -12zM1024 389q11 0 11 15q0 5 -1 5zM605 104q-19 0 -32 15q-9 12 -9 25q0 20 21 112l16 67q1 4 5 9q-16 -6 -42 -13q-1 0 -1 -2
v-17q0 -38 -11 -90q-15 -53 -30 -53q-4 0 -9.5 6.5t-10.5 9t-8.5 12.5t-3.5 46q-19 -76 -33 -76q-4 0 -8 6q-1 1 -7 3.5t-8.5 11.5t-2.5 18q0 26 10 59q7 20 17 35q15 23 26 23q10 0 15 -19q5 9 10.5 14.5t10.5 5.5q7 0 11 -3q0 -2 -5.5 -10.5t-9.5 -21.5q-9 -29 -9 -56
q0 -22 6 -33q2 -4 3 -4q5 3 11 23q15 47 15 92q0 25 -7 27q-20 8 -20 26q0 13 14 20q4 2 8 2q16 0 22 -31q1 -5 3 -5l30 8q13 5 14.5 5.5t7 6t9.5 5.5q9 0 10 -12q0 -3 -5 -20q-33 -112 -33 -166q0 -30 13 -60zM976 124q-25 0 -45.5 22.5t-20.5 71.5q0 20 7 41v4
q-29 -78 -39 -78q-4 0 -7 6t-9 8q-3 0 -6 4q-4 7 -4 18q0 18 9 52q8 27 18 44q19 36 36 36q11 0 16 -22q15 35 26 35q6 0 6 -11q0 -13 -14 -61q-17 -59 -17 -98q0 -37 16 -55q9 -7 19 -7q13 0 29 12q35 30 35 107q0 28 -4 53q-3 9 -6 9q-4 0 -14 -22q-17 -39 -17 -71
q0 -18 7 -29q1 -2 2 -2q-6 -3 -10 -3q-13 0 -18 28q-2 8 -5 12q-3 8 -3 17q0 18 16 46q5 7 15.5 19t15.5 14q10 6 20 6q37 0 37 -52q0 -29 -11 -67q-7 -21 -16 -38q-29 -49 -64 -49zM676 255q4 1 12 9t13 18q12 20 22 62q-12 -12 -32 -51q-16 -32 -16 -38h1zM876 212
q8 14 48 106q0 9 -6 17l-1 1q-2 0 -9 -12q-22 -37 -31 -82l-2 -20zM358 70q-5 0 -11 5q-14 14 -14 55q0 31 10 77v1q-15 -39 -22 -62l-2 -8h-1q-6 0 -14 5q-12 8 -12 28q0 26 21 87q14 37 19 37q18 -2 18 -6q0 -2 -8 -19q-27 -66 -27 -89q32 77 55 115q7 11 11 11t12 -5
l2 -2l-9 -21q-10 -24 -19 -59q-11 -42 -11 -68l1 -1q29 98 52 149q12 22 18 22l14 -3q4 -1 4 -4l-7 -24q-14 -41 -26 -100q-5 -28 -5 -51q0 -21 8 -21q3 0 25 7q39 13 59 13q26 0 38 -15q-7 -1 -32.5 -5.5t-41.5 -10t-33 -14.5q-5 -2 -10 -2q-10 0 -18 13l-8 8
q-11 10 -11 32q0 16 12 66l3 16h-1q-15 -40 -28 -90q-10 -41 -10 -61v-4q0 -2 -1 -2zM235 43q-19 0 -31 17q-9 14 -9 37t6 75v1q-1 0 -7 -13q-14 -30 -25 -48q-5 -8 -10 -8q-4 0 -7.5 6.5t-10 8.5t-6.5 19t12 52q9 24 20 42q21 36 39 36q10 0 14 -17q13 28 16 32q6 8 12 12
t8 4q4 0 5 -7q0 -13 -18 -56q-20 -54 -20 -96q0 -56 19 -93l1 -2q0 -2 -8 -2zM456 177q2 0 7 17q26 74 26 80t-5 14h-2q-11 -3 -24 -55q-5 -19 -7 -40v-2q1 -14 5 -14zM158 131q4 4 8 12l45 86q2 3 2 7q0 5 -4 14l-1 1q-2 0 -9 -9q-17 -24 -30 -58q-10 -28 -11 -48v-5z
M418 -172h-9v86l9 4v-90zM657 -172h-10l-25 35l-3 -3v-32h-8v86q0 1 8 4v-51l25 22h7l-22 -20zM707 -172h-9v34q0 17 -4 20t-8 3q-9 0 -12 -11v-46h-9v86q0 1 9 4v-33q5 4 12 4q15 0 19 -13q2 -6 2 -30v-18zM799 -172q-19 0 -22 5.5t-3 21.5v30h-9v4h9v12q0 1 8 4v-16h11v-4
h-11v-31q0 -18 3 -19.5t6 -1.5q4 0 10 4zM862 -202h-1q0 84 -1 87l6 3l3 -3q5 5 14 5q13 0 18 -11q2 -6 2 -20q0 -25 -9 -29q-5 -3 -11 -3q-8 0 -13 4v-29q0 -1 -3 -2t-5 -2zM501 -172h-9v32q0 18 -3 21.5t-8 3.5q-10 0 -12 -14v-43h-9v26q0 24 -2.5 27.5t-8.5 3.5
q-9 0 -11 -10q-1 -3 -1 -26v-21h-9v58q0 1 3.5 2t5.5 2v-4q5 3 12 3q12 0 17 -7v-1q0 3 5.5 5.5t8.5 2.5q15 0 19 -10q2 -7 2 -34v-17zM572 -172h-9v58q1 1 9 4v-8q2 4 10 7h16q1 0 4 -10q-8 6 -15 6q-10 0 -14 -16q-1 -9 -1 -31v-10zM829 -201h-13l-3 10q8 -5 13 -5
q12 0 14 14l1 14q-5 -4 -13 -4q-14 0 -18 11q-3 6 -3 17v30l9 4v-31q0 -20 3.5 -23t7.5 -3q11 0 14 11v42q0 1 8 4v-61q0 -30 -20 -30zM1156 -172h-8v26q0 24 -3 27.5t-9 3.5q-8 0 -11 -10q-1 -4 -1 -25v-22h-8q-1 0 -1 34q0 17 -3 20t-8 3q-8 0 -11 -9q-1 -4 -1 -27v-21h-8
q-1 0 -1 58q0 1 9 4v-4q5 3 13 3q11 0 16 -6v-2q0 3 5 5.5t9 2.5q16 0 20 -12q1 -6 1 -34v-15zM949 -172h-15q-21 0 -21 25v11q0 26 22 26q20 0 20 -27q0 -2 -10 -4l-23 -5q0 -17 7 -20q3 -1 8 -1q7 0 15 5zM1052 -173q-22 0 -22 31q0 32 22 32q21 0 21 -31t-21 -32z
M133 -172h-4l-13 36l-12 -36h-4q-1 0 -2 5l-20 56h9l17 -46l10 28l-7 18h9q1 0 17 -46l17 46h5zM219 -172h-4q-1 1 -6.5 17.5t-6.5 17.5l-12 -35h-4q-1 1 -22 61h9l3 -7q12 -33 13 -39q1 0 9 24l2 4l-7 18h9l17 -46l17 46h5zM305 -172h-4l-13 36q-12 -36 -13 -36h-4l-21 61
h9l16 -46l10 28l-6 18h9q1 0 17 -46l17 46h5zM372 -173q-12 0 -16 13l-1 9q0 24 32 24q0 12 -13 12q-9 0 -14 -5l-2 -1q3 10 4 10h14q17 0 20 -16v-36q0 -5 3 -9h-8q-2 1 -3 5q-6 -6 -16 -6zM528 -173q-12 0 -16 12l-1 9q0 16 10 20.5t22 4.5q0 12 -13 12q-9 0 -15 -5l-1 -1
q2 10 3 10h15q20 0 20 -26q0 -32 2 -35h-7q-2 0 -3 6q-7 -7 -16 -7zM734 -173q-12 0 -16 12q-1 3 -1 9q0 16 9.5 20.5t22.5 4.5q-1 6 -3.5 9t-9.5 3q-9 0 -16 -6q2 10 3 10h15q14 0 18 -13q2 -5 2 -19q0 -25 2 -29h-8q-2 3 -2 6q-7 -7 -16 -7zM1019 -172h-14q-22 0 -22 31
q0 30 21 30h15q1 0 3 -10q-7 6 -14 6q-11 0 -13 -4.5t-2 -22.5q0 -20 3 -22.5t11 -2.5t15 5q-2 -10 -3 -10zM883 -168q7 0 9.5 6.5t2.5 23.5t-4 20t-9 3q-12 0 -12 -14v-25q0 -14 13 -14zM922 -140l24 4q0 21 -12 21t-12 -23v-2zM1052 -168q7 0 9.5 7t2.5 20q0 20 -4.5 23
t-7.5 3q-13 0 -13 -26q0 -21 4.5 -24t8.5 -3zM375 -166q8 0 13 7v27q-15 0 -19.5 -5.5t-4.5 -13.5q0 -15 10 -15h1zM530 -166q9 0 13 7v27q-15 0 -19 -5.5t-4 -13.5q0 -14 10 -15zM736 -166q9 0 13 7v27q-17 0 -22 -9q-2 -4 -2 -11q0 -14 11 -14zM343 -172h-1q-4 0 -6 4
q0 5 5 7q4 0 6 -5q0 -5 -4 -6zM971 -172h-2q-5 0 -5 5q0 4 5 6q4 0 5 -2.5t1 -3.5q0 -3 -4 -5z" />
    <glyph glyph-name="quotesingle" unicode="'" horiz-adv-x="208" 
d="M112 491l36 184h-31v-76h-26v76h-31l36 -184h16zM134 465h-60l-46 236h152z" />
    <glyph glyph-name="parenleft" unicode="(" horiz-adv-x="322" 
d="M288 -102h-95l-22 49q-77 191 -77 425q0 233 77 425l10 22h-34q-12 -24 -22 -53q-59 -164 -59 -394q0 -229 59 -395q4 -11 9.5 -25t10.5 -24l5 -11l9 -19h-29l-4 8l-26 62q-60 172 -60 404q0 233 60 403q12 35 27 63l3 8h91l-26 -60q-37 -86 -55.5 -193t-18.5 -221
q0 -252 89 -448h32q-19 31 -36 79q-25 69 -41.5 164.5t-16.5 204.5t16 204q27 157 80 251l10 19h29l-9 -20q-56 -93 -83 -254q-16 -93 -16 -200t16 -200q28 -169 84 -254z" />
    <glyph glyph-name="parenright" unicode=")" horiz-adv-x="321" 
d="M189 -100h-30l14 30q79 174 79 444q0 268 -80 447h-35l10 -22q77 -178 77 -425t-77 -425l-21 -49h-95l12 20q22 31 45 93q25 68 40.5 161t15.5 200t-16 200q-27 164 -83 254l-10 20h29l5 -10q57 -92 85 -260q16 -95 16 -204t-16 -205q-25 -151 -77 -243h32l14 33
q75 186 75 415q0 114 -18.5 221t-56.5 193l-26 60h91q19 -38 30 -71q61 -170 61 -403q0 -232 -61 -404q-4 -12 -10 -26.5t-11 -24.5l-5 -11z" />
    <glyph glyph-name="asterisk" unicode="*" horiz-adv-x="430" 
d="M256 350l-41 76l-42 -76l-115 84l59 63l-85 16l44 135l79 -37q-10 72 -11 87h142l-11 -87l78 37l44 -135l-85 -16l60 -63zM265 389l67 48l-72 77l103 19l-25 79l-95 -45l13 104h-83l14 -104l-95 45l-26 -79l103 -19l-72 -77l67 -48l51 92zM268 436l-53 69l-53 -69l-21 17
l52 67l-85 32l9 25l85 -32v93h26v-93l85 32l9 -25l-86 -32l52 -67z" />
    <glyph glyph-name="plus" unicode="+" horiz-adv-x="493" 
d="M311 137h-75v201h-175v-24h153v-177h-26v150h-153v77h201v158h-22v-133h-179v26h153v133h74v-184h175v25h-153v159h27v-133h153v-77h-202v-175h22v151h180v-27h-153v-150z" />
    <glyph glyph-name="comma" unicode="," horiz-adv-x="213" 
d="M106 86q-9 0 -16 6t-7 16t7 16t16 6q8 0 15.5 -6t7.5 -16t-7.5 -16t-15.5 -6zM146 -68h-88l24 107q-24 7 -39.5 25.5t-15.5 43.5q0 32 23.5 53.5t55.5 21.5t55 -21.5t23 -53.5l-1 -16zM125 -41l32 139l1 10q0 20 -15 34t-37 14t-37.5 -14t-15.5 -34q0 -25 17 -35.5
t44 -13.5l-23 -100h34z" />
    <glyph glyph-name="hyphen" unicode="-" horiz-adv-x="491" 
d="M467 193h-443v27h416v21h-416v75h443v-26h-417v-22h417v-75z" />
    <glyph glyph-name="hyphen" unicode="&#xad;" horiz-adv-x="491" 
d="M467 193h-443v27h416v21h-416v75h443v-26h-417v-22h417v-75z" />
    <glyph glyph-name="period" unicode="." horiz-adv-x="208" 
d="M104 50q-9 0 -16 6t-7 16t7 16t16 6q8 0 15.5 -6t7.5 -16t-7.5 -16t-15.5 -6zM104 -2q-32 0 -55.5 21.5t-23.5 52.5q0 32 23.5 53.5t55.5 21.5t55 -21.5t23 -53.5q0 -31 -23 -52.5t-55 -21.5zM104 24q22 0 37 14.5t15 33.5q0 20 -15 34t-37 14t-37.5 -14t-15.5 -34
q0 -19 15.5 -33.5t37.5 -14.5z" />
    <glyph glyph-name="slash" unicode="/" horiz-adv-x="536" 
d="M157 0h-29l362 674h-32l-362 -674h-91l373 693l3 7h30l-362 -674h31l363 674h91z" />
    <glyph glyph-name="zero" unicode="0" horiz-adv-x="704" 
d="M352 0q-90 0 -160 47.5t-109.5 127t-39.5 175.5t39.5 175.5t109.5 127t160 47.5q91 0 160.5 -47.5t109 -127t39.5 -175.5t-39.5 -175.5t-109 -127t-160.5 -47.5zM352 26q83 0 146.5 43.5t99.5 117t36 163.5t-36 163.5t-99.5 117t-146.5 43.5t-147 -43.5t-100 -117
t-36 -163.5t36 -163.5t100 -117t147 -43.5zM352 65q-111 0 -179.5 83.5t-68.5 201.5q0 119 68.5 202t179.5 83t179 -83t68 -202q0 -118 -68 -201.5t-179 -83.5zM352 91q98 0 159.5 75t61.5 184q0 110 -61.5 184.5t-159.5 74.5t-160 -74.5t-62 -184.5q0 -109 62 -184t160 -75
zM352 130q-81 0 -134 60t-53 160q0 101 52.5 160.5t134.5 59.5q81 0 135 -59q51 -60 51 -161q0 -100 -52 -161q-54 -59 -134 -59zM352 156q71 0 115.5 50.5t44.5 143.5t-44 143.5t-116 50.5t-116 -50.5t-44 -143.5t45 -143.5t115 -50.5z" />
    <glyph glyph-name="one" unicode="1" horiz-adv-x="330" 
d="M269 0h-87v619h-123v-28h88v-591h-26v565h-88v81h175v-620h35v648h-210v26h236v-700z" />
    <glyph glyph-name="two" unicode="2" horiz-adv-x="1213" 
d="M375 551q-22 0 -28 26q-3 14 -3 34q0 55 32 55q20 0 27 -21q4 -14 4 -40q0 -54 -32 -54zM939 551q-22 0 -28 24q-3 13 -3 34q0 46 18 54q5 3 13 3q22 0 28 -23q4 -13 4 -35q0 -45 -18 -54q-6 -3 -14 -3zM83 553h-10v111h33q30 0 30 -31q0 -21 -13 -27q-6 -3 -20 -3h-20
v-50zM199 553h-51v111h48l2 -6h-39v-43h31v-3v-3.5t-31 -0.5v-49h42q-1 -6 -2 -6zM281 553h-11q-1 0 -4 14q-11 38 -17 38h-24v-52h-10v111h32q29 0 29 -29q0 -25 -16 -28q9 -11 21 -54zM306 553h-8q-1 0 -3 12q6 -6 11 -6q13 0 13 18q0 13 -13 35q-9 17 -9 28q0 17 13 23
l7 1h10q1 0 3 -10v-1q-7 5 -11 5q-11 0 -11 -13t11 -32.5t11 -34.5q0 -17 -14 -23q-5 -2 -10 -2zM479 553h-8q-5 6 -44 94v-94h-6v56q0 55 1 55h9l41 -90h1v90h6v-111zM560 553h-11l-10 33h-33l-10 -33h-6l32 111h5q1 -1 4 -14zM625 553h-51v111h10v-105h42zM710 551
q-18 0 -24.5 13t-6.5 44v56h11v-62q0 -32 5 -38.5t16 -6.5q13 0 16.5 9t3.5 34v64h7v-49q0 -40 -4 -48q-6 -16 -24 -16zM761 553h-8l-3 12q6 -6 11 -6q11 0 13 15v4q0 12 -12 33q-10 18 -10 31q0 16 14 21q3 1 7 1h10l3 -11q-8 5 -12 5q-11 0 -11 -13t11 -33t11 -34
q0 -17 -14 -23q-4 -2 -10 -2zM854 553h-51q-1 0 -1 56q0 55 1 55h47q1 0 2 -6h-39v-43h31v0q1 -1 1 -3q0 -3 -0.5 -3.5t-31.5 -0.5v-49h42zM1042 553h-8l-43 94v-94h-6v111h10l41 -90v90h6v-111zM1107 553h-50q-1 0 -1 56l1 55h10v-105h42q0 -6 -2 -6zM1134 553h-11v56
l-27 55h11q1 0 24 -47l23 47h7l-27 -54v-57zM376 557q12 0 16 9.5t4 42.5q0 36 -5 43.5t-15 7.5q-14 0 -17.5 -11.5t-3.5 -39.5q0 -34 4.5 -43t16.5 -9zM940 557q12 0 16 11t4 41q0 39 -6 45t-15 6q-12 0 -16 -10t-4 -41q0 -38 5 -45t16 -7zM105 609q12 0 15.5 6t3.5 18
q0 19 -8 23q-3 2 -15 2h-18v-49h22zM242 612q15 0 18.5 4.5t3.5 18.5q0 17 -5 20t-17 3h-17v-46h17zM537 592l-15 51l-14 -51h29zM638 134q-2 0 -9 5q-9 4 -11.5 10.5t-2.5 25.5q0 84 63 263q0 1 -23 1q-115 0 -137 -47q-6 9 -6 23q0 31 33 40t100 9q29 0 33 2q11 0 17 8
l3 1q6 0 9 -13l6 -12q1 0 2 -2l-7 -15q-42 -92 -57 -175q-2 -11 -2 -17q43 128 75 128q13 0 19 -15q1 -5 1 -13q0 -24 -15 -60q-6 -11 -16 -23.5t-16 -16.5t-14 -7q-3 -1 -3 -2q0 -2 9 -11q5 -3 10 -3q10 0 26 17q25 30 26 42q4 20 12 51q18 68 46 138q4 12 7 15t5 4h3
q3 -2 5 -7q3 -11 8 -18l1 -2q0 -2 -7 -16q-43 -91 -59 -181l-2 -21q1 0 4 9q41 100 74 100l12 -1q10 0 11 -6q0 -4 -7 -18q-27 -53 -27 -100q0 -38 30 -59q15 -9 32 -9q-7 -15 -34 -15q-38 0 -53 38q-4 11 -4 25q0 37 16 94l3 11q-53 -106 -65 -149q-4 -10 -7 -10l-7 5
q-7 3 -8.5 6t-1.5 15q0 18 2 44q-29 -25 -46 -25q-10 0 -17 10q-10 12 -14 19q-1 0 -3 -7q-6 -19 -14 -65q-5 -18 -8 -18zM984 324q-10 4 -10 16q0 10 12 37l9 22q-16 -23 -20 -23q-3 0 -7 10v2q-10 -12 -14 -12q-3 0 -9 11l-1 8q0 7 7 25l10 29q0 1 -1 1q-17 -1 -23 -15v-1
q-7 3 -7 10q0 10 22 14q13 2 13.5 2.5t1.5 5.5q2 8 3.5 11t5 3.5t11.5 3.5q1 0 2 -2l-8 -20q0 -1 4 -1q29 0 54 -7q10 -4 10 -8q0 -2 -1 -2q-3 2 -14 5q-17 4 -37 4q-4 0 -8 -0.5t-9.5 -0.5t-22.5 -49l-3 -8q1 -3 3 -3t7 5q10 10 17 19q3 5 13 9q-2 -6 -11 -21l-4 -11
q3 0 6 6q24 31 27 31q5 -1 5 -3q-14 -30 -26 -62q-8 -26 -8 -34zM378 -12h-6q-63 0 -97.5 40t-34.5 100q0 49 18 109q11 32 23 56l9 18q-2 1 -40 1q-76 0 -100 -28l-7 -11q-4 11 -4 21q0 28 28 39q16 6 55 6l80 -3q3 0 7 7q13 20 31 42q54 61 89 61q17 0 17 -16
q-9 -72 -71 -103q-20 -9 -22 -9q-8 -3 -22.5 -5t-16 -4.5t-12.5 -31.5q-35 -91 -35 -149q0 -54 41 -87q29 -22 63 -22q53 0 155 32l109 34q114 38 182 38q84 0 130 -46q16 -16 16 -25l-1 -1q-44 39 -135 39q-93 0 -230 -47l-104 -34q-72 -21 -115 -21zM1058 382q-8 0 -13 7
v4q0 15 8 29l4 2q6 0 7 -8q0 -14 -12 -23v-2q1 -3 3 -3q5 2 9 9.5t4 16.5q0 6 -2 17v1q7 0 9 -16l1 -6q0 -14 -11 -25q-4 -3 -7 -3zM993 326q-5 3 -5 8q1 12 25 72q9 21 12 21q6 -1 6 -4l-5 -9q-6 -12 -11 -26l21 37q5 0 6 -18q0 -24 -11 -25q-3 0 -8 4q-1 0 -5 -8
q-17 -31 -23 -49zM334 337q24 0 50 19q14 12 21 21q16 24 17 42l1 5q-22 -13 -48 -34q-32 -30 -46 -52v-1h5zM1054 402q5 5 5 12h-1q-4 -7 -4 -12zM1024 389q11 0 11 15q0 5 -1 5zM605 104q-19 0 -32 15q-9 12 -9 25q0 20 21 112l16 67q1 4 5 9q-16 -6 -42 -13q-1 0 -1 -2
v-17q0 -38 -11 -90q-15 -53 -30 -53q-4 0 -9.5 6.5t-10.5 9t-8.5 12.5t-3.5 46q-19 -76 -33 -76q-4 0 -8 6q-1 1 -7 3.5t-8.5 11.5t-2.5 18q0 26 10 59q7 20 17 35q15 23 26 23q10 0 15 -19q5 9 10.5 14.5t10.5 5.5q7 0 11 -3q0 -2 -5.5 -10.5t-9.5 -21.5q-9 -29 -9 -56
q0 -22 6 -33q2 -4 3 -4q5 3 11 23q15 47 15 92q0 25 -7 27q-20 8 -20 26q0 13 14 20q4 2 8 2q16 0 22 -31q1 -5 3 -5l30 8q13 5 14.5 5.5t7 6t9.5 5.5q9 0 10 -12q0 -3 -5 -20q-33 -112 -33 -166q0 -30 13 -60zM976 124q-25 0 -45.5 22.5t-20.5 71.5q0 20 7 41v4
q-29 -78 -39 -78q-4 0 -7 6t-9 8q-3 0 -6 4q-4 7 -4 18q0 18 9 52q8 27 18 44q19 36 36 36q11 0 16 -22q15 35 26 35q6 0 6 -11q0 -13 -14 -61q-17 -59 -17 -98q0 -37 16 -55q9 -7 19 -7q13 0 29 12q35 30 35 107q0 28 -4 53q-3 9 -6 9q-4 0 -14 -22q-17 -39 -17 -71
q0 -18 7 -29q1 -2 2 -2q-6 -3 -10 -3q-13 0 -18 28q-2 8 -5 12q-3 8 -3 17q0 18 16 46q5 7 15.5 19t15.5 14q10 6 20 6q37 0 37 -52q0 -29 -11 -67q-7 -21 -16 -38q-29 -49 -64 -49zM676 255q4 1 12 9t13 18q12 20 22 62q-12 -12 -32 -51q-16 -32 -16 -38h1zM876 212
q8 14 48 106q0 9 -6 17l-1 1q-2 0 -9 -12q-22 -37 -31 -82l-2 -20zM358 70q-5 0 -11 5q-14 14 -14 55q0 31 10 77v1q-15 -39 -22 -62l-2 -8h-1q-6 0 -14 5q-12 8 -12 28q0 26 21 87q14 37 19 37q18 -2 18 -6q0 -2 -8 -19q-27 -66 -27 -89q32 77 55 115q7 11 11 11t12 -5
l2 -2l-9 -21q-10 -24 -19 -59q-11 -42 -11 -68l1 -1q29 98 52 149q12 22 18 22l14 -3q4 -1 4 -4l-7 -24q-14 -41 -26 -100q-5 -28 -5 -51q0 -21 8 -21q3 0 25 7q39 13 59 13q26 0 38 -15q-7 -1 -32.5 -5.5t-41.5 -10t-33 -14.5q-5 -2 -10 -2q-10 0 -18 13l-8 8
q-11 10 -11 32q0 16 12 66l3 16h-1q-15 -40 -28 -90q-10 -41 -10 -61v-4q0 -2 -1 -2zM235 43q-19 0 -31 17q-9 14 -9 37t6 75v1q-1 0 -7 -13q-14 -30 -25 -48q-5 -8 -10 -8q-4 0 -7.5 6.5t-10 8.5t-6.5 19t12 52q9 24 20 42q21 36 39 36q10 0 14 -17q13 28 16 32q6 8 12 12
t8 4q4 0 5 -7q0 -13 -18 -56q-20 -54 -20 -96q0 -56 19 -93l1 -2q0 -2 -8 -2zM456 177q2 0 7 17q26 74 26 80t-5 14h-2q-11 -3 -24 -55q-5 -19 -7 -40v-2q1 -14 5 -14zM158 131q4 4 8 12l45 86q2 3 2 7q0 5 -4 14l-1 1q-2 0 -9 -9q-17 -24 -30 -58q-10 -28 -11 -48v-5z
M418 -172h-9v86l9 4v-90zM657 -172h-10l-25 35l-3 -3v-32h-8v86q0 1 8 4v-51l25 22h7l-22 -20zM707 -172h-9v34q0 17 -4 20t-8 3q-9 0 -12 -11v-46h-9v86q0 1 9 4v-33q5 4 12 4q15 0 19 -13q2 -6 2 -30v-18zM799 -172q-19 0 -22 5.5t-3 21.5v30h-9v4h9v12q0 1 8 4v-16h11v-4
h-11v-31q0 -18 3 -19.5t6 -1.5q4 0 10 4zM862 -202h-1q0 84 -1 87l6 3l3 -3q5 5 14 5q13 0 18 -11q2 -6 2 -20q0 -25 -9 -29q-5 -3 -11 -3q-8 0 -13 4v-29q0 -1 -3 -2t-5 -2zM501 -172h-9v32q0 18 -3 21.5t-8 3.5q-10 0 -12 -14v-43h-9v26q0 24 -2.5 27.5t-8.5 3.5
q-9 0 -11 -10q-1 -3 -1 -26v-21h-9v58q0 1 3.5 2t5.5 2v-4q5 3 12 3q12 0 17 -7v-1q0 3 5.5 5.5t8.5 2.5q15 0 19 -10q2 -7 2 -34v-17zM572 -172h-9v58q1 1 9 4v-8q2 4 10 7h16q1 0 4 -10q-8 6 -15 6q-10 0 -14 -16q-1 -9 -1 -31v-10zM829 -201h-13l-3 10q8 -5 13 -5
q12 0 14 14l1 14q-5 -4 -13 -4q-14 0 -18 11q-3 6 -3 17v30l9 4v-31q0 -20 3.5 -23t7.5 -3q11 0 14 11v42q0 1 8 4v-61q0 -30 -20 -30zM1156 -172h-8v26q0 24 -3 27.5t-9 3.5q-8 0 -11 -10q-1 -4 -1 -25v-22h-8q-1 0 -1 34q0 17 -3 20t-8 3q-8 0 -11 -9q-1 -4 -1 -27v-21h-8
q-1 0 -1 58q0 1 9 4v-4q5 3 13 3q11 0 16 -6v-2q0 3 5 5.5t9 2.5q16 0 20 -12q1 -6 1 -34v-15zM949 -172h-15q-21 0 -21 25v11q0 26 22 26q20 0 20 -27q0 -2 -10 -4l-23 -5q0 -17 7 -20q3 -1 8 -1q7 0 15 5zM1052 -173q-22 0 -22 31q0 32 22 32q21 0 21 -31t-21 -32z
M133 -172h-4l-13 36l-12 -36h-4q-1 0 -2 5l-20 56h9l17 -46l10 28l-7 18h9q1 0 17 -46l17 46h5zM219 -172h-4q-1 1 -6.5 17.5t-6.5 17.5l-12 -35h-4q-1 1 -22 61h9l3 -7q12 -33 13 -39q1 0 9 24l2 4l-7 18h9l17 -46l17 46h5zM305 -172h-4l-13 36q-12 -36 -13 -36h-4l-21 61
h9l16 -46l10 28l-6 18h9q1 0 17 -46l17 46h5zM372 -173q-12 0 -16 13l-1 9q0 24 32 24q0 12 -13 12q-9 0 -14 -5l-2 -1q3 10 4 10h14q17 0 20 -16v-36q0 -5 3 -9h-8q-2 1 -3 5q-6 -6 -16 -6zM528 -173q-12 0 -16 12l-1 9q0 16 10 20.5t22 4.5q0 12 -13 12q-9 0 -15 -5l-1 -1
q2 10 3 10h15q20 0 20 -26q0 -32 2 -35h-7q-2 0 -3 6q-7 -7 -16 -7zM734 -173q-12 0 -16 12q-1 3 -1 9q0 16 9.5 20.5t22.5 4.5q-1 6 -3.5 9t-9.5 3q-9 0 -16 -6q2 10 3 10h15q14 0 18 -13q2 -5 2 -19q0 -25 2 -29h-8q-2 3 -2 6q-7 -7 -16 -7zM1019 -172h-14q-22 0 -22 31
q0 30 21 30h15q1 0 3 -10q-7 6 -14 6q-11 0 -13 -4.5t-2 -22.5q0 -20 3 -22.5t11 -2.5t15 5q-2 -10 -3 -10zM883 -168q7 0 9.5 6.5t2.5 23.5t-4 20t-9 3q-12 0 -12 -14v-25q0 -14 13 -14zM922 -140l24 4q0 21 -12 21t-12 -23v-2zM1052 -168q7 0 9.5 7t2.5 20q0 20 -4.5 23
t-7.5 3q-13 0 -13 -26q0 -21 4.5 -24t8.5 -3zM375 -166q8 0 13 7v27q-15 0 -19.5 -5.5t-4.5 -13.5q0 -15 10 -15h1zM530 -166q9 0 13 7v27q-15 0 -19 -5.5t-4 -13.5q0 -14 10 -15zM736 -166q9 0 13 7v27q-17 0 -22 -9q-2 -4 -2 -11q0 -14 11 -14zM343 -172h-1q-4 0 -6 4
q0 5 5 7q4 0 6 -5q0 -5 -4 -6zM971 -172h-2q-5 0 -5 5q0 4 5 6q4 0 5 -2.5t1 -3.5q0 -3 -4 -5z" />
    <glyph glyph-name="three" unicode="3" horiz-adv-x="660" 
d="M327 0q-83 0 -158.5 21.5t-131.5 55.5l35 76q49 -33 123 -55q64 -19 131 -19q194 0 194 128q0 57 -61 93.5t-133 36.5v26q72 0 133 37t61 94q0 68 -50 95q-51 32 -144 32q-62 0 -127 -19.5t-104 -41.5l12 -27q15 9 47 23t76 26t94 12q81 0 120 -28t39 -72q0 -46 -55 -75
q-48 -24 -135 -26v-86q87 -2 135 -26q55 -28 55 -75q0 -100 -170 -100q-60 0 -109.5 17.5t-79.5 34.5l-30 17l-11 8l15 21l11 -7l28 -16q28 -16 74.5 -32.5t101.5 -16.5q143 0 143 74q0 30 -40 51q-43 25 -136 25h-13v136h13q93 0 136 25q40 21 40 51q0 74 -132 74
q-55 0 -104.5 -16t-80.5 -33l-31 -16l-12 -8l-35 76q51 31 122.5 53.5t142.5 22.5q98 0 159 -37.5t61 -115.5q0 -37 -20 -66q-37 -55 -115 -78q35 -10 63 -28q72 -46 72 -115q0 -78 -61 -118q-60 -36 -159 -36q-67 0 -130 17.5t-112 45.5l-13 -27q45 -25 113 -44t143 -19
q131 0 193.5 49.5t62.5 128.5q0 60 -33.5 96.5t-60.5 36.5v26q27 0 61 36q33 41 33 97q0 80 -62.5 129t-193.5 49q-79 0 -151 -21t-115 -47l-12 -6l-13 22q53 33 133 57q75 21 158 21q137 0 210 -55q73 -59 73 -149q0 -34 -11 -63t-28 -50t-38 -33q21 -12 38 -32.5t28 -49.5
t11 -64q0 -90 -73 -149q-73 -55 -210 -55z" />
    <glyph glyph-name="four" unicode="4" horiz-adv-x="1213" 
d="M375 551q-22 0 -28 26q-3 14 -3 34q0 55 32 55q20 0 27 -21q4 -14 4 -40q0 -54 -32 -54zM939 551q-22 0 -28 24q-3 13 -3 34q0 46 18 54q5 3 13 3q22 0 28 -23q4 -13 4 -35q0 -45 -18 -54q-6 -3 -14 -3zM83 553h-10v111h33q30 0 30 -31q0 -21 -13 -27q-6 -3 -20 -3h-20
v-50zM199 553h-51v111h48l2 -6h-39v-43h31v-3v-3.5t-31 -0.5v-49h42q-1 -6 -2 -6zM281 553h-11q-1 0 -4 14q-11 38 -17 38h-24v-52h-10v111h32q29 0 29 -29q0 -25 -16 -28q9 -11 21 -54zM306 553h-8q-1 0 -3 12q6 -6 11 -6q13 0 13 18q0 13 -13 35q-9 17 -9 28q0 17 13 23
l7 1h10q1 0 3 -10v-1q-7 5 -11 5q-11 0 -11 -13t11 -32.5t11 -34.5q0 -17 -14 -23q-5 -2 -10 -2zM479 553h-8q-5 6 -44 94v-94h-6v56q0 55 1 55h9l41 -90h1v90h6v-111zM560 553h-11l-10 33h-33l-10 -33h-6l32 111h5q1 -1 4 -14zM625 553h-51v111h10v-105h42zM710 551
q-18 0 -24.5 13t-6.5 44v56h11v-62q0 -32 5 -38.5t16 -6.5q13 0 16.5 9t3.5 34v64h7v-49q0 -40 -4 -48q-6 -16 -24 -16zM761 553h-8l-3 12q6 -6 11 -6q11 0 13 15v4q0 12 -12 33q-10 18 -10 31q0 16 14 21q3 1 7 1h10l3 -11q-8 5 -12 5q-11 0 -11 -13t11 -33t11 -34
q0 -17 -14 -23q-4 -2 -10 -2zM854 553h-51q-1 0 -1 56q0 55 1 55h47q1 0 2 -6h-39v-43h31v0q1 -1 1 -3q0 -3 -0.5 -3.5t-31.5 -0.5v-49h42zM1042 553h-8l-43 94v-94h-6v111h10l41 -90v90h6v-111zM1107 553h-50q-1 0 -1 56l1 55h10v-105h42q0 -6 -2 -6zM1134 553h-11v56
l-27 55h11q1 0 24 -47l23 47h7l-27 -54v-57zM376 557q12 0 16 9.5t4 42.5q0 36 -5 43.5t-15 7.5q-14 0 -17.5 -11.5t-3.5 -39.5q0 -34 4.5 -43t16.5 -9zM940 557q12 0 16 11t4 41q0 39 -6 45t-15 6q-12 0 -16 -10t-4 -41q0 -38 5 -45t16 -7zM105 609q12 0 15.5 6t3.5 18
q0 19 -8 23q-3 2 -15 2h-18v-49h22zM242 612q15 0 18.5 4.5t3.5 18.5q0 17 -5 20t-17 3h-17v-46h17zM537 592l-15 51l-14 -51h29zM638 134q-2 0 -9 5q-9 4 -11.5 10.5t-2.5 25.5q0 84 63 263q0 1 -23 1q-115 0 -137 -47q-6 9 -6 23q0 31 33 40t100 9q29 0 33 2q11 0 17 8
l3 1q6 0 9 -13l6 -12q1 0 2 -2l-7 -15q-42 -92 -57 -175q-2 -11 -2 -17q43 128 75 128q13 0 19 -15q1 -5 1 -13q0 -24 -15 -60q-6 -11 -16 -23.5t-16 -16.5t-14 -7q-3 -1 -3 -2q0 -2 9 -11q5 -3 10 -3q10 0 26 17q25 30 26 42q4 20 12 51q18 68 46 138q4 12 7 15t5 4h3
q3 -2 5 -7q3 -11 8 -18l1 -2q0 -2 -7 -16q-43 -91 -59 -181l-2 -21q1 0 4 9q41 100 74 100l12 -1q10 0 11 -6q0 -4 -7 -18q-27 -53 -27 -100q0 -38 30 -59q15 -9 32 -9q-7 -15 -34 -15q-38 0 -53 38q-4 11 -4 25q0 37 16 94l3 11q-53 -106 -65 -149q-4 -10 -7 -10l-7 5
q-7 3 -8.5 6t-1.5 15q0 18 2 44q-29 -25 -46 -25q-10 0 -17 10q-10 12 -14 19q-1 0 -3 -7q-6 -19 -14 -65q-5 -18 -8 -18zM984 324q-10 4 -10 16q0 10 12 37l9 22q-16 -23 -20 -23q-3 0 -7 10v2q-10 -12 -14 -12q-3 0 -9 11l-1 8q0 7 7 25l10 29q0 1 -1 1q-17 -1 -23 -15v-1
q-7 3 -7 10q0 10 22 14q13 2 13.5 2.5t1.5 5.5q2 8 3.5 11t5 3.5t11.5 3.5q1 0 2 -2l-8 -20q0 -1 4 -1q29 0 54 -7q10 -4 10 -8q0 -2 -1 -2q-3 2 -14 5q-17 4 -37 4q-4 0 -8 -0.5t-9.5 -0.5t-22.5 -49l-3 -8q1 -3 3 -3t7 5q10 10 17 19q3 5 13 9q-2 -6 -11 -21l-4 -11
q3 0 6 6q24 31 27 31q5 -1 5 -3q-14 -30 -26 -62q-8 -26 -8 -34zM378 -12h-6q-63 0 -97.5 40t-34.5 100q0 49 18 109q11 32 23 56l9 18q-2 1 -40 1q-76 0 -100 -28l-7 -11q-4 11 -4 21q0 28 28 39q16 6 55 6l80 -3q3 0 7 7q13 20 31 42q54 61 89 61q17 0 17 -16
q-9 -72 -71 -103q-20 -9 -22 -9q-8 -3 -22.5 -5t-16 -4.5t-12.5 -31.5q-35 -91 -35 -149q0 -54 41 -87q29 -22 63 -22q53 0 155 32l109 34q114 38 182 38q84 0 130 -46q16 -16 16 -25l-1 -1q-44 39 -135 39q-93 0 -230 -47l-104 -34q-72 -21 -115 -21zM1058 382q-8 0 -13 7
v4q0 15 8 29l4 2q6 0 7 -8q0 -14 -12 -23v-2q1 -3 3 -3q5 2 9 9.5t4 16.5q0 6 -2 17v1q7 0 9 -16l1 -6q0 -14 -11 -25q-4 -3 -7 -3zM993 326q-5 3 -5 8q1 12 25 72q9 21 12 21q6 -1 6 -4l-5 -9q-6 -12 -11 -26l21 37q5 0 6 -18q0 -24 -11 -25q-3 0 -8 4q-1 0 -5 -8
q-17 -31 -23 -49zM334 337q24 0 50 19q14 12 21 21q16 24 17 42l1 5q-22 -13 -48 -34q-32 -30 -46 -52v-1h5zM1054 402q5 5 5 12h-1q-4 -7 -4 -12zM1024 389q11 0 11 15q0 5 -1 5zM605 104q-19 0 -32 15q-9 12 -9 25q0 20 21 112l16 67q1 4 5 9q-16 -6 -42 -13q-1 0 -1 -2
v-17q0 -38 -11 -90q-15 -53 -30 -53q-4 0 -9.5 6.5t-10.5 9t-8.5 12.5t-3.5 46q-19 -76 -33 -76q-4 0 -8 6q-1 1 -7 3.5t-8.5 11.5t-2.5 18q0 26 10 59q7 20 17 35q15 23 26 23q10 0 15 -19q5 9 10.5 14.5t10.5 5.5q7 0 11 -3q0 -2 -5.5 -10.5t-9.5 -21.5q-9 -29 -9 -56
q0 -22 6 -33q2 -4 3 -4q5 3 11 23q15 47 15 92q0 25 -7 27q-20 8 -20 26q0 13 14 20q4 2 8 2q16 0 22 -31q1 -5 3 -5l30 8q13 5 14.5 5.5t7 6t9.5 5.5q9 0 10 -12q0 -3 -5 -20q-33 -112 -33 -166q0 -30 13 -60zM976 124q-25 0 -45.5 22.5t-20.5 71.5q0 20 7 41v4
q-29 -78 -39 -78q-4 0 -7 6t-9 8q-3 0 -6 4q-4 7 -4 18q0 18 9 52q8 27 18 44q19 36 36 36q11 0 16 -22q15 35 26 35q6 0 6 -11q0 -13 -14 -61q-17 -59 -17 -98q0 -37 16 -55q9 -7 19 -7q13 0 29 12q35 30 35 107q0 28 -4 53q-3 9 -6 9q-4 0 -14 -22q-17 -39 -17 -71
q0 -18 7 -29q1 -2 2 -2q-6 -3 -10 -3q-13 0 -18 28q-2 8 -5 12q-3 8 -3 17q0 18 16 46q5 7 15.5 19t15.5 14q10 6 20 6q37 0 37 -52q0 -29 -11 -67q-7 -21 -16 -38q-29 -49 -64 -49zM676 255q4 1 12 9t13 18q12 20 22 62q-12 -12 -32 -51q-16 -32 -16 -38h1zM876 212
q8 14 48 106q0 9 -6 17l-1 1q-2 0 -9 -12q-22 -37 -31 -82l-2 -20zM358 70q-5 0 -11 5q-14 14 -14 55q0 31 10 77v1q-15 -39 -22 -62l-2 -8h-1q-6 0 -14 5q-12 8 -12 28q0 26 21 87q14 37 19 37q18 -2 18 -6q0 -2 -8 -19q-27 -66 -27 -89q32 77 55 115q7 11 11 11t12 -5
l2 -2l-9 -21q-10 -24 -19 -59q-11 -42 -11 -68l1 -1q29 98 52 149q12 22 18 22l14 -3q4 -1 4 -4l-7 -24q-14 -41 -26 -100q-5 -28 -5 -51q0 -21 8 -21q3 0 25 7q39 13 59 13q26 0 38 -15q-7 -1 -32.5 -5.5t-41.5 -10t-33 -14.5q-5 -2 -10 -2q-10 0 -18 13l-8 8
q-11 10 -11 32q0 16 12 66l3 16h-1q-15 -40 -28 -90q-10 -41 -10 -61v-4q0 -2 -1 -2zM235 43q-19 0 -31 17q-9 14 -9 37t6 75v1q-1 0 -7 -13q-14 -30 -25 -48q-5 -8 -10 -8q-4 0 -7.5 6.5t-10 8.5t-6.5 19t12 52q9 24 20 42q21 36 39 36q10 0 14 -17q13 28 16 32q6 8 12 12
t8 4q4 0 5 -7q0 -13 -18 -56q-20 -54 -20 -96q0 -56 19 -93l1 -2q0 -2 -8 -2zM456 177q2 0 7 17q26 74 26 80t-5 14h-2q-11 -3 -24 -55q-5 -19 -7 -40v-2q1 -14 5 -14zM158 131q4 4 8 12l45 86q2 3 2 7q0 5 -4 14l-1 1q-2 0 -9 -9q-17 -24 -30 -58q-10 -28 -11 -48v-5z
M418 -172h-9v86l9 4v-90zM657 -172h-10l-25 35l-3 -3v-32h-8v86q0 1 8 4v-51l25 22h7l-22 -20zM707 -172h-9v34q0 17 -4 20t-8 3q-9 0 -12 -11v-46h-9v86q0 1 9 4v-33q5 4 12 4q15 0 19 -13q2 -6 2 -30v-18zM799 -172q-19 0 -22 5.5t-3 21.5v30h-9v4h9v12q0 1 8 4v-16h11v-4
h-11v-31q0 -18 3 -19.5t6 -1.5q4 0 10 4zM862 -202h-1q0 84 -1 87l6 3l3 -3q5 5 14 5q13 0 18 -11q2 -6 2 -20q0 -25 -9 -29q-5 -3 -11 -3q-8 0 -13 4v-29q0 -1 -3 -2t-5 -2zM501 -172h-9v32q0 18 -3 21.5t-8 3.5q-10 0 -12 -14v-43h-9v26q0 24 -2.5 27.5t-8.5 3.5
q-9 0 -11 -10q-1 -3 -1 -26v-21h-9v58q0 1 3.5 2t5.5 2v-4q5 3 12 3q12 0 17 -7v-1q0 3 5.5 5.5t8.5 2.5q15 0 19 -10q2 -7 2 -34v-17zM572 -172h-9v58q1 1 9 4v-8q2 4 10 7h16q1 0 4 -10q-8 6 -15 6q-10 0 -14 -16q-1 -9 -1 -31v-10zM829 -201h-13l-3 10q8 -5 13 -5
q12 0 14 14l1 14q-5 -4 -13 -4q-14 0 -18 11q-3 6 -3 17v30l9 4v-31q0 -20 3.5 -23t7.5 -3q11 0 14 11v42q0 1 8 4v-61q0 -30 -20 -30zM1156 -172h-8v26q0 24 -3 27.5t-9 3.5q-8 0 -11 -10q-1 -4 -1 -25v-22h-8q-1 0 -1 34q0 17 -3 20t-8 3q-8 0 -11 -9q-1 -4 -1 -27v-21h-8
q-1 0 -1 58q0 1 9 4v-4q5 3 13 3q11 0 16 -6v-2q0 3 5 5.5t9 2.5q16 0 20 -12q1 -6 1 -34v-15zM949 -172h-15q-21 0 -21 25v11q0 26 22 26q20 0 20 -27q0 -2 -10 -4l-23 -5q0 -17 7 -20q3 -1 8 -1q7 0 15 5zM1052 -173q-22 0 -22 31q0 32 22 32q21 0 21 -31t-21 -32z
M133 -172h-4l-13 36l-12 -36h-4q-1 0 -2 5l-20 56h9l17 -46l10 28l-7 18h9q1 0 17 -46l17 46h5zM219 -172h-4q-1 1 -6.5 17.5t-6.5 17.5l-12 -35h-4q-1 1 -22 61h9l3 -7q12 -33 13 -39q1 0 9 24l2 4l-7 18h9l17 -46l17 46h5zM305 -172h-4l-13 36q-12 -36 -13 -36h-4l-21 61
h9l16 -46l10 28l-6 18h9q1 0 17 -46l17 46h5zM372 -173q-12 0 -16 13l-1 9q0 24 32 24q0 12 -13 12q-9 0 -14 -5l-2 -1q3 10 4 10h14q17 0 20 -16v-36q0 -5 3 -9h-8q-2 1 -3 5q-6 -6 -16 -6zM528 -173q-12 0 -16 12l-1 9q0 16 10 20.5t22 4.5q0 12 -13 12q-9 0 -15 -5l-1 -1
q2 10 3 10h15q20 0 20 -26q0 -32 2 -35h-7q-2 0 -3 6q-7 -7 -16 -7zM734 -173q-12 0 -16 12q-1 3 -1 9q0 16 9.5 20.5t22.5 4.5q-1 6 -3.5 9t-9.5 3q-9 0 -16 -6q2 10 3 10h15q14 0 18 -13q2 -5 2 -19q0 -25 2 -29h-8q-2 3 -2 6q-7 -7 -16 -7zM1019 -172h-14q-22 0 -22 31
q0 30 21 30h15q1 0 3 -10q-7 6 -14 6q-11 0 -13 -4.5t-2 -22.5q0 -20 3 -22.5t11 -2.5t15 5q-2 -10 -3 -10zM883 -168q7 0 9.5 6.5t2.5 23.5t-4 20t-9 3q-12 0 -12 -14v-25q0 -14 13 -14zM922 -140l24 4q0 21 -12 21t-12 -23v-2zM1052 -168q7 0 9.5 7t2.5 20q0 20 -4.5 23
t-7.5 3q-13 0 -13 -26q0 -21 4.5 -24t8.5 -3zM375 -166q8 0 13 7v27q-15 0 -19.5 -5.5t-4.5 -13.5q0 -15 10 -15h1zM530 -166q9 0 13 7v27q-15 0 -19 -5.5t-4 -13.5q0 -14 10 -15zM736 -166q9 0 13 7v27q-17 0 -22 -9q-2 -4 -2 -11q0 -14 11 -14zM343 -172h-1q-4 0 -6 4
q0 5 5 7q4 0 6 -5q0 -5 -4 -6zM971 -172h-2q-5 0 -5 5q0 4 5 6q4 0 5 -2.5t1 -3.5q0 -3 -4 -5z" />
    <glyph glyph-name="five" unicode="5" horiz-adv-x="1213" 
d="M375 551q-22 0 -28 26q-3 14 -3 34q0 55 32 55q20 0 27 -21q4 -14 4 -40q0 -54 -32 -54zM939 551q-22 0 -28 24q-3 13 -3 34q0 46 18 54q5 3 13 3q22 0 28 -23q4 -13 4 -35q0 -45 -18 -54q-6 -3 -14 -3zM83 553h-10v111h33q30 0 30 -31q0 -21 -13 -27q-6 -3 -20 -3h-20
v-50zM199 553h-51v111h48l2 -6h-39v-43h31v-3v-3.5t-31 -0.5v-49h42q-1 -6 -2 -6zM281 553h-11q-1 0 -4 14q-11 38 -17 38h-24v-52h-10v111h32q29 0 29 -29q0 -25 -16 -28q9 -11 21 -54zM306 553h-8q-1 0 -3 12q6 -6 11 -6q13 0 13 18q0 13 -13 35q-9 17 -9 28q0 17 13 23
l7 1h10q1 0 3 -10v-1q-7 5 -11 5q-11 0 -11 -13t11 -32.5t11 -34.5q0 -17 -14 -23q-5 -2 -10 -2zM479 553h-8q-5 6 -44 94v-94h-6v56q0 55 1 55h9l41 -90h1v90h6v-111zM560 553h-11l-10 33h-33l-10 -33h-6l32 111h5q1 -1 4 -14zM625 553h-51v111h10v-105h42zM710 551
q-18 0 -24.5 13t-6.5 44v56h11v-62q0 -32 5 -38.5t16 -6.5q13 0 16.5 9t3.5 34v64h7v-49q0 -40 -4 -48q-6 -16 -24 -16zM761 553h-8l-3 12q6 -6 11 -6q11 0 13 15v4q0 12 -12 33q-10 18 -10 31q0 16 14 21q3 1 7 1h10l3 -11q-8 5 -12 5q-11 0 -11 -13t11 -33t11 -34
q0 -17 -14 -23q-4 -2 -10 -2zM854 553h-51q-1 0 -1 56q0 55 1 55h47q1 0 2 -6h-39v-43h31v0q1 -1 1 -3q0 -3 -0.5 -3.5t-31.5 -0.5v-49h42zM1042 553h-8l-43 94v-94h-6v111h10l41 -90v90h6v-111zM1107 553h-50q-1 0 -1 56l1 55h10v-105h42q0 -6 -2 -6zM1134 553h-11v56
l-27 55h11q1 0 24 -47l23 47h7l-27 -54v-57zM376 557q12 0 16 9.5t4 42.5q0 36 -5 43.5t-15 7.5q-14 0 -17.5 -11.5t-3.5 -39.5q0 -34 4.5 -43t16.5 -9zM940 557q12 0 16 11t4 41q0 39 -6 45t-15 6q-12 0 -16 -10t-4 -41q0 -38 5 -45t16 -7zM105 609q12 0 15.5 6t3.5 18
q0 19 -8 23q-3 2 -15 2h-18v-49h22zM242 612q15 0 18.5 4.5t3.5 18.5q0 17 -5 20t-17 3h-17v-46h17zM537 592l-15 51l-14 -51h29zM638 134q-2 0 -9 5q-9 4 -11.5 10.5t-2.5 25.5q0 84 63 263q0 1 -23 1q-115 0 -137 -47q-6 9 -6 23q0 31 33 40t100 9q29 0 33 2q11 0 17 8
l3 1q6 0 9 -13l6 -12q1 0 2 -2l-7 -15q-42 -92 -57 -175q-2 -11 -2 -17q43 128 75 128q13 0 19 -15q1 -5 1 -13q0 -24 -15 -60q-6 -11 -16 -23.5t-16 -16.5t-14 -7q-3 -1 -3 -2q0 -2 9 -11q5 -3 10 -3q10 0 26 17q25 30 26 42q4 20 12 51q18 68 46 138q4 12 7 15t5 4h3
q3 -2 5 -7q3 -11 8 -18l1 -2q0 -2 -7 -16q-43 -91 -59 -181l-2 -21q1 0 4 9q41 100 74 100l12 -1q10 0 11 -6q0 -4 -7 -18q-27 -53 -27 -100q0 -38 30 -59q15 -9 32 -9q-7 -15 -34 -15q-38 0 -53 38q-4 11 -4 25q0 37 16 94l3 11q-53 -106 -65 -149q-4 -10 -7 -10l-7 5
q-7 3 -8.5 6t-1.5 15q0 18 2 44q-29 -25 -46 -25q-10 0 -17 10q-10 12 -14 19q-1 0 -3 -7q-6 -19 -14 -65q-5 -18 -8 -18zM984 324q-10 4 -10 16q0 10 12 37l9 22q-16 -23 -20 -23q-3 0 -7 10v2q-10 -12 -14 -12q-3 0 -9 11l-1 8q0 7 7 25l10 29q0 1 -1 1q-17 -1 -23 -15v-1
q-7 3 -7 10q0 10 22 14q13 2 13.5 2.5t1.5 5.5q2 8 3.5 11t5 3.5t11.5 3.5q1 0 2 -2l-8 -20q0 -1 4 -1q29 0 54 -7q10 -4 10 -8q0 -2 -1 -2q-3 2 -14 5q-17 4 -37 4q-4 0 -8 -0.5t-9.5 -0.5t-22.5 -49l-3 -8q1 -3 3 -3t7 5q10 10 17 19q3 5 13 9q-2 -6 -11 -21l-4 -11
q3 0 6 6q24 31 27 31q5 -1 5 -3q-14 -30 -26 -62q-8 -26 -8 -34zM378 -12h-6q-63 0 -97.5 40t-34.5 100q0 49 18 109q11 32 23 56l9 18q-2 1 -40 1q-76 0 -100 -28l-7 -11q-4 11 -4 21q0 28 28 39q16 6 55 6l80 -3q3 0 7 7q13 20 31 42q54 61 89 61q17 0 17 -16
q-9 -72 -71 -103q-20 -9 -22 -9q-8 -3 -22.5 -5t-16 -4.5t-12.5 -31.5q-35 -91 -35 -149q0 -54 41 -87q29 -22 63 -22q53 0 155 32l109 34q114 38 182 38q84 0 130 -46q16 -16 16 -25l-1 -1q-44 39 -135 39q-93 0 -230 -47l-104 -34q-72 -21 -115 -21zM1058 382q-8 0 -13 7
v4q0 15 8 29l4 2q6 0 7 -8q0 -14 -12 -23v-2q1 -3 3 -3q5 2 9 9.5t4 16.5q0 6 -2 17v1q7 0 9 -16l1 -6q0 -14 -11 -25q-4 -3 -7 -3zM993 326q-5 3 -5 8q1 12 25 72q9 21 12 21q6 -1 6 -4l-5 -9q-6 -12 -11 -26l21 37q5 0 6 -18q0 -24 -11 -25q-3 0 -8 4q-1 0 -5 -8
q-17 -31 -23 -49zM334 337q24 0 50 19q14 12 21 21q16 24 17 42l1 5q-22 -13 -48 -34q-32 -30 -46 -52v-1h5zM1054 402q5 5 5 12h-1q-4 -7 -4 -12zM1024 389q11 0 11 15q0 5 -1 5zM605 104q-19 0 -32 15q-9 12 -9 25q0 20 21 112l16 67q1 4 5 9q-16 -6 -42 -13q-1 0 -1 -2
v-17q0 -38 -11 -90q-15 -53 -30 -53q-4 0 -9.5 6.5t-10.5 9t-8.5 12.5t-3.5 46q-19 -76 -33 -76q-4 0 -8 6q-1 1 -7 3.5t-8.5 11.5t-2.5 18q0 26 10 59q7 20 17 35q15 23 26 23q10 0 15 -19q5 9 10.5 14.5t10.5 5.5q7 0 11 -3q0 -2 -5.5 -10.5t-9.5 -21.5q-9 -29 -9 -56
q0 -22 6 -33q2 -4 3 -4q5 3 11 23q15 47 15 92q0 25 -7 27q-20 8 -20 26q0 13 14 20q4 2 8 2q16 0 22 -31q1 -5 3 -5l30 8q13 5 14.5 5.5t7 6t9.5 5.5q9 0 10 -12q0 -3 -5 -20q-33 -112 -33 -166q0 -30 13 -60zM976 124q-25 0 -45.5 22.5t-20.5 71.5q0 20 7 41v4
q-29 -78 -39 -78q-4 0 -7 6t-9 8q-3 0 -6 4q-4 7 -4 18q0 18 9 52q8 27 18 44q19 36 36 36q11 0 16 -22q15 35 26 35q6 0 6 -11q0 -13 -14 -61q-17 -59 -17 -98q0 -37 16 -55q9 -7 19 -7q13 0 29 12q35 30 35 107q0 28 -4 53q-3 9 -6 9q-4 0 -14 -22q-17 -39 -17 -71
q0 -18 7 -29q1 -2 2 -2q-6 -3 -10 -3q-13 0 -18 28q-2 8 -5 12q-3 8 -3 17q0 18 16 46q5 7 15.5 19t15.5 14q10 6 20 6q37 0 37 -52q0 -29 -11 -67q-7 -21 -16 -38q-29 -49 -64 -49zM676 255q4 1 12 9t13 18q12 20 22 62q-12 -12 -32 -51q-16 -32 -16 -38h1zM876 212
q8 14 48 106q0 9 -6 17l-1 1q-2 0 -9 -12q-22 -37 -31 -82l-2 -20zM358 70q-5 0 -11 5q-14 14 -14 55q0 31 10 77v1q-15 -39 -22 -62l-2 -8h-1q-6 0 -14 5q-12 8 -12 28q0 26 21 87q14 37 19 37q18 -2 18 -6q0 -2 -8 -19q-27 -66 -27 -89q32 77 55 115q7 11 11 11t12 -5
l2 -2l-9 -21q-10 -24 -19 -59q-11 -42 -11 -68l1 -1q29 98 52 149q12 22 18 22l14 -3q4 -1 4 -4l-7 -24q-14 -41 -26 -100q-5 -28 -5 -51q0 -21 8 -21q3 0 25 7q39 13 59 13q26 0 38 -15q-7 -1 -32.5 -5.5t-41.5 -10t-33 -14.5q-5 -2 -10 -2q-10 0 -18 13l-8 8
q-11 10 -11 32q0 16 12 66l3 16h-1q-15 -40 -28 -90q-10 -41 -10 -61v-4q0 -2 -1 -2zM235 43q-19 0 -31 17q-9 14 -9 37t6 75v1q-1 0 -7 -13q-14 -30 -25 -48q-5 -8 -10 -8q-4 0 -7.5 6.5t-10 8.5t-6.5 19t12 52q9 24 20 42q21 36 39 36q10 0 14 -17q13 28 16 32q6 8 12 12
t8 4q4 0 5 -7q0 -13 -18 -56q-20 -54 -20 -96q0 -56 19 -93l1 -2q0 -2 -8 -2zM456 177q2 0 7 17q26 74 26 80t-5 14h-2q-11 -3 -24 -55q-5 -19 -7 -40v-2q1 -14 5 -14zM158 131q4 4 8 12l45 86q2 3 2 7q0 5 -4 14l-1 1q-2 0 -9 -9q-17 -24 -30 -58q-10 -28 -11 -48v-5z
M418 -172h-9v86l9 4v-90zM657 -172h-10l-25 35l-3 -3v-32h-8v86q0 1 8 4v-51l25 22h7l-22 -20zM707 -172h-9v34q0 17 -4 20t-8 3q-9 0 -12 -11v-46h-9v86q0 1 9 4v-33q5 4 12 4q15 0 19 -13q2 -6 2 -30v-18zM799 -172q-19 0 -22 5.5t-3 21.5v30h-9v4h9v12q0 1 8 4v-16h11v-4
h-11v-31q0 -18 3 -19.5t6 -1.5q4 0 10 4zM862 -202h-1q0 84 -1 87l6 3l3 -3q5 5 14 5q13 0 18 -11q2 -6 2 -20q0 -25 -9 -29q-5 -3 -11 -3q-8 0 -13 4v-29q0 -1 -3 -2t-5 -2zM501 -172h-9v32q0 18 -3 21.5t-8 3.5q-10 0 -12 -14v-43h-9v26q0 24 -2.5 27.5t-8.5 3.5
q-9 0 -11 -10q-1 -3 -1 -26v-21h-9v58q0 1 3.5 2t5.5 2v-4q5 3 12 3q12 0 17 -7v-1q0 3 5.5 5.5t8.5 2.5q15 0 19 -10q2 -7 2 -34v-17zM572 -172h-9v58q1 1 9 4v-8q2 4 10 7h16q1 0 4 -10q-8 6 -15 6q-10 0 -14 -16q-1 -9 -1 -31v-10zM829 -201h-13l-3 10q8 -5 13 -5
q12 0 14 14l1 14q-5 -4 -13 -4q-14 0 -18 11q-3 6 -3 17v30l9 4v-31q0 -20 3.5 -23t7.5 -3q11 0 14 11v42q0 1 8 4v-61q0 -30 -20 -30zM1156 -172h-8v26q0 24 -3 27.5t-9 3.5q-8 0 -11 -10q-1 -4 -1 -25v-22h-8q-1 0 -1 34q0 17 -3 20t-8 3q-8 0 -11 -9q-1 -4 -1 -27v-21h-8
q-1 0 -1 58q0 1 9 4v-4q5 3 13 3q11 0 16 -6v-2q0 3 5 5.5t9 2.5q16 0 20 -12q1 -6 1 -34v-15zM949 -172h-15q-21 0 -21 25v11q0 26 22 26q20 0 20 -27q0 -2 -10 -4l-23 -5q0 -17 7 -20q3 -1 8 -1q7 0 15 5zM1052 -173q-22 0 -22 31q0 32 22 32q21 0 21 -31t-21 -32z
M133 -172h-4l-13 36l-12 -36h-4q-1 0 -2 5l-20 56h9l17 -46l10 28l-7 18h9q1 0 17 -46l17 46h5zM219 -172h-4q-1 1 -6.5 17.5t-6.5 17.5l-12 -35h-4q-1 1 -22 61h9l3 -7q12 -33 13 -39q1 0 9 24l2 4l-7 18h9l17 -46l17 46h5zM305 -172h-4l-13 36q-12 -36 -13 -36h-4l-21 61
h9l16 -46l10 28l-6 18h9q1 0 17 -46l17 46h5zM372 -173q-12 0 -16 13l-1 9q0 24 32 24q0 12 -13 12q-9 0 -14 -5l-2 -1q3 10 4 10h14q17 0 20 -16v-36q0 -5 3 -9h-8q-2 1 -3 5q-6 -6 -16 -6zM528 -173q-12 0 -16 12l-1 9q0 16 10 20.5t22 4.5q0 12 -13 12q-9 0 -15 -5l-1 -1
q2 10 3 10h15q20 0 20 -26q0 -32 2 -35h-7q-2 0 -3 6q-7 -7 -16 -7zM734 -173q-12 0 -16 12q-1 3 -1 9q0 16 9.5 20.5t22.5 4.5q-1 6 -3.5 9t-9.5 3q-9 0 -16 -6q2 10 3 10h15q14 0 18 -13q2 -5 2 -19q0 -25 2 -29h-8q-2 3 -2 6q-7 -7 -16 -7zM1019 -172h-14q-22 0 -22 31
q0 30 21 30h15q1 0 3 -10q-7 6 -14 6q-11 0 -13 -4.5t-2 -22.5q0 -20 3 -22.5t11 -2.5t15 5q-2 -10 -3 -10zM883 -168q7 0 9.5 6.5t2.5 23.5t-4 20t-9 3q-12 0 -12 -14v-25q0 -14 13 -14zM922 -140l24 4q0 21 -12 21t-12 -23v-2zM1052 -168q7 0 9.5 7t2.5 20q0 20 -4.5 23
t-7.5 3q-13 0 -13 -26q0 -21 4.5 -24t8.5 -3zM375 -166q8 0 13 7v27q-15 0 -19.5 -5.5t-4.5 -13.5q0 -15 10 -15h1zM530 -166q9 0 13 7v27q-15 0 -19 -5.5t-4 -13.5q0 -14 10 -15zM736 -166q9 0 13 7v27q-17 0 -22 -9q-2 -4 -2 -11q0 -14 11 -14zM343 -172h-1q-4 0 -6 4
q0 5 5 7q4 0 6 -5q0 -5 -4 -6zM971 -172h-2q-5 0 -5 5q0 4 5 6q4 0 5 -2.5t1 -3.5q0 -3 -4 -5z" />
    <glyph glyph-name="six" unicode="6" horiz-adv-x="675" 
d="M350 0q-87 0 -156.5 42.5t-110 121t-40.5 186.5q0 96 43 175.5t116 127t163 47.5q86 0 147.5 -31t108.5 -81l-55 -56l-1 1v-1q-40 42 -87.5 65.5t-112.5 23.5q-103 0 -172 -79t-69 -192q0 -125 62 -197t162 -72q95 0 149.5 41.5t54.5 107.5q0 65 -53 105.5t-141 40.5
q-65 0 -101.5 -21t-61.5 -53l-20 17q29 35 71 59t112 24q101 0 160.5 -49t59.5 -123q0 -75 -60.5 -125t-169.5 -50q-118 0 -184 83t-66 212q0 81 35 148.5t95.5 108t136.5 40.5q62 0 113 -22t87 -56l18 18q-90 87 -218 87q-124 0 -210 -94.5t-86 -229.5q0 -143 77 -233.5
t204 -90.5q114 0 184.5 58.5t70.5 157.5q0 78 -70.5 131.5t-176.5 53.5q-45 0 -81 -14t-61.5 -33.5t-39.5 -37.5l-24 -28v36q0 72 30 127t79 86t104 31q63 0 107.5 -24.5t74.5 -55.5l-18 -19q-71 73 -164 73q-64 0 -117 -49.5t-66 -133.5q73 68 176 68q119 0 196 -61.5
t77 -149.5q0 -111 -79 -176.5t-202 -65.5zM351 109q-58 0 -94 19.5t-52.5 48t-16.5 53.5q0 45 44.5 83t123.5 38q76 0 122.5 -36t46.5 -85q0 -42 -25.5 -69t-65 -39.5t-83.5 -12.5zM351 136q65 0 106.5 24t41.5 70q0 35 -37.5 65t-105.5 30q-47 0 -79 -15t-47.5 -37
t-15.5 -43q0 -18 12 -40t42 -38t83 -16z" />
    <glyph glyph-name="seven" unicode="7" horiz-adv-x="583" 
 />
    <glyph glyph-name="eight" unicode="8" horiz-adv-x="1213" 
d="M375 551q-22 0 -28 26q-3 14 -3 34q0 55 32 55q20 0 27 -21q4 -14 4 -40q0 -54 -32 -54zM939 551q-22 0 -28 24q-3 13 -3 34q0 46 18 54q5 3 13 3q22 0 28 -23q4 -13 4 -35q0 -45 -18 -54q-6 -3 -14 -3zM83 553h-10v111h33q30 0 30 -31q0 -21 -13 -27q-6 -3 -20 -3h-20
v-50zM199 553h-51v111h48l2 -6h-39v-43h31v-3v-3.5t-31 -0.5v-49h42q-1 -6 -2 -6zM281 553h-11q-1 0 -4 14q-11 38 -17 38h-24v-52h-10v111h32q29 0 29 -29q0 -25 -16 -28q9 -11 21 -54zM306 553h-8q-1 0 -3 12q6 -6 11 -6q13 0 13 18q0 13 -13 35q-9 17 -9 28q0 17 13 23
l7 1h10q1 0 3 -10v-1q-7 5 -11 5q-11 0 -11 -13t11 -32.5t11 -34.5q0 -17 -14 -23q-5 -2 -10 -2zM479 553h-8q-5 6 -44 94v-94h-6v56q0 55 1 55h9l41 -90h1v90h6v-111zM560 553h-11l-10 33h-33l-10 -33h-6l32 111h5q1 -1 4 -14zM625 553h-51v111h10v-105h42zM710 551
q-18 0 -24.5 13t-6.5 44v56h11v-62q0 -32 5 -38.5t16 -6.5q13 0 16.5 9t3.5 34v64h7v-49q0 -40 -4 -48q-6 -16 -24 -16zM761 553h-8l-3 12q6 -6 11 -6q11 0 13 15v4q0 12 -12 33q-10 18 -10 31q0 16 14 21q3 1 7 1h10l3 -11q-8 5 -12 5q-11 0 -11 -13t11 -33t11 -34
q0 -17 -14 -23q-4 -2 -10 -2zM854 553h-51q-1 0 -1 56q0 55 1 55h47q1 0 2 -6h-39v-43h31v0q1 -1 1 -3q0 -3 -0.5 -3.5t-31.5 -0.5v-49h42zM1042 553h-8l-43 94v-94h-6v111h10l41 -90v90h6v-111zM1107 553h-50q-1 0 -1 56l1 55h10v-105h42q0 -6 -2 -6zM1134 553h-11v56
l-27 55h11q1 0 24 -47l23 47h7l-27 -54v-57zM376 557q12 0 16 9.5t4 42.5q0 36 -5 43.5t-15 7.5q-14 0 -17.5 -11.5t-3.5 -39.5q0 -34 4.5 -43t16.5 -9zM940 557q12 0 16 11t4 41q0 39 -6 45t-15 6q-12 0 -16 -10t-4 -41q0 -38 5 -45t16 -7zM105 609q12 0 15.5 6t3.5 18
q0 19 -8 23q-3 2 -15 2h-18v-49h22zM242 612q15 0 18.5 4.5t3.5 18.5q0 17 -5 20t-17 3h-17v-46h17zM537 592l-15 51l-14 -51h29zM638 134q-2 0 -9 5q-9 4 -11.5 10.5t-2.5 25.5q0 84 63 263q0 1 -23 1q-115 0 -137 -47q-6 9 -6 23q0 31 33 40t100 9q29 0 33 2q11 0 17 8
l3 1q6 0 9 -13l6 -12q1 0 2 -2l-7 -15q-42 -92 -57 -175q-2 -11 -2 -17q43 128 75 128q13 0 19 -15q1 -5 1 -13q0 -24 -15 -60q-6 -11 -16 -23.5t-16 -16.5t-14 -7q-3 -1 -3 -2q0 -2 9 -11q5 -3 10 -3q10 0 26 17q25 30 26 42q4 20 12 51q18 68 46 138q4 12 7 15t5 4h3
q3 -2 5 -7q3 -11 8 -18l1 -2q0 -2 -7 -16q-43 -91 -59 -181l-2 -21q1 0 4 9q41 100 74 100l12 -1q10 0 11 -6q0 -4 -7 -18q-27 -53 -27 -100q0 -38 30 -59q15 -9 32 -9q-7 -15 -34 -15q-38 0 -53 38q-4 11 -4 25q0 37 16 94l3 11q-53 -106 -65 -149q-4 -10 -7 -10l-7 5
q-7 3 -8.5 6t-1.5 15q0 18 2 44q-29 -25 -46 -25q-10 0 -17 10q-10 12 -14 19q-1 0 -3 -7q-6 -19 -14 -65q-5 -18 -8 -18zM984 324q-10 4 -10 16q0 10 12 37l9 22q-16 -23 -20 -23q-3 0 -7 10v2q-10 -12 -14 -12q-3 0 -9 11l-1 8q0 7 7 25l10 29q0 1 -1 1q-17 -1 -23 -15v-1
q-7 3 -7 10q0 10 22 14q13 2 13.5 2.5t1.5 5.5q2 8 3.5 11t5 3.5t11.5 3.5q1 0 2 -2l-8 -20q0 -1 4 -1q29 0 54 -7q10 -4 10 -8q0 -2 -1 -2q-3 2 -14 5q-17 4 -37 4q-4 0 -8 -0.5t-9.5 -0.5t-22.5 -49l-3 -8q1 -3 3 -3t7 5q10 10 17 19q3 5 13 9q-2 -6 -11 -21l-4 -11
q3 0 6 6q24 31 27 31q5 -1 5 -3q-14 -30 -26 -62q-8 -26 -8 -34zM378 -12h-6q-63 0 -97.5 40t-34.5 100q0 49 18 109q11 32 23 56l9 18q-2 1 -40 1q-76 0 -100 -28l-7 -11q-4 11 -4 21q0 28 28 39q16 6 55 6l80 -3q3 0 7 7q13 20 31 42q54 61 89 61q17 0 17 -16
q-9 -72 -71 -103q-20 -9 -22 -9q-8 -3 -22.5 -5t-16 -4.5t-12.5 -31.5q-35 -91 -35 -149q0 -54 41 -87q29 -22 63 -22q53 0 155 32l109 34q114 38 182 38q84 0 130 -46q16 -16 16 -25l-1 -1q-44 39 -135 39q-93 0 -230 -47l-104 -34q-72 -21 -115 -21zM1058 382q-8 0 -13 7
v4q0 15 8 29l4 2q6 0 7 -8q0 -14 -12 -23v-2q1 -3 3 -3q5 2 9 9.5t4 16.5q0 6 -2 17v1q7 0 9 -16l1 -6q0 -14 -11 -25q-4 -3 -7 -3zM993 326q-5 3 -5 8q1 12 25 72q9 21 12 21q6 -1 6 -4l-5 -9q-6 -12 -11 -26l21 37q5 0 6 -18q0 -24 -11 -25q-3 0 -8 4q-1 0 -5 -8
q-17 -31 -23 -49zM334 337q24 0 50 19q14 12 21 21q16 24 17 42l1 5q-22 -13 -48 -34q-32 -30 -46 -52v-1h5zM1054 402q5 5 5 12h-1q-4 -7 -4 -12zM1024 389q11 0 11 15q0 5 -1 5zM605 104q-19 0 -32 15q-9 12 -9 25q0 20 21 112l16 67q1 4 5 9q-16 -6 -42 -13q-1 0 -1 -2
v-17q0 -38 -11 -90q-15 -53 -30 -53q-4 0 -9.5 6.5t-10.5 9t-8.5 12.5t-3.5 46q-19 -76 -33 -76q-4 0 -8 6q-1 1 -7 3.5t-8.5 11.5t-2.5 18q0 26 10 59q7 20 17 35q15 23 26 23q10 0 15 -19q5 9 10.5 14.5t10.5 5.5q7 0 11 -3q0 -2 -5.5 -10.5t-9.5 -21.5q-9 -29 -9 -56
q0 -22 6 -33q2 -4 3 -4q5 3 11 23q15 47 15 92q0 25 -7 27q-20 8 -20 26q0 13 14 20q4 2 8 2q16 0 22 -31q1 -5 3 -5l30 8q13 5 14.5 5.5t7 6t9.5 5.5q9 0 10 -12q0 -3 -5 -20q-33 -112 -33 -166q0 -30 13 -60zM976 124q-25 0 -45.5 22.5t-20.5 71.5q0 20 7 41v4
q-29 -78 -39 -78q-4 0 -7 6t-9 8q-3 0 -6 4q-4 7 -4 18q0 18 9 52q8 27 18 44q19 36 36 36q11 0 16 -22q15 35 26 35q6 0 6 -11q0 -13 -14 -61q-17 -59 -17 -98q0 -37 16 -55q9 -7 19 -7q13 0 29 12q35 30 35 107q0 28 -4 53q-3 9 -6 9q-4 0 -14 -22q-17 -39 -17 -71
q0 -18 7 -29q1 -2 2 -2q-6 -3 -10 -3q-13 0 -18 28q-2 8 -5 12q-3 8 -3 17q0 18 16 46q5 7 15.5 19t15.5 14q10 6 20 6q37 0 37 -52q0 -29 -11 -67q-7 -21 -16 -38q-29 -49 -64 -49zM676 255q4 1 12 9t13 18q12 20 22 62q-12 -12 -32 -51q-16 -32 -16 -38h1zM876 212
q8 14 48 106q0 9 -6 17l-1 1q-2 0 -9 -12q-22 -37 -31 -82l-2 -20zM358 70q-5 0 -11 5q-14 14 -14 55q0 31 10 77v1q-15 -39 -22 -62l-2 -8h-1q-6 0 -14 5q-12 8 -12 28q0 26 21 87q14 37 19 37q18 -2 18 -6q0 -2 -8 -19q-27 -66 -27 -89q32 77 55 115q7 11 11 11t12 -5
l2 -2l-9 -21q-10 -24 -19 -59q-11 -42 -11 -68l1 -1q29 98 52 149q12 22 18 22l14 -3q4 -1 4 -4l-7 -24q-14 -41 -26 -100q-5 -28 -5 -51q0 -21 8 -21q3 0 25 7q39 13 59 13q26 0 38 -15q-7 -1 -32.5 -5.5t-41.5 -10t-33 -14.5q-5 -2 -10 -2q-10 0 -18 13l-8 8
q-11 10 -11 32q0 16 12 66l3 16h-1q-15 -40 -28 -90q-10 -41 -10 -61v-4q0 -2 -1 -2zM235 43q-19 0 -31 17q-9 14 -9 37t6 75v1q-1 0 -7 -13q-14 -30 -25 -48q-5 -8 -10 -8q-4 0 -7.5 6.5t-10 8.5t-6.5 19t12 52q9 24 20 42q21 36 39 36q10 0 14 -17q13 28 16 32q6 8 12 12
t8 4q4 0 5 -7q0 -13 -18 -56q-20 -54 -20 -96q0 -56 19 -93l1 -2q0 -2 -8 -2zM456 177q2 0 7 17q26 74 26 80t-5 14h-2q-11 -3 -24 -55q-5 -19 -7 -40v-2q1 -14 5 -14zM158 131q4 4 8 12l45 86q2 3 2 7q0 5 -4 14l-1 1q-2 0 -9 -9q-17 -24 -30 -58q-10 -28 -11 -48v-5z
M418 -172h-9v86l9 4v-90zM657 -172h-10l-25 35l-3 -3v-32h-8v86q0 1 8 4v-51l25 22h7l-22 -20zM707 -172h-9v34q0 17 -4 20t-8 3q-9 0 -12 -11v-46h-9v86q0 1 9 4v-33q5 4 12 4q15 0 19 -13q2 -6 2 -30v-18zM799 -172q-19 0 -22 5.5t-3 21.5v30h-9v4h9v12q0 1 8 4v-16h11v-4
h-11v-31q0 -18 3 -19.5t6 -1.5q4 0 10 4zM862 -202h-1q0 84 -1 87l6 3l3 -3q5 5 14 5q13 0 18 -11q2 -6 2 -20q0 -25 -9 -29q-5 -3 -11 -3q-8 0 -13 4v-29q0 -1 -3 -2t-5 -2zM501 -172h-9v32q0 18 -3 21.5t-8 3.5q-10 0 -12 -14v-43h-9v26q0 24 -2.5 27.5t-8.5 3.5
q-9 0 -11 -10q-1 -3 -1 -26v-21h-9v58q0 1 3.5 2t5.5 2v-4q5 3 12 3q12 0 17 -7v-1q0 3 5.5 5.5t8.5 2.5q15 0 19 -10q2 -7 2 -34v-17zM572 -172h-9v58q1 1 9 4v-8q2 4 10 7h16q1 0 4 -10q-8 6 -15 6q-10 0 -14 -16q-1 -9 -1 -31v-10zM829 -201h-13l-3 10q8 -5 13 -5
q12 0 14 14l1 14q-5 -4 -13 -4q-14 0 -18 11q-3 6 -3 17v30l9 4v-31q0 -20 3.5 -23t7.5 -3q11 0 14 11v42q0 1 8 4v-61q0 -30 -20 -30zM1156 -172h-8v26q0 24 -3 27.5t-9 3.5q-8 0 -11 -10q-1 -4 -1 -25v-22h-8q-1 0 -1 34q0 17 -3 20t-8 3q-8 0 -11 -9q-1 -4 -1 -27v-21h-8
q-1 0 -1 58q0 1 9 4v-4q5 3 13 3q11 0 16 -6v-2q0 3 5 5.5t9 2.5q16 0 20 -12q1 -6 1 -34v-15zM949 -172h-15q-21 0 -21 25v11q0 26 22 26q20 0 20 -27q0 -2 -10 -4l-23 -5q0 -17 7 -20q3 -1 8 -1q7 0 15 5zM1052 -173q-22 0 -22 31q0 32 22 32q21 0 21 -31t-21 -32z
M133 -172h-4l-13 36l-12 -36h-4q-1 0 -2 5l-20 56h9l17 -46l10 28l-7 18h9q1 0 17 -46l17 46h5zM219 -172h-4q-1 1 -6.5 17.5t-6.5 17.5l-12 -35h-4q-1 1 -22 61h9l3 -7q12 -33 13 -39q1 0 9 24l2 4l-7 18h9l17 -46l17 46h5zM305 -172h-4l-13 36q-12 -36 -13 -36h-4l-21 61
h9l16 -46l10 28l-6 18h9q1 0 17 -46l17 46h5zM372 -173q-12 0 -16 13l-1 9q0 24 32 24q0 12 -13 12q-9 0 -14 -5l-2 -1q3 10 4 10h14q17 0 20 -16v-36q0 -5 3 -9h-8q-2 1 -3 5q-6 -6 -16 -6zM528 -173q-12 0 -16 12l-1 9q0 16 10 20.5t22 4.5q0 12 -13 12q-9 0 -15 -5l-1 -1
q2 10 3 10h15q20 0 20 -26q0 -32 2 -35h-7q-2 0 -3 6q-7 -7 -16 -7zM734 -173q-12 0 -16 12q-1 3 -1 9q0 16 9.5 20.5t22.5 4.5q-1 6 -3.5 9t-9.5 3q-9 0 -16 -6q2 10 3 10h15q14 0 18 -13q2 -5 2 -19q0 -25 2 -29h-8q-2 3 -2 6q-7 -7 -16 -7zM1019 -172h-14q-22 0 -22 31
q0 30 21 30h15q1 0 3 -10q-7 6 -14 6q-11 0 -13 -4.5t-2 -22.5q0 -20 3 -22.5t11 -2.5t15 5q-2 -10 -3 -10zM883 -168q7 0 9.5 6.5t2.5 23.5t-4 20t-9 3q-12 0 -12 -14v-25q0 -14 13 -14zM922 -140l24 4q0 21 -12 21t-12 -23v-2zM1052 -168q7 0 9.5 7t2.5 20q0 20 -4.5 23
t-7.5 3q-13 0 -13 -26q0 -21 4.5 -24t8.5 -3zM375 -166q8 0 13 7v27q-15 0 -19.5 -5.5t-4.5 -13.5q0 -15 10 -15h1zM530 -166q9 0 13 7v27q-15 0 -19 -5.5t-4 -13.5q0 -14 10 -15zM736 -166q9 0 13 7v27q-17 0 -22 -9q-2 -4 -2 -11q0 -14 11 -14zM343 -172h-1q-4 0 -6 4
q0 5 5 7q4 0 6 -5q0 -5 -4 -6zM971 -172h-2q-5 0 -5 5q0 4 5 6q4 0 5 -2.5t1 -3.5q0 -3 -4 -5z" />
    <glyph glyph-name="nine" unicode="9" horiz-adv-x="1213" 
d="M375 551q-22 0 -28 26q-3 14 -3 34q0 55 32 55q20 0 27 -21q4 -14 4 -40q0 -54 -32 -54zM939 551q-22 0 -28 24q-3 13 -3 34q0 46 18 54q5 3 13 3q22 0 28 -23q4 -13 4 -35q0 -45 -18 -54q-6 -3 -14 -3zM83 553h-10v111h33q30 0 30 -31q0 -21 -13 -27q-6 -3 -20 -3h-20
v-50zM199 553h-51v111h48l2 -6h-39v-43h31v-3v-3.5t-31 -0.5v-49h42q-1 -6 -2 -6zM281 553h-11q-1 0 -4 14q-11 38 -17 38h-24v-52h-10v111h32q29 0 29 -29q0 -25 -16 -28q9 -11 21 -54zM306 553h-8q-1 0 -3 12q6 -6 11 -6q13 0 13 18q0 13 -13 35q-9 17 -9 28q0 17 13 23
l7 1h10q1 0 3 -10v-1q-7 5 -11 5q-11 0 -11 -13t11 -32.5t11 -34.5q0 -17 -14 -23q-5 -2 -10 -2zM479 553h-8q-5 6 -44 94v-94h-6v56q0 55 1 55h9l41 -90h1v90h6v-111zM560 553h-11l-10 33h-33l-10 -33h-6l32 111h5q1 -1 4 -14zM625 553h-51v111h10v-105h42zM710 551
q-18 0 -24.5 13t-6.5 44v56h11v-62q0 -32 5 -38.5t16 -6.5q13 0 16.5 9t3.5 34v64h7v-49q0 -40 -4 -48q-6 -16 -24 -16zM761 553h-8l-3 12q6 -6 11 -6q11 0 13 15v4q0 12 -12 33q-10 18 -10 31q0 16 14 21q3 1 7 1h10l3 -11q-8 5 -12 5q-11 0 -11 -13t11 -33t11 -34
q0 -17 -14 -23q-4 -2 -10 -2zM854 553h-51q-1 0 -1 56q0 55 1 55h47q1 0 2 -6h-39v-43h31v0q1 -1 1 -3q0 -3 -0.5 -3.5t-31.5 -0.5v-49h42zM1042 553h-8l-43 94v-94h-6v111h10l41 -90v90h6v-111zM1107 553h-50q-1 0 -1 56l1 55h10v-105h42q0 -6 -2 -6zM1134 553h-11v56
l-27 55h11q1 0 24 -47l23 47h7l-27 -54v-57zM376 557q12 0 16 9.5t4 42.5q0 36 -5 43.5t-15 7.5q-14 0 -17.5 -11.5t-3.5 -39.5q0 -34 4.5 -43t16.5 -9zM940 557q12 0 16 11t4 41q0 39 -6 45t-15 6q-12 0 -16 -10t-4 -41q0 -38 5 -45t16 -7zM105 609q12 0 15.5 6t3.5 18
q0 19 -8 23q-3 2 -15 2h-18v-49h22zM242 612q15 0 18.5 4.5t3.5 18.5q0 17 -5 20t-17 3h-17v-46h17zM537 592l-15 51l-14 -51h29zM638 134q-2 0 -9 5q-9 4 -11.5 10.5t-2.5 25.5q0 84 63 263q0 1 -23 1q-115 0 -137 -47q-6 9 -6 23q0 31 33 40t100 9q29 0 33 2q11 0 17 8
l3 1q6 0 9 -13l6 -12q1 0 2 -2l-7 -15q-42 -92 -57 -175q-2 -11 -2 -17q43 128 75 128q13 0 19 -15q1 -5 1 -13q0 -24 -15 -60q-6 -11 -16 -23.5t-16 -16.5t-14 -7q-3 -1 -3 -2q0 -2 9 -11q5 -3 10 -3q10 0 26 17q25 30 26 42q4 20 12 51q18 68 46 138q4 12 7 15t5 4h3
q3 -2 5 -7q3 -11 8 -18l1 -2q0 -2 -7 -16q-43 -91 -59 -181l-2 -21q1 0 4 9q41 100 74 100l12 -1q10 0 11 -6q0 -4 -7 -18q-27 -53 -27 -100q0 -38 30 -59q15 -9 32 -9q-7 -15 -34 -15q-38 0 -53 38q-4 11 -4 25q0 37 16 94l3 11q-53 -106 -65 -149q-4 -10 -7 -10l-7 5
q-7 3 -8.5 6t-1.5 15q0 18 2 44q-29 -25 -46 -25q-10 0 -17 10q-10 12 -14 19q-1 0 -3 -7q-6 -19 -14 -65q-5 -18 -8 -18zM984 324q-10 4 -10 16q0 10 12 37l9 22q-16 -23 -20 -23q-3 0 -7 10v2q-10 -12 -14 -12q-3 0 -9 11l-1 8q0 7 7 25l10 29q0 1 -1 1q-17 -1 -23 -15v-1
q-7 3 -7 10q0 10 22 14q13 2 13.5 2.5t1.5 5.5q2 8 3.5 11t5 3.5t11.5 3.5q1 0 2 -2l-8 -20q0 -1 4 -1q29 0 54 -7q10 -4 10 -8q0 -2 -1 -2q-3 2 -14 5q-17 4 -37 4q-4 0 -8 -0.5t-9.5 -0.5t-22.5 -49l-3 -8q1 -3 3 -3t7 5q10 10 17 19q3 5 13 9q-2 -6 -11 -21l-4 -11
q3 0 6 6q24 31 27 31q5 -1 5 -3q-14 -30 -26 -62q-8 -26 -8 -34zM378 -12h-6q-63 0 -97.5 40t-34.5 100q0 49 18 109q11 32 23 56l9 18q-2 1 -40 1q-76 0 -100 -28l-7 -11q-4 11 -4 21q0 28 28 39q16 6 55 6l80 -3q3 0 7 7q13 20 31 42q54 61 89 61q17 0 17 -16
q-9 -72 -71 -103q-20 -9 -22 -9q-8 -3 -22.5 -5t-16 -4.5t-12.5 -31.5q-35 -91 -35 -149q0 -54 41 -87q29 -22 63 -22q53 0 155 32l109 34q114 38 182 38q84 0 130 -46q16 -16 16 -25l-1 -1q-44 39 -135 39q-93 0 -230 -47l-104 -34q-72 -21 -115 -21zM1058 382q-8 0 -13 7
v4q0 15 8 29l4 2q6 0 7 -8q0 -14 -12 -23v-2q1 -3 3 -3q5 2 9 9.5t4 16.5q0 6 -2 17v1q7 0 9 -16l1 -6q0 -14 -11 -25q-4 -3 -7 -3zM993 326q-5 3 -5 8q1 12 25 72q9 21 12 21q6 -1 6 -4l-5 -9q-6 -12 -11 -26l21 37q5 0 6 -18q0 -24 -11 -25q-3 0 -8 4q-1 0 -5 -8
q-17 -31 -23 -49zM334 337q24 0 50 19q14 12 21 21q16 24 17 42l1 5q-22 -13 -48 -34q-32 -30 -46 -52v-1h5zM1054 402q5 5 5 12h-1q-4 -7 -4 -12zM1024 389q11 0 11 15q0 5 -1 5zM605 104q-19 0 -32 15q-9 12 -9 25q0 20 21 112l16 67q1 4 5 9q-16 -6 -42 -13q-1 0 -1 -2
v-17q0 -38 -11 -90q-15 -53 -30 -53q-4 0 -9.5 6.5t-10.5 9t-8.5 12.5t-3.5 46q-19 -76 -33 -76q-4 0 -8 6q-1 1 -7 3.5t-8.5 11.5t-2.5 18q0 26 10 59q7 20 17 35q15 23 26 23q10 0 15 -19q5 9 10.5 14.5t10.5 5.5q7 0 11 -3q0 -2 -5.5 -10.5t-9.5 -21.5q-9 -29 -9 -56
q0 -22 6 -33q2 -4 3 -4q5 3 11 23q15 47 15 92q0 25 -7 27q-20 8 -20 26q0 13 14 20q4 2 8 2q16 0 22 -31q1 -5 3 -5l30 8q13 5 14.5 5.5t7 6t9.5 5.5q9 0 10 -12q0 -3 -5 -20q-33 -112 -33 -166q0 -30 13 -60zM976 124q-25 0 -45.5 22.5t-20.5 71.5q0 20 7 41v4
q-29 -78 -39 -78q-4 0 -7 6t-9 8q-3 0 -6 4q-4 7 -4 18q0 18 9 52q8 27 18 44q19 36 36 36q11 0 16 -22q15 35 26 35q6 0 6 -11q0 -13 -14 -61q-17 -59 -17 -98q0 -37 16 -55q9 -7 19 -7q13 0 29 12q35 30 35 107q0 28 -4 53q-3 9 -6 9q-4 0 -14 -22q-17 -39 -17 -71
q0 -18 7 -29q1 -2 2 -2q-6 -3 -10 -3q-13 0 -18 28q-2 8 -5 12q-3 8 -3 17q0 18 16 46q5 7 15.5 19t15.5 14q10 6 20 6q37 0 37 -52q0 -29 -11 -67q-7 -21 -16 -38q-29 -49 -64 -49zM676 255q4 1 12 9t13 18q12 20 22 62q-12 -12 -32 -51q-16 -32 -16 -38h1zM876 212
q8 14 48 106q0 9 -6 17l-1 1q-2 0 -9 -12q-22 -37 -31 -82l-2 -20zM358 70q-5 0 -11 5q-14 14 -14 55q0 31 10 77v1q-15 -39 -22 -62l-2 -8h-1q-6 0 -14 5q-12 8 -12 28q0 26 21 87q14 37 19 37q18 -2 18 -6q0 -2 -8 -19q-27 -66 -27 -89q32 77 55 115q7 11 11 11t12 -5
l2 -2l-9 -21q-10 -24 -19 -59q-11 -42 -11 -68l1 -1q29 98 52 149q12 22 18 22l14 -3q4 -1 4 -4l-7 -24q-14 -41 -26 -100q-5 -28 -5 -51q0 -21 8 -21q3 0 25 7q39 13 59 13q26 0 38 -15q-7 -1 -32.5 -5.5t-41.5 -10t-33 -14.5q-5 -2 -10 -2q-10 0 -18 13l-8 8
q-11 10 -11 32q0 16 12 66l3 16h-1q-15 -40 -28 -90q-10 -41 -10 -61v-4q0 -2 -1 -2zM235 43q-19 0 -31 17q-9 14 -9 37t6 75v1q-1 0 -7 -13q-14 -30 -25 -48q-5 -8 -10 -8q-4 0 -7.5 6.5t-10 8.5t-6.5 19t12 52q9 24 20 42q21 36 39 36q10 0 14 -17q13 28 16 32q6 8 12 12
t8 4q4 0 5 -7q0 -13 -18 -56q-20 -54 -20 -96q0 -56 19 -93l1 -2q0 -2 -8 -2zM456 177q2 0 7 17q26 74 26 80t-5 14h-2q-11 -3 -24 -55q-5 -19 -7 -40v-2q1 -14 5 -14zM158 131q4 4 8 12l45 86q2 3 2 7q0 5 -4 14l-1 1q-2 0 -9 -9q-17 -24 -30 -58q-10 -28 -11 -48v-5z
M418 -172h-9v86l9 4v-90zM657 -172h-10l-25 35l-3 -3v-32h-8v86q0 1 8 4v-51l25 22h7l-22 -20zM707 -172h-9v34q0 17 -4 20t-8 3q-9 0 -12 -11v-46h-9v86q0 1 9 4v-33q5 4 12 4q15 0 19 -13q2 -6 2 -30v-18zM799 -172q-19 0 -22 5.5t-3 21.5v30h-9v4h9v12q0 1 8 4v-16h11v-4
h-11v-31q0 -18 3 -19.5t6 -1.5q4 0 10 4zM862 -202h-1q0 84 -1 87l6 3l3 -3q5 5 14 5q13 0 18 -11q2 -6 2 -20q0 -25 -9 -29q-5 -3 -11 -3q-8 0 -13 4v-29q0 -1 -3 -2t-5 -2zM501 -172h-9v32q0 18 -3 21.5t-8 3.5q-10 0 -12 -14v-43h-9v26q0 24 -2.5 27.5t-8.5 3.5
q-9 0 -11 -10q-1 -3 -1 -26v-21h-9v58q0 1 3.5 2t5.5 2v-4q5 3 12 3q12 0 17 -7v-1q0 3 5.5 5.5t8.5 2.5q15 0 19 -10q2 -7 2 -34v-17zM572 -172h-9v58q1 1 9 4v-8q2 4 10 7h16q1 0 4 -10q-8 6 -15 6q-10 0 -14 -16q-1 -9 -1 -31v-10zM829 -201h-13l-3 10q8 -5 13 -5
q12 0 14 14l1 14q-5 -4 -13 -4q-14 0 -18 11q-3 6 -3 17v30l9 4v-31q0 -20 3.5 -23t7.5 -3q11 0 14 11v42q0 1 8 4v-61q0 -30 -20 -30zM1156 -172h-8v26q0 24 -3 27.5t-9 3.5q-8 0 -11 -10q-1 -4 -1 -25v-22h-8q-1 0 -1 34q0 17 -3 20t-8 3q-8 0 -11 -9q-1 -4 -1 -27v-21h-8
q-1 0 -1 58q0 1 9 4v-4q5 3 13 3q11 0 16 -6v-2q0 3 5 5.5t9 2.5q16 0 20 -12q1 -6 1 -34v-15zM949 -172h-15q-21 0 -21 25v11q0 26 22 26q20 0 20 -27q0 -2 -10 -4l-23 -5q0 -17 7 -20q3 -1 8 -1q7 0 15 5zM1052 -173q-22 0 -22 31q0 32 22 32q21 0 21 -31t-21 -32z
M133 -172h-4l-13 36l-12 -36h-4q-1 0 -2 5l-20 56h9l17 -46l10 28l-7 18h9q1 0 17 -46l17 46h5zM219 -172h-4q-1 1 -6.5 17.5t-6.5 17.5l-12 -35h-4q-1 1 -22 61h9l3 -7q12 -33 13 -39q1 0 9 24l2 4l-7 18h9l17 -46l17 46h5zM305 -172h-4l-13 36q-12 -36 -13 -36h-4l-21 61
h9l16 -46l10 28l-6 18h9q1 0 17 -46l17 46h5zM372 -173q-12 0 -16 13l-1 9q0 24 32 24q0 12 -13 12q-9 0 -14 -5l-2 -1q3 10 4 10h14q17 0 20 -16v-36q0 -5 3 -9h-8q-2 1 -3 5q-6 -6 -16 -6zM528 -173q-12 0 -16 12l-1 9q0 16 10 20.5t22 4.5q0 12 -13 12q-9 0 -15 -5l-1 -1
q2 10 3 10h15q20 0 20 -26q0 -32 2 -35h-7q-2 0 -3 6q-7 -7 -16 -7zM734 -173q-12 0 -16 12q-1 3 -1 9q0 16 9.5 20.5t22.5 4.5q-1 6 -3.5 9t-9.5 3q-9 0 -16 -6q2 10 3 10h15q14 0 18 -13q2 -5 2 -19q0 -25 2 -29h-8q-2 3 -2 6q-7 -7 -16 -7zM1019 -172h-14q-22 0 -22 31
q0 30 21 30h15q1 0 3 -10q-7 6 -14 6q-11 0 -13 -4.5t-2 -22.5q0 -20 3 -22.5t11 -2.5t15 5q-2 -10 -3 -10zM883 -168q7 0 9.5 6.5t2.5 23.5t-4 20t-9 3q-12 0 -12 -14v-25q0 -14 13 -14zM922 -140l24 4q0 21 -12 21t-12 -23v-2zM1052 -168q7 0 9.5 7t2.5 20q0 20 -4.5 23
t-7.5 3q-13 0 -13 -26q0 -21 4.5 -24t8.5 -3zM375 -166q8 0 13 7v27q-15 0 -19.5 -5.5t-4.5 -13.5q0 -15 10 -15h1zM530 -166q9 0 13 7v27q-15 0 -19 -5.5t-4 -13.5q0 -14 10 -15zM736 -166q9 0 13 7v27q-17 0 -22 -9q-2 -4 -2 -11q0 -14 11 -14zM343 -172h-1q-4 0 -6 4
q0 5 5 7q4 0 6 -5q0 -5 -4 -6zM971 -172h-2q-5 0 -5 5q0 4 5 6q4 0 5 -2.5t1 -3.5q0 -3 -4 -5z" />
    <glyph glyph-name="colon" unicode=":" horiz-adv-x="230" 
d="M115 454q-32 0 -55.5 21.5t-23.5 52.5q0 32 23.5 53.5t55.5 21.5t55 -21.5t23 -53.5q0 -31 -23 -52.5t-55 -21.5zM115 480q22 0 37 14.5t15 33.5q0 20 -15 34t-37 14t-37.5 -14t-15.5 -34q0 -19 15.5 -33.5t37.5 -14.5zM115 506q-9 0 -16 6t-7 16t7 16t16 6q8 0 15.5 -6
t7.5 -16t-7.5 -16t-15.5 -6zM115 51q-32 0 -55.5 22t-23.5 53t23.5 52.5t55.5 21.5t55 -21.5t23 -52.5t-23 -53t-55 -22zM115 78q22 0 37 14.5t15 33.5q0 20 -15 34t-37 14t-37.5 -14t-15.5 -34q0 -19 15.5 -33.5t37.5 -14.5zM115 104q-9 0 -16 6t-7 16t7 16t16 6
q8 0 15.5 -6t7.5 -16t-7.5 -16t-15.5 -6z" />
    <glyph glyph-name="semicolon" unicode=";" horiz-adv-x="238" 
d="M128 394q-32 0 -55.5 21.5t-23.5 52.5q0 32 23.5 53.5t55.5 21.5t55 -21.5t23 -53.5q0 -31 -23 -52.5t-55 -21.5zM128 420q22 0 37 14.5t15 33.5q0 20 -15 34t-37 14t-37.5 -14t-15.5 -34q0 -19 15.5 -33.5t37.5 -14.5zM128 446q-9 0 -16 6t-7 16t7 16t16 6q8 0 15.5 -6
t7.5 -16t-7.5 -16t-15.5 -6zM168 -110h-88l24 106q-55 21 -55 70q0 31 23.5 52.5t55.5 21.5t55 -21.5t23 -52.5q0 -9 -1 -16zM147 -84l32 140q1 3 1 10q0 20 -15 34t-37 14t-37.5 -14t-15.5 -34q0 -25 17 -36t44 -14l-23 -100h34zM128 44q-9 0 -16 6t-7 16t7 16t16 6
q8 0 15.5 -6t7.5 -16t-7.5 -16t-15.5 -6z" />
    <glyph glyph-name="semicolon" unicode="&#x37e;" horiz-adv-x="238" 
d="M128 394q-32 0 -55.5 21.5t-23.5 52.5q0 32 23.5 53.5t55.5 21.5t55 -21.5t23 -53.5q0 -31 -23 -52.5t-55 -21.5zM128 420q22 0 37 14.5t15 33.5q0 20 -15 34t-37 14t-37.5 -14t-15.5 -34q0 -19 15.5 -33.5t37.5 -14.5zM128 446q-9 0 -16 6t-7 16t7 16t16 6q8 0 15.5 -6
t7.5 -16t-7.5 -16t-15.5 -6zM168 -110h-88l24 106q-55 21 -55 70q0 31 23.5 52.5t55.5 21.5t55 -21.5t23 -52.5q0 -9 -1 -16zM147 -84l32 140q1 3 1 10q0 20 -15 34t-37 14t-37.5 -14t-15.5 -34q0 -25 17 -36t44 -14l-23 -100h34zM128 44q-9 0 -16 6t-7 16t7 16t16 6
q8 0 15.5 -6t7.5 -16t-7.5 -16t-15.5 -6z" />
    <glyph glyph-name="less" unicode="&#x3c;" horiz-adv-x="521" 
d="M472 138l-449 162v94l449 162v-82l-377 -126v-2l350 -117v26l-318 92l345 100v-27l-251 -73l251 -73v-82l-404 135v40l377 126v26l-396 -143v-58l423 -152v-28z" />
    <glyph glyph-name="equal" unicode="=" horiz-adv-x="561" 
d="M525 363h-490v27h464v21h-464v75h490v-26h-464v-22h464v-75zM525 153h-490v27h464v21h-464v75h490v-26h-464v-22h464v-75z" />
    <glyph glyph-name="greater" unicode="&#x3e;" horiz-adv-x="521" 
d="M37 138v28l422 152v58l-396 143v-26l377 -126v-40l-403 -135v82l251 73l-251 73v27l345 -100l-319 -92v-26l351 117v2l-377 126v82l449 -162v-94z" />
    <glyph glyph-name="question" unicode="?" horiz-adv-x="1213" 
d="M375 551q-22 0 -28 26q-3 14 -3 34q0 55 32 55q20 0 27 -21q4 -14 4 -40q0 -54 -32 -54zM939 551q-22 0 -28 24q-3 13 -3 34q0 46 18 54q5 3 13 3q22 0 28 -23q4 -13 4 -35q0 -45 -18 -54q-6 -3 -14 -3zM83 553h-10v111h33q30 0 30 -31q0 -21 -13 -27q-6 -3 -20 -3h-20
v-50zM199 553h-51v111h48l2 -6h-39v-43h31v-3v-3.5t-31 -0.5v-49h42q-1 -6 -2 -6zM281 553h-11q-1 0 -4 14q-11 38 -17 38h-24v-52h-10v111h32q29 0 29 -29q0 -25 -16 -28q9 -11 21 -54zM306 553h-8q-1 0 -3 12q6 -6 11 -6q13 0 13 18q0 13 -13 35q-9 17 -9 28q0 17 13 23
l7 1h10q1 0 3 -10v-1q-7 5 -11 5q-11 0 -11 -13t11 -32.5t11 -34.5q0 -17 -14 -23q-5 -2 -10 -2zM479 553h-8q-5 6 -44 94v-94h-6v56q0 55 1 55h9l41 -90h1v90h6v-111zM560 553h-11l-10 33h-33l-10 -33h-6l32 111h5q1 -1 4 -14zM625 553h-51v111h10v-105h42zM710 551
q-18 0 -24.5 13t-6.5 44v56h11v-62q0 -32 5 -38.5t16 -6.5q13 0 16.5 9t3.5 34v64h7v-49q0 -40 -4 -48q-6 -16 -24 -16zM761 553h-8l-3 12q6 -6 11 -6q11 0 13 15v4q0 12 -12 33q-10 18 -10 31q0 16 14 21q3 1 7 1h10l3 -11q-8 5 -12 5q-11 0 -11 -13t11 -33t11 -34
q0 -17 -14 -23q-4 -2 -10 -2zM854 553h-51q-1 0 -1 56q0 55 1 55h47q1 0 2 -6h-39v-43h31v0q1 -1 1 -3q0 -3 -0.5 -3.5t-31.5 -0.5v-49h42zM1042 553h-8l-43 94v-94h-6v111h10l41 -90v90h6v-111zM1107 553h-50q-1 0 -1 56l1 55h10v-105h42q0 -6 -2 -6zM1134 553h-11v56
l-27 55h11q1 0 24 -47l23 47h7l-27 -54v-57zM376 557q12 0 16 9.5t4 42.5q0 36 -5 43.5t-15 7.5q-14 0 -17.5 -11.5t-3.5 -39.5q0 -34 4.5 -43t16.5 -9zM940 557q12 0 16 11t4 41q0 39 -6 45t-15 6q-12 0 -16 -10t-4 -41q0 -38 5 -45t16 -7zM105 609q12 0 15.5 6t3.5 18
q0 19 -8 23q-3 2 -15 2h-18v-49h22zM242 612q15 0 18.5 4.5t3.5 18.5q0 17 -5 20t-17 3h-17v-46h17zM537 592l-15 51l-14 -51h29zM638 134q-2 0 -9 5q-9 4 -11.5 10.5t-2.5 25.5q0 84 63 263q0 1 -23 1q-115 0 -137 -47q-6 9 -6 23q0 31 33 40t100 9q29 0 33 2q11 0 17 8
l3 1q6 0 9 -13l6 -12q1 0 2 -2l-7 -15q-42 -92 -57 -175q-2 -11 -2 -17q43 128 75 128q13 0 19 -15q1 -5 1 -13q0 -24 -15 -60q-6 -11 -16 -23.5t-16 -16.5t-14 -7q-3 -1 -3 -2q0 -2 9 -11q5 -3 10 -3q10 0 26 17q25 30 26 42q4 20 12 51q18 68 46 138q4 12 7 15t5 4h3
q3 -2 5 -7q3 -11 8 -18l1 -2q0 -2 -7 -16q-43 -91 -59 -181l-2 -21q1 0 4 9q41 100 74 100l12 -1q10 0 11 -6q0 -4 -7 -18q-27 -53 -27 -100q0 -38 30 -59q15 -9 32 -9q-7 -15 -34 -15q-38 0 -53 38q-4 11 -4 25q0 37 16 94l3 11q-53 -106 -65 -149q-4 -10 -7 -10l-7 5
q-7 3 -8.5 6t-1.5 15q0 18 2 44q-29 -25 -46 -25q-10 0 -17 10q-10 12 -14 19q-1 0 -3 -7q-6 -19 -14 -65q-5 -18 -8 -18zM984 324q-10 4 -10 16q0 10 12 37l9 22q-16 -23 -20 -23q-3 0 -7 10v2q-10 -12 -14 -12q-3 0 -9 11l-1 8q0 7 7 25l10 29q0 1 -1 1q-17 -1 -23 -15v-1
q-7 3 -7 10q0 10 22 14q13 2 13.5 2.5t1.5 5.5q2 8 3.5 11t5 3.5t11.5 3.5q1 0 2 -2l-8 -20q0 -1 4 -1q29 0 54 -7q10 -4 10 -8q0 -2 -1 -2q-3 2 -14 5q-17 4 -37 4q-4 0 -8 -0.5t-9.5 -0.5t-22.5 -49l-3 -8q1 -3 3 -3t7 5q10 10 17 19q3 5 13 9q-2 -6 -11 -21l-4 -11
q3 0 6 6q24 31 27 31q5 -1 5 -3q-14 -30 -26 -62q-8 -26 -8 -34zM378 -12h-6q-63 0 -97.5 40t-34.5 100q0 49 18 109q11 32 23 56l9 18q-2 1 -40 1q-76 0 -100 -28l-7 -11q-4 11 -4 21q0 28 28 39q16 6 55 6l80 -3q3 0 7 7q13 20 31 42q54 61 89 61q17 0 17 -16
q-9 -72 -71 -103q-20 -9 -22 -9q-8 -3 -22.5 -5t-16 -4.5t-12.5 -31.5q-35 -91 -35 -149q0 -54 41 -87q29 -22 63 -22q53 0 155 32l109 34q114 38 182 38q84 0 130 -46q16 -16 16 -25l-1 -1q-44 39 -135 39q-93 0 -230 -47l-104 -34q-72 -21 -115 -21zM1058 382q-8 0 -13 7
v4q0 15 8 29l4 2q6 0 7 -8q0 -14 -12 -23v-2q1 -3 3 -3q5 2 9 9.5t4 16.5q0 6 -2 17v1q7 0 9 -16l1 -6q0 -14 -11 -25q-4 -3 -7 -3zM993 326q-5 3 -5 8q1 12 25 72q9 21 12 21q6 -1 6 -4l-5 -9q-6 -12 -11 -26l21 37q5 0 6 -18q0 -24 -11 -25q-3 0 -8 4q-1 0 -5 -8
q-17 -31 -23 -49zM334 337q24 0 50 19q14 12 21 21q16 24 17 42l1 5q-22 -13 -48 -34q-32 -30 -46 -52v-1h5zM1054 402q5 5 5 12h-1q-4 -7 -4 -12zM1024 389q11 0 11 15q0 5 -1 5zM605 104q-19 0 -32 15q-9 12 -9 25q0 20 21 112l16 67q1 4 5 9q-16 -6 -42 -13q-1 0 -1 -2
v-17q0 -38 -11 -90q-15 -53 -30 -53q-4 0 -9.5 6.5t-10.5 9t-8.5 12.5t-3.5 46q-19 -76 -33 -76q-4 0 -8 6q-1 1 -7 3.5t-8.5 11.5t-2.5 18q0 26 10 59q7 20 17 35q15 23 26 23q10 0 15 -19q5 9 10.5 14.5t10.5 5.5q7 0 11 -3q0 -2 -5.5 -10.5t-9.5 -21.5q-9 -29 -9 -56
q0 -22 6 -33q2 -4 3 -4q5 3 11 23q15 47 15 92q0 25 -7 27q-20 8 -20 26q0 13 14 20q4 2 8 2q16 0 22 -31q1 -5 3 -5l30 8q13 5 14.5 5.5t7 6t9.5 5.5q9 0 10 -12q0 -3 -5 -20q-33 -112 -33 -166q0 -30 13 -60zM976 124q-25 0 -45.5 22.5t-20.5 71.5q0 20 7 41v4
q-29 -78 -39 -78q-4 0 -7 6t-9 8q-3 0 -6 4q-4 7 -4 18q0 18 9 52q8 27 18 44q19 36 36 36q11 0 16 -22q15 35 26 35q6 0 6 -11q0 -13 -14 -61q-17 -59 -17 -98q0 -37 16 -55q9 -7 19 -7q13 0 29 12q35 30 35 107q0 28 -4 53q-3 9 -6 9q-4 0 -14 -22q-17 -39 -17 -71
q0 -18 7 -29q1 -2 2 -2q-6 -3 -10 -3q-13 0 -18 28q-2 8 -5 12q-3 8 -3 17q0 18 16 46q5 7 15.5 19t15.5 14q10 6 20 6q37 0 37 -52q0 -29 -11 -67q-7 -21 -16 -38q-29 -49 -64 -49zM676 255q4 1 12 9t13 18q12 20 22 62q-12 -12 -32 -51q-16 -32 -16 -38h1zM876 212
q8 14 48 106q0 9 -6 17l-1 1q-2 0 -9 -12q-22 -37 -31 -82l-2 -20zM358 70q-5 0 -11 5q-14 14 -14 55q0 31 10 77v1q-15 -39 -22 -62l-2 -8h-1q-6 0 -14 5q-12 8 -12 28q0 26 21 87q14 37 19 37q18 -2 18 -6q0 -2 -8 -19q-27 -66 -27 -89q32 77 55 115q7 11 11 11t12 -5
l2 -2l-9 -21q-10 -24 -19 -59q-11 -42 -11 -68l1 -1q29 98 52 149q12 22 18 22l14 -3q4 -1 4 -4l-7 -24q-14 -41 -26 -100q-5 -28 -5 -51q0 -21 8 -21q3 0 25 7q39 13 59 13q26 0 38 -15q-7 -1 -32.5 -5.5t-41.5 -10t-33 -14.5q-5 -2 -10 -2q-10 0 -18 13l-8 8
q-11 10 -11 32q0 16 12 66l3 16h-1q-15 -40 -28 -90q-10 -41 -10 -61v-4q0 -2 -1 -2zM235 43q-19 0 -31 17q-9 14 -9 37t6 75v1q-1 0 -7 -13q-14 -30 -25 -48q-5 -8 -10 -8q-4 0 -7.5 6.5t-10 8.5t-6.5 19t12 52q9 24 20 42q21 36 39 36q10 0 14 -17q13 28 16 32q6 8 12 12
t8 4q4 0 5 -7q0 -13 -18 -56q-20 -54 -20 -96q0 -56 19 -93l1 -2q0 -2 -8 -2zM456 177q2 0 7 17q26 74 26 80t-5 14h-2q-11 -3 -24 -55q-5 -19 -7 -40v-2q1 -14 5 -14zM158 131q4 4 8 12l45 86q2 3 2 7q0 5 -4 14l-1 1q-2 0 -9 -9q-17 -24 -30 -58q-10 -28 -11 -48v-5z
M418 -172h-9v86l9 4v-90zM657 -172h-10l-25 35l-3 -3v-32h-8v86q0 1 8 4v-51l25 22h7l-22 -20zM707 -172h-9v34q0 17 -4 20t-8 3q-9 0 -12 -11v-46h-9v86q0 1 9 4v-33q5 4 12 4q15 0 19 -13q2 -6 2 -30v-18zM799 -172q-19 0 -22 5.5t-3 21.5v30h-9v4h9v12q0 1 8 4v-16h11v-4
h-11v-31q0 -18 3 -19.5t6 -1.5q4 0 10 4zM862 -202h-1q0 84 -1 87l6 3l3 -3q5 5 14 5q13 0 18 -11q2 -6 2 -20q0 -25 -9 -29q-5 -3 -11 -3q-8 0 -13 4v-29q0 -1 -3 -2t-5 -2zM501 -172h-9v32q0 18 -3 21.5t-8 3.5q-10 0 -12 -14v-43h-9v26q0 24 -2.5 27.5t-8.5 3.5
q-9 0 -11 -10q-1 -3 -1 -26v-21h-9v58q0 1 3.5 2t5.5 2v-4q5 3 12 3q12 0 17 -7v-1q0 3 5.5 5.5t8.5 2.5q15 0 19 -10q2 -7 2 -34v-17zM572 -172h-9v58q1 1 9 4v-8q2 4 10 7h16q1 0 4 -10q-8 6 -15 6q-10 0 -14 -16q-1 -9 -1 -31v-10zM829 -201h-13l-3 10q8 -5 13 -5
q12 0 14 14l1 14q-5 -4 -13 -4q-14 0 -18 11q-3 6 -3 17v30l9 4v-31q0 -20 3.5 -23t7.5 -3q11 0 14 11v42q0 1 8 4v-61q0 -30 -20 -30zM1156 -172h-8v26q0 24 -3 27.5t-9 3.5q-8 0 -11 -10q-1 -4 -1 -25v-22h-8q-1 0 -1 34q0 17 -3 20t-8 3q-8 0 -11 -9q-1 -4 -1 -27v-21h-8
q-1 0 -1 58q0 1 9 4v-4q5 3 13 3q11 0 16 -6v-2q0 3 5 5.5t9 2.5q16 0 20 -12q1 -6 1 -34v-15zM949 -172h-15q-21 0 -21 25v11q0 26 22 26q20 0 20 -27q0 -2 -10 -4l-23 -5q0 -17 7 -20q3 -1 8 -1q7 0 15 5zM1052 -173q-22 0 -22 31q0 32 22 32q21 0 21 -31t-21 -32z
M133 -172h-4l-13 36l-12 -36h-4q-1 0 -2 5l-20 56h9l17 -46l10 28l-7 18h9q1 0 17 -46l17 46h5zM219 -172h-4q-1 1 -6.5 17.5t-6.5 17.5l-12 -35h-4q-1 1 -22 61h9l3 -7q12 -33 13 -39q1 0 9 24l2 4l-7 18h9l17 -46l17 46h5zM305 -172h-4l-13 36q-12 -36 -13 -36h-4l-21 61
h9l16 -46l10 28l-6 18h9q1 0 17 -46l17 46h5zM372 -173q-12 0 -16 13l-1 9q0 24 32 24q0 12 -13 12q-9 0 -14 -5l-2 -1q3 10 4 10h14q17 0 20 -16v-36q0 -5 3 -9h-8q-2 1 -3 5q-6 -6 -16 -6zM528 -173q-12 0 -16 12l-1 9q0 16 10 20.5t22 4.5q0 12 -13 12q-9 0 -15 -5l-1 -1
q2 10 3 10h15q20 0 20 -26q0 -32 2 -35h-7q-2 0 -3 6q-7 -7 -16 -7zM734 -173q-12 0 -16 12q-1 3 -1 9q0 16 9.5 20.5t22.5 4.5q-1 6 -3.5 9t-9.5 3q-9 0 -16 -6q2 10 3 10h15q14 0 18 -13q2 -5 2 -19q0 -25 2 -29h-8q-2 3 -2 6q-7 -7 -16 -7zM1019 -172h-14q-22 0 -22 31
q0 30 21 30h15q1 0 3 -10q-7 6 -14 6q-11 0 -13 -4.5t-2 -22.5q0 -20 3 -22.5t11 -2.5t15 5q-2 -10 -3 -10zM883 -168q7 0 9.5 6.5t2.5 23.5t-4 20t-9 3q-12 0 -12 -14v-25q0 -14 13 -14zM922 -140l24 4q0 21 -12 21t-12 -23v-2zM1052 -168q7 0 9.5 7t2.5 20q0 20 -4.5 23
t-7.5 3q-13 0 -13 -26q0 -21 4.5 -24t8.5 -3zM375 -166q8 0 13 7v27q-15 0 -19.5 -5.5t-4.5 -13.5q0 -15 10 -15h1zM530 -166q9 0 13 7v27q-15 0 -19 -5.5t-4 -13.5q0 -14 10 -15zM736 -166q9 0 13 7v27q-17 0 -22 -9q-2 -4 -2 -11q0 -14 11 -14zM343 -172h-1q-4 0 -6 4
q0 5 5 7q4 0 6 -5q0 -5 -4 -6zM971 -172h-2q-5 0 -5 5q0 4 5 6q4 0 5 -2.5t1 -3.5q0 -3 -4 -5z" />
    <glyph glyph-name="at" unicode="@" horiz-adv-x="1213" 
d="M375 551q-22 0 -28 26q-3 14 -3 34q0 55 32 55q20 0 27 -21q4 -14 4 -40q0 -54 -32 -54zM939 551q-22 0 -28 24q-3 13 -3 34q0 46 18 54q5 3 13 3q22 0 28 -23q4 -13 4 -35q0 -45 -18 -54q-6 -3 -14 -3zM83 553h-10v111h33q30 0 30 -31q0 -21 -13 -27q-6 -3 -20 -3h-20
v-50zM199 553h-51v111h48l2 -6h-39v-43h31v-3v-3.5t-31 -0.5v-49h42q-1 -6 -2 -6zM281 553h-11q-1 0 -4 14q-11 38 -17 38h-24v-52h-10v111h32q29 0 29 -29q0 -25 -16 -28q9 -11 21 -54zM306 553h-8q-1 0 -3 12q6 -6 11 -6q13 0 13 18q0 13 -13 35q-9 17 -9 28q0 17 13 23
l7 1h10q1 0 3 -10v-1q-7 5 -11 5q-11 0 -11 -13t11 -32.5t11 -34.5q0 -17 -14 -23q-5 -2 -10 -2zM479 553h-8q-5 6 -44 94v-94h-6v56q0 55 1 55h9l41 -90h1v90h6v-111zM560 553h-11l-10 33h-33l-10 -33h-6l32 111h5q1 -1 4 -14zM625 553h-51v111h10v-105h42zM710 551
q-18 0 -24.5 13t-6.5 44v56h11v-62q0 -32 5 -38.5t16 -6.5q13 0 16.5 9t3.5 34v64h7v-49q0 -40 -4 -48q-6 -16 -24 -16zM761 553h-8l-3 12q6 -6 11 -6q11 0 13 15v4q0 12 -12 33q-10 18 -10 31q0 16 14 21q3 1 7 1h10l3 -11q-8 5 -12 5q-11 0 -11 -13t11 -33t11 -34
q0 -17 -14 -23q-4 -2 -10 -2zM854 553h-51q-1 0 -1 56q0 55 1 55h47q1 0 2 -6h-39v-43h31v0q1 -1 1 -3q0 -3 -0.5 -3.5t-31.5 -0.5v-49h42zM1042 553h-8l-43 94v-94h-6v111h10l41 -90v90h6v-111zM1107 553h-50q-1 0 -1 56l1 55h10v-105h42q0 -6 -2 -6zM1134 553h-11v56
l-27 55h11q1 0 24 -47l23 47h7l-27 -54v-57zM376 557q12 0 16 9.5t4 42.5q0 36 -5 43.5t-15 7.5q-14 0 -17.5 -11.5t-3.5 -39.5q0 -34 4.5 -43t16.5 -9zM940 557q12 0 16 11t4 41q0 39 -6 45t-15 6q-12 0 -16 -10t-4 -41q0 -38 5 -45t16 -7zM105 609q12 0 15.5 6t3.5 18
q0 19 -8 23q-3 2 -15 2h-18v-49h22zM242 612q15 0 18.5 4.5t3.5 18.5q0 17 -5 20t-17 3h-17v-46h17zM537 592l-15 51l-14 -51h29zM638 134q-2 0 -9 5q-9 4 -11.5 10.5t-2.5 25.5q0 84 63 263q0 1 -23 1q-115 0 -137 -47q-6 9 -6 23q0 31 33 40t100 9q29 0 33 2q11 0 17 8
l3 1q6 0 9 -13l6 -12q1 0 2 -2l-7 -15q-42 -92 -57 -175q-2 -11 -2 -17q43 128 75 128q13 0 19 -15q1 -5 1 -13q0 -24 -15 -60q-6 -11 -16 -23.5t-16 -16.5t-14 -7q-3 -1 -3 -2q0 -2 9 -11q5 -3 10 -3q10 0 26 17q25 30 26 42q4 20 12 51q18 68 46 138q4 12 7 15t5 4h3
q3 -2 5 -7q3 -11 8 -18l1 -2q0 -2 -7 -16q-43 -91 -59 -181l-2 -21q1 0 4 9q41 100 74 100l12 -1q10 0 11 -6q0 -4 -7 -18q-27 -53 -27 -100q0 -38 30 -59q15 -9 32 -9q-7 -15 -34 -15q-38 0 -53 38q-4 11 -4 25q0 37 16 94l3 11q-53 -106 -65 -149q-4 -10 -7 -10l-7 5
q-7 3 -8.5 6t-1.5 15q0 18 2 44q-29 -25 -46 -25q-10 0 -17 10q-10 12 -14 19q-1 0 -3 -7q-6 -19 -14 -65q-5 -18 -8 -18zM984 324q-10 4 -10 16q0 10 12 37l9 22q-16 -23 -20 -23q-3 0 -7 10v2q-10 -12 -14 -12q-3 0 -9 11l-1 8q0 7 7 25l10 29q0 1 -1 1q-17 -1 -23 -15v-1
q-7 3 -7 10q0 10 22 14q13 2 13.5 2.5t1.5 5.5q2 8 3.5 11t5 3.5t11.5 3.5q1 0 2 -2l-8 -20q0 -1 4 -1q29 0 54 -7q10 -4 10 -8q0 -2 -1 -2q-3 2 -14 5q-17 4 -37 4q-4 0 -8 -0.5t-9.5 -0.5t-22.5 -49l-3 -8q1 -3 3 -3t7 5q10 10 17 19q3 5 13 9q-2 -6 -11 -21l-4 -11
q3 0 6 6q24 31 27 31q5 -1 5 -3q-14 -30 -26 -62q-8 -26 -8 -34zM378 -12h-6q-63 0 -97.5 40t-34.5 100q0 49 18 109q11 32 23 56l9 18q-2 1 -40 1q-76 0 -100 -28l-7 -11q-4 11 -4 21q0 28 28 39q16 6 55 6l80 -3q3 0 7 7q13 20 31 42q54 61 89 61q17 0 17 -16
q-9 -72 -71 -103q-20 -9 -22 -9q-8 -3 -22.5 -5t-16 -4.5t-12.5 -31.5q-35 -91 -35 -149q0 -54 41 -87q29 -22 63 -22q53 0 155 32l109 34q114 38 182 38q84 0 130 -46q16 -16 16 -25l-1 -1q-44 39 -135 39q-93 0 -230 -47l-104 -34q-72 -21 -115 -21zM1058 382q-8 0 -13 7
v4q0 15 8 29l4 2q6 0 7 -8q0 -14 -12 -23v-2q1 -3 3 -3q5 2 9 9.5t4 16.5q0 6 -2 17v1q7 0 9 -16l1 -6q0 -14 -11 -25q-4 -3 -7 -3zM993 326q-5 3 -5 8q1 12 25 72q9 21 12 21q6 -1 6 -4l-5 -9q-6 -12 -11 -26l21 37q5 0 6 -18q0 -24 -11 -25q-3 0 -8 4q-1 0 -5 -8
q-17 -31 -23 -49zM334 337q24 0 50 19q14 12 21 21q16 24 17 42l1 5q-22 -13 -48 -34q-32 -30 -46 -52v-1h5zM1054 402q5 5 5 12h-1q-4 -7 -4 -12zM1024 389q11 0 11 15q0 5 -1 5zM605 104q-19 0 -32 15q-9 12 -9 25q0 20 21 112l16 67q1 4 5 9q-16 -6 -42 -13q-1 0 -1 -2
v-17q0 -38 -11 -90q-15 -53 -30 -53q-4 0 -9.5 6.5t-10.5 9t-8.5 12.5t-3.5 46q-19 -76 -33 -76q-4 0 -8 6q-1 1 -7 3.5t-8.5 11.5t-2.5 18q0 26 10 59q7 20 17 35q15 23 26 23q10 0 15 -19q5 9 10.5 14.5t10.5 5.5q7 0 11 -3q0 -2 -5.5 -10.5t-9.5 -21.5q-9 -29 -9 -56
q0 -22 6 -33q2 -4 3 -4q5 3 11 23q15 47 15 92q0 25 -7 27q-20 8 -20 26q0 13 14 20q4 2 8 2q16 0 22 -31q1 -5 3 -5l30 8q13 5 14.5 5.5t7 6t9.5 5.5q9 0 10 -12q0 -3 -5 -20q-33 -112 -33 -166q0 -30 13 -60zM976 124q-25 0 -45.5 22.5t-20.5 71.5q0 20 7 41v4
q-29 -78 -39 -78q-4 0 -7 6t-9 8q-3 0 -6 4q-4 7 -4 18q0 18 9 52q8 27 18 44q19 36 36 36q11 0 16 -22q15 35 26 35q6 0 6 -11q0 -13 -14 -61q-17 -59 -17 -98q0 -37 16 -55q9 -7 19 -7q13 0 29 12q35 30 35 107q0 28 -4 53q-3 9 -6 9q-4 0 -14 -22q-17 -39 -17 -71
q0 -18 7 -29q1 -2 2 -2q-6 -3 -10 -3q-13 0 -18 28q-2 8 -5 12q-3 8 -3 17q0 18 16 46q5 7 15.5 19t15.5 14q10 6 20 6q37 0 37 -52q0 -29 -11 -67q-7 -21 -16 -38q-29 -49 -64 -49zM676 255q4 1 12 9t13 18q12 20 22 62q-12 -12 -32 -51q-16 -32 -16 -38h1zM876 212
q8 14 48 106q0 9 -6 17l-1 1q-2 0 -9 -12q-22 -37 -31 -82l-2 -20zM358 70q-5 0 -11 5q-14 14 -14 55q0 31 10 77v1q-15 -39 -22 -62l-2 -8h-1q-6 0 -14 5q-12 8 -12 28q0 26 21 87q14 37 19 37q18 -2 18 -6q0 -2 -8 -19q-27 -66 -27 -89q32 77 55 115q7 11 11 11t12 -5
l2 -2l-9 -21q-10 -24 -19 -59q-11 -42 -11 -68l1 -1q29 98 52 149q12 22 18 22l14 -3q4 -1 4 -4l-7 -24q-14 -41 -26 -100q-5 -28 -5 -51q0 -21 8 -21q3 0 25 7q39 13 59 13q26 0 38 -15q-7 -1 -32.5 -5.5t-41.5 -10t-33 -14.5q-5 -2 -10 -2q-10 0 -18 13l-8 8
q-11 10 -11 32q0 16 12 66l3 16h-1q-15 -40 -28 -90q-10 -41 -10 -61v-4q0 -2 -1 -2zM235 43q-19 0 -31 17q-9 14 -9 37t6 75v1q-1 0 -7 -13q-14 -30 -25 -48q-5 -8 -10 -8q-4 0 -7.5 6.5t-10 8.5t-6.5 19t12 52q9 24 20 42q21 36 39 36q10 0 14 -17q13 28 16 32q6 8 12 12
t8 4q4 0 5 -7q0 -13 -18 -56q-20 -54 -20 -96q0 -56 19 -93l1 -2q0 -2 -8 -2zM456 177q2 0 7 17q26 74 26 80t-5 14h-2q-11 -3 -24 -55q-5 -19 -7 -40v-2q1 -14 5 -14zM158 131q4 4 8 12l45 86q2 3 2 7q0 5 -4 14l-1 1q-2 0 -9 -9q-17 -24 -30 -58q-10 -28 -11 -48v-5z
M418 -172h-9v86l9 4v-90zM657 -172h-10l-25 35l-3 -3v-32h-8v86q0 1 8 4v-51l25 22h7l-22 -20zM707 -172h-9v34q0 17 -4 20t-8 3q-9 0 -12 -11v-46h-9v86q0 1 9 4v-33q5 4 12 4q15 0 19 -13q2 -6 2 -30v-18zM799 -172q-19 0 -22 5.5t-3 21.5v30h-9v4h9v12q0 1 8 4v-16h11v-4
h-11v-31q0 -18 3 -19.5t6 -1.5q4 0 10 4zM862 -202h-1q0 84 -1 87l6 3l3 -3q5 5 14 5q13 0 18 -11q2 -6 2 -20q0 -25 -9 -29q-5 -3 -11 -3q-8 0 -13 4v-29q0 -1 -3 -2t-5 -2zM501 -172h-9v32q0 18 -3 21.5t-8 3.5q-10 0 -12 -14v-43h-9v26q0 24 -2.5 27.5t-8.5 3.5
q-9 0 -11 -10q-1 -3 -1 -26v-21h-9v58q0 1 3.5 2t5.5 2v-4q5 3 12 3q12 0 17 -7v-1q0 3 5.5 5.5t8.5 2.5q15 0 19 -10q2 -7 2 -34v-17zM572 -172h-9v58q1 1 9 4v-8q2 4 10 7h16q1 0 4 -10q-8 6 -15 6q-10 0 -14 -16q-1 -9 -1 -31v-10zM829 -201h-13l-3 10q8 -5 13 -5
q12 0 14 14l1 14q-5 -4 -13 -4q-14 0 -18 11q-3 6 -3 17v30l9 4v-31q0 -20 3.5 -23t7.5 -3q11 0 14 11v42q0 1 8 4v-61q0 -30 -20 -30zM1156 -172h-8v26q0 24 -3 27.5t-9 3.5q-8 0 -11 -10q-1 -4 -1 -25v-22h-8q-1 0 -1 34q0 17 -3 20t-8 3q-8 0 -11 -9q-1 -4 -1 -27v-21h-8
q-1 0 -1 58q0 1 9 4v-4q5 3 13 3q11 0 16 -6v-2q0 3 5 5.5t9 2.5q16 0 20 -12q1 -6 1 -34v-15zM949 -172h-15q-21 0 -21 25v11q0 26 22 26q20 0 20 -27q0 -2 -10 -4l-23 -5q0 -17 7 -20q3 -1 8 -1q7 0 15 5zM1052 -173q-22 0 -22 31q0 32 22 32q21 0 21 -31t-21 -32z
M133 -172h-4l-13 36l-12 -36h-4q-1 0 -2 5l-20 56h9l17 -46l10 28l-7 18h9q1 0 17 -46l17 46h5zM219 -172h-4q-1 1 -6.5 17.5t-6.5 17.5l-12 -35h-4q-1 1 -22 61h9l3 -7q12 -33 13 -39q1 0 9 24l2 4l-7 18h9l17 -46l17 46h5zM305 -172h-4l-13 36q-12 -36 -13 -36h-4l-21 61
h9l16 -46l10 28l-6 18h9q1 0 17 -46l17 46h5zM372 -173q-12 0 -16 13l-1 9q0 24 32 24q0 12 -13 12q-9 0 -14 -5l-2 -1q3 10 4 10h14q17 0 20 -16v-36q0 -5 3 -9h-8q-2 1 -3 5q-6 -6 -16 -6zM528 -173q-12 0 -16 12l-1 9q0 16 10 20.5t22 4.5q0 12 -13 12q-9 0 -15 -5l-1 -1
q2 10 3 10h15q20 0 20 -26q0 -32 2 -35h-7q-2 0 -3 6q-7 -7 -16 -7zM734 -173q-12 0 -16 12q-1 3 -1 9q0 16 9.5 20.5t22.5 4.5q-1 6 -3.5 9t-9.5 3q-9 0 -16 -6q2 10 3 10h15q14 0 18 -13q2 -5 2 -19q0 -25 2 -29h-8q-2 3 -2 6q-7 -7 -16 -7zM1019 -172h-14q-22 0 -22 31
q0 30 21 30h15q1 0 3 -10q-7 6 -14 6q-11 0 -13 -4.5t-2 -22.5q0 -20 3 -22.5t11 -2.5t15 5q-2 -10 -3 -10zM883 -168q7 0 9.5 6.5t2.5 23.5t-4 20t-9 3q-12 0 -12 -14v-25q0 -14 13 -14zM922 -140l24 4q0 21 -12 21t-12 -23v-2zM1052 -168q7 0 9.5 7t2.5 20q0 20 -4.5 23
t-7.5 3q-13 0 -13 -26q0 -21 4.5 -24t8.5 -3zM375 -166q8 0 13 7v27q-15 0 -19.5 -5.5t-4.5 -13.5q0 -15 10 -15h1zM530 -166q9 0 13 7v27q-15 0 -19 -5.5t-4 -13.5q0 -14 10 -15zM736 -166q9 0 13 7v27q-17 0 -22 -9q-2 -4 -2 -11q0 -14 11 -14zM343 -172h-1q-4 0 -6 4
q0 5 5 7q4 0 6 -5q0 -5 -4 -6zM971 -172h-2q-5 0 -5 5q0 4 5 6q4 0 5 -2.5t1 -3.5q0 -3 -4 -5z" />
    <glyph glyph-name="A" unicode="A" horiz-adv-x="799" 
d="M757 0h-97l-252 626h-16l-242 -600h39l71 176h277l81 -202h-28l-71 176h-241l-71 -176h-96l263 652h52l251 -626h41l-260 648h-115l-271 -674h-28l281 700h151zM524 234h-251l10 26h202l-87 217l-63 -159h87l10 -26h-136l102 255z" />
    <glyph glyph-name="B" unicode="B" horiz-adv-x="698" 
d="M372 -1h-251v648h215q210 0 211 -155q0 -95 -81 -138q17 -6 44.5 -22.5t50 -45.5t22.5 -76q0 -70 -56 -113.5t-155 -43.5h-189v258h189q74 0 109.5 -27t35.5 -74q0 -102 -145 -102h-128v28h128q57 0 87 17t30 57q0 39 -30 56t-87 17h-161v-202h161q87 0 135 35.5t48 93.5
q0 56 -51 92q-34 24 -79 36h-242v254h153q74 0 109.5 -26.5t35.5 -73.5q0 -100 -145 -100h-92v28h92q58 0 87.5 16.5t29.5 55.5t-29.5 55.5t-87.5 16.5h-125v-198h214q7 1 23 10q71 40 71 116q0 127 -177 127h-193v-592h223q115 0 182.5 44.5t67.5 138.5q0 41 -18 69
t-40.5 45.5t-37.5 24.5l-22 11l21 13q20 13 40.5 47t20.5 72q0 93 -66.5 137t-183.5 44h-248v-674h-28v702h276q131 0 204.5 -52.5t73.5 -156.5q0 -42 -18.5 -76t-40.5 -53q19 -11 41 -31t38 -50.5t16 -71.5q0 -103 -74 -157t-204 -54z" />
    <glyph glyph-name="C" unicode="C" horiz-adv-x="700" 
d="M398 0q-102 0 -186.5 47t-134.5 126.5t-50 176.5t50 176.5t134.5 126.5t186.5 47q87 0 153.5 -33t120.5 -89l-62 -61q-42 43 -93 67.5t-119 24.5q-116 0 -197 -75.5t-81 -183.5t81 -184.5t197 -76.5q113 0 192 77l-25 24q-71 -60 -167 -60q-60 0 -114.5 25.5t-89 74.5
t-34.5 120t34.5 120t89 74.5t114.5 25.5q61 0 105 -19.5t82 -57.5l-19 -19q-33 34 -72.5 52t-95.5 18q-89 0 -150.5 -53t-61.5 -141t61.5 -141t150.5 -53q56 0 95.5 18t72.5 52l61 -59q-89 -105 -229 -105q-126 0 -215 84.5t-89 203.5t89 202t215 83q62 0 115.5 -22
t95.5 -60l25 24q-102 97 -236 97q-143 0 -244 -95t-101 -229t101 -229t244 -95q154 0 252 117l20 -17q-106 -126 -272 -126z" />
    <glyph glyph-name="D" unicode="D" horiz-adv-x="711" 
d="M309 0h-188v646h188q132 0 221 -76.5t89 -219.5q0 -142 -89 -219t-221 -77h-127v538h127q105 0 176 -61.5t71 -180.5q0 -118 -70 -181q-72 -60 -177 -60h-65v26h65q99 0 160 54.5t61 160.5q0 105 -61.5 160t-159.5 55h-100v-484h100q125 0 204 69.5t79 199.5t-79 200
t-204 70h-162v-594h162q146 0 246 86t100 238t-100 238t-246 86h-223v-674h-26v700h249q153 0 263 -91q51 -45 80 -110.5t29 -148.5t-29 -148.5t-80 -110.5q-110 -91 -263 -91z" />
    <glyph glyph-name="E" unicode="E" horiz-adv-x="624" 
d="M595 0h-474v646h430v28h-465v-674h-26v700h517v-80h-430v-594h422v28h-387v27h387v28h-387v200h307v28h-307v26h307v28h-307v201h395v-27h-368v-148h306v-134h-306v-148h386v-135z" />
    <glyph glyph-name="F" unicode="F" horiz-adv-x="616" 
d="M209 0h-88v646h430v28h-465v-674h-26v700h517v-80h-430v-594h35v248h307v28h-307v26h307v28h-307v236h395v-27h-368v-183h306v-134h-306v-248z" />
    <glyph glyph-name="G" unicode="G" horiz-adv-x="720" 
d="M399 0q-102 0 -186.5 47t-135 126.5t-50.5 176.5t50.5 176.5t135 126.5t186.5 47q80 0 147 -31t118 -82l9 -9l-62 -61q-42 43 -93 67.5t-119 24.5q-115 0 -197 -72.5t-82 -186.5t82 -186.5t197 -72.5q117 0 181 67l2 149h-170v-26h133v-109q-67 -42 -146 -42
q-60 0 -115 25.5t-89.5 74.5t-34.5 120t34.5 120t89.5 74.5t115 25.5t104.5 -19.5t82.5 -57.5l-19 -19q-33 34 -72.5 52t-95.5 18q-88 0 -150.5 -52.5t-62.5 -141.5q0 -88 62.5 -141t150.5 -53q66 0 120 31v67h-133v79l223 1l-3 -187q-70 -82 -207 -82q-83 0 -152.5 36.5
t-111.5 101t-42 147.5t42 147.5t111.5 101t152.5 36.5q124 0 212 -82l24 24q-103 97 -236 97q-144 0 -245 -95t-101 -229q0 -133 101 -228.5t245 -95.5q73 0 137 28.5t105 75.5v230h-255v26h282v-266q-46 -55 -116 -87.5t-153 -32.5z" />
    <glyph glyph-name="H" unicode="H" horiz-adv-x="696" 
d="M636 0h-26v674h-35v-674h-87v283h-280v-283h-88v674h-35v-674h-26v700h87v-674h35v283h333v-283h35v674h87v-700zM514 391h-333v309h27v-283h280v283h26v-309zM514 337h-333v26h333v-26z" />
    <glyph glyph-name="I" unicode="I" horiz-adv-x="269" 
d="M209 0h-88v674h-35v-674h-26v700h87v-674h36v674h26v-700z" />
    <glyph glyph-name="J" unicode="J" horiz-adv-x="540" 
d="M240 0q-94 0 -170 57q-32 25 -67 63l19 17l9 -10q89 -101 209 -101q114 0 171 68q50 58 50 153v427h-269v-28h234v-399q0 -80 -51.5 -135t-133.5 -55q-44 0 -78.5 15t-61 36.5t-46.5 43.5l-10 9q19 17 36 36l27 26l9 -11q16 -22 49.5 -46.5t73.5 -24.5q36 0 63 21
q35 25 35 85v318h-173v27h200v-345q0 -71 -46 -106q-36 -27 -79 -27q-75 0 -134 71l-24 -24q28 -30 66 -54t93 -24q72 0 115.5 46.5t43.5 117.5v372h-235v81h322v-453q0 -104 -56 -171q-65 -76 -191 -76z" />
    <glyph glyph-name="K" unicode="K" horiz-adv-x="702" 
d="M511 0h-34l-218 262l-50 -60v-202h-88v674h-35v-674h-26v700h88v-674h35v185l76 92zM662 0h-109l-292 350l-78 -94v41l313 377h-38l-275 -332v358h26v-285l237 285h106l-274 -329l287 -345h41l-289 347l273 327h34l-272 -327z" />
    <glyph glyph-name="L" unicode="L" horiz-adv-x="625" 
d="M594 0h-535v700h87v-620h422v29h-386v591h26v-565h386v-81h-474v620h-35v-648h509v-26z" />
    <glyph glyph-name="M" unicode="M" horiz-adv-x="864" 
d="M742 54h-26v620h-40l-244 -519l-223 473v-80l205 -435h36l231 490v-61l-215 -455h-69l-215 455v158h22l228 -483l228 483h82v-646zM804 0h-149v344l-162 -344h-122l-162 344v-344h-88v674h-35v-674h-26v700h87v-674h35v435l206 -435h88l205 435v-435h96v674h27v-700z" />
    <glyph glyph-name="N" unicode="N" horiz-adv-x="696" 
d="M636 0h-142l-286 423v-423h-88v646h44l360 -533h25v561h-35v-482l-326 482h-103v-674h-26v700h143l286 -422v422h87v-613h-65l-360 532h-4v-593h36v483l326 -483h102v674h26v-700z" />
    <glyph glyph-name="O" unicode="O" horiz-adv-x="763" 
d="M381 0q-97 0 -177.5 47t-128.5 126.5t-48 176.5t48 176t128.5 126.5t177.5 47.5q98 0 178.5 -47.5t128.5 -126.5t48 -176t-48 -176.5t-128.5 -126.5t-178.5 -47zM381 27q137 0 232.5 95t95.5 228q0 134 -95.5 228.5t-232.5 94.5q-136 0 -232 -94.5t-96 -228.5
q0 -133 96 -228t232 -95zM381 65q-121 0 -206 82.5t-85 202.5t85 202.5t206 82.5t206 -82.5t85 -202.5t-85 -202.5t-206 -82.5zM381 92q111 0 188 74.5t77 183.5t-77 183.5t-188 74.5q-110 0 -187.5 -74.5t-77.5 -183.5t77.5 -183.5t187.5 -74.5zM381 129q-90 0 -158.5 59.5
t-68.5 161.5t68.5 161t158.5 59t159 -58q32 -29 50.5 -70t18.5 -92t-18.5 -92t-50.5 -70q-69 -59 -159 -59zM381 156q81 0 141.5 52.5t60.5 141.5t-60.5 141.5t-141.5 52.5t-141 -52.5t-60 -141.5t60 -141.5t141 -52.5z" />
    <glyph glyph-name="P" unicode="P" horiz-adv-x="630" 
d="M209 0h-88v674h-35v-674h-26v700h87v-674h35v179h109q143 0 219 69q70 69 70 168t-66 165q-74 67 -223 67h-82v-31h89q131 0 192 -59q53 -53 53 -145q0 -91 -56 -144q-62 -60 -189 -60h-116v351h109q93 0 141 -37q47 -39 47 -107q0 -67 -47 -110q-48 -40 -141 -40h-47v27
h47q162 0 162 123q0 59 -37 87q-36 31 -125 31h-82v-298h89q117 0 171 52q48 50 48 125q0 82 -45 126q-52 52 -174 52h-116v83h109q159 0 240 -74q75 -69 75 -184q0 -109 -79 -187q-82 -76 -236 -76h-82v-179z" />
    <glyph glyph-name="Q" unicode="Q" 
d="M660 -37l-86 86q-83 -49 -184 -49q-100 0 -182.5 47.5t-131.5 127t-49 175.5q0 97 49 176t131.5 126.5t182.5 47.5t182.5 -47.5t131.5 -126.5t49 -176q0 -118 -74 -210l80 -79l-59 -58l-126 125q-83 -61 -184 -61q-77 0 -145 36t-110.5 100t-42.5 147q0 84 41.5 148
t109.5 100.5t147 36.5q80 0 147.5 -37.5t109 -101.5t41.5 -146q0 -62 -25 -114.5t-68 -90.5l105 -105l21 21l-76 77l7 9q75 88 75 203q0 134 -98.5 229t-238.5 95q-139 0 -238 -95t-99 -229t99 -229t238 -95q105 0 189 56q91 -91 100 -101zM390 93q90 0 166 54l-114 114
l-21 -22l84 -84l-18 -7q-46 -18 -97 -18q-91 0 -163 58q-70 60 -70 162t70 162q72 58 163 58q92 0 163 -58q70 -60 70 -162q0 -76 -40 -129l-9 -13l-111 111l19 19q9 -10 88 -89q27 43 27 101q0 89 -61.5 141.5t-145.5 52.5t-145.5 -52.5t-61.5 -141.5t61.5 -141.5
t145.5 -52.5q35 0 67 10l-73 73q6 7 58 59l134 -134q40 34 63 82t23 104q0 74 -37.5 132.5t-99.5 92.5t-135 34t-135 -33t-99.5 -91.5t-37.5 -134.5t38.5 -134t101 -90.5t132.5 -32.5z" />
    <glyph glyph-name="R" unicode="R" horiz-adv-x="702" 
d="M658 0h-33l-181 232q73 30 108.5 79t35.5 131q0 104 -72 168t-215 64h-82v-28q96 0 156 -8.5t108 -45.5q68 -57 68 -150q0 -157 -163 -194l193 -248h-110l-144 184h-108v-184h-88v674h-35v-674h-26v700h88v-674h35v184q108 0 146 1l144 -185h44l-168 216q-27 -4 -59 -4
h-107v354h108q96 0 142 -41t46 -109t-46 -109t-142 -41h-47v27q68 0 106 5.5t65 27.5q38 32 38 90t-39 90.5t-123 32.5h-82v-301h81q118 0 171.5 48.5t53.5 129.5q0 83 -59.5 130t-179.5 47h-93v81h108q107 0 176 -34t103 -92t34 -132q0 -72 -32 -129t-97 -91z" />
    <glyph glyph-name="S" unicode="S" horiz-adv-x="629" 
d="M305 -3q-150 0 -276 77l13 23q118 -73 263 -73q128 0 191 45.5t63 124.5q0 57 -34.5 93.5t-94.5 60.5l-181 68q-42 16 -64 35t-22 51q0 44 43.5 67t104.5 23q120 0 190 -48l11 23q-37 21 -86.5 36t-123.5 15q-79 0 -126.5 -30.5t-47.5 -83.5q0 -66 55 -95q23 -13 46 -21
l186 -71q107 -47 107 -131q0 -48 -31.5 -78t-84 -44t-114.5 -14q-59 0 -111.5 17.5t-84.5 35.5l-33 17l-9 6l35 77l13 -10l25 -16q26 -16 68 -32t91 -16q77 0 112 16t35 41q0 21 -15.5 32.5t-47.5 23.5l-176 63q-40 15 -74.5 39.5t-56.5 61t-22 86.5q0 54 29 101t87 75.5
t145 28.5q81 0 147 -20t108 -45l11 -6l-13 -23q-112 68 -253 68q-113 0 -173.5 -52t-60.5 -127q0 -113 135 -162l176 -64q33 -12 57 -28.5t24 -51.5q0 -41 -46 -62t-128 -21q-43 0 -80.5 11.5t-65 25t-41.5 23.5l-12 -27q13 -7 43.5 -21t73 -26.5t88.5 -12.5
q95 0 149.5 28.5t54.5 81.5q0 69 -91 107l-177 68q-35 13 -57 24q-69 37 -69 119q0 47 27.5 78.5t73.5 47t99 15.5q89 0 144.5 -20t99.5 -47l-34 -75l-13 11l-21 13q-22 13 -63.5 25.5t-103.5 12.5q-55 0 -88.5 -17t-33.5 -46q0 -22 16 -34.5t54 -26.5l181 -69
q62 -25 103.5 -66.5t41.5 -111.5q0 -92 -71.5 -144.5t-208.5 -52.5z" />
    <glyph glyph-name="T" unicode="T" horiz-adv-x="598" 
d="M377 0h-88v619h-201v27h464v28h-499v-83h202v-591h-27v565h-201v135h551v-81h-262v-593h35v565h227v-26h-201v-565z" />
    <glyph glyph-name="U" unicode="U" horiz-adv-x="678" 
d="M349 0q-129 0 -206 67q-83 74 -83 219v414h26v-414q0 -133 75 -199q73 -61 188 -61q114 0 188 61q74 65 74 199v388h-35v-388q0 -117 -66 -173q-60 -53 -161 -53q-102 0 -162 53q-66 59 -66 173v414h88v-414q0 -139 140 -139q65 0 102.5 33.5t37.5 105.5v414h26v-414
q0 -84 -47 -126q-48 -39 -119 -39q-72 0 -120 38q-46 42 -46 127v388h-35v-388q0 -103 57 -153q56 -46 144 -46q89 0 144 46q57 51 57 153v414h87v-414q0 -148 -83 -219q-75 -67 -205 -67z" />
    <glyph glyph-name="V" unicode="V" horiz-adv-x="783" 
d="M463 0h-144l-277 700h28l267 -674h108l257 648h-41l-246 -626h-48l-258 652h96l184 -476l185 476h28l-213 -548l-202 522h-39l237 -600h13l245 626h97z" />
    <glyph glyph-name="W" unicode="W" horiz-adv-x="1272" 
d="M963 0h-144l-173 467l-173 -467h-144l-277 700h28l267 -674h108l191 517l191 -517h108l257 648h-41l-239 -612h-62l-196 538h-35l-196 -538h-63l-251 638h96l184 -475l174 475h143l174 -475l183 475h29l-213 -549l-192 523h-106l-191 -523l-203 523h-39l230 -586h26
l196 538h72l196 -538h26l239 612h97z" />
    <glyph glyph-name="X" unicode="X" horiz-adv-x="744" 
d="M707 0h-101l-237 330l-209 -304h41l171 255q182 -260 196 -281h-32l-164 234l-156 -234h-106l243 353l-230 321h-36l228 -317l-247 -357h-31l245 356l-246 344h100l232 -324l205 298h-32l-167 -246l-203 272h33l169 -227l154 227h96l-238 -347l234 -327h38l-229 330
l226 344h32q-14 -20 -226 -344z" />
    <glyph glyph-name="Y" unicode="Y" horiz-adv-x="742" 
d="M450 0h-88v286l-245 388h-33l243 -380v-294h-26v286l-265 414h95l244 -386l228 360h-33l-195 -290l-212 316h32l180 -269l181 269h95l-262 -414v-260h35v268l260 406h31l-265 -414v-286z" />
    <glyph glyph-name="Z" unicode="Z" horiz-adv-x="600" 
d="M575 0h-548v113l332 452h-326v81h446v-65l-345 -469v-31h415v29h-374l360 487v77h-502v26h528v-111l-334 -453h348v-81h-468v65l346 470v29h-393v-28h351l-358 -487v-78h522v-26z" />
    <glyph glyph-name="bracketleft" unicode="[" horiz-adv-x="334" 
d="M298 -145h-243v948h243v-81h-160v-787h134v28h-103v731h129v-26h-103v-678h103v-81h-186v839h160v28h-191v-895h217v-26z" />
    <glyph glyph-name="backslash" unicode="\" horiz-adv-x="536" 
d="M531 0h-91l-363 674h-31l362 -674h-30q-3 7 -376 700h91l362 -674h32q-352 655 -363 674h30z" />
    <glyph glyph-name="bracketright" unicode="]" horiz-adv-x="334" 
d="M298 -145h-243v26h217v895h-191v-28h160v-839h-186v81h103v678h-103v26h130v-731h-104v-28h134v787h-160v81h243v-948z" />
    <glyph glyph-name="asciicircum" unicode="^" horiz-adv-x="361" 
d="M343 717h-75l-71 199h-17l-63 -177h27l34 137h21l39 -159h-22l-27 110l-27 -110h-76l79 221h48l71 -199h27l-98 242h-48l-107 -264h-24l116 286h78z" />
    <glyph glyph-name="underscore" unicode="_" horiz-adv-x="682" 
d="M643 -126h-624v27h597v21h-597v75h624v-26h-598v-22h598v-75z" />
    <glyph glyph-name="grave" unicode="`" horiz-adv-x="191" 
d="M178 721h-76l-66 140h-26l74 -140h-30q-3 7 -88 166h87l66 -140h20l-57 140h28l4 -8z" />
    <glyph glyph-name="a" unicode="a" horiz-adv-x="799" 
d="M757 0h-97l-252 626h-16l-242 -600h39l71 176h277l81 -202h-28l-71 176h-241l-71 -176h-96l263 652h52l251 -626h41l-260 648h-115l-271 -674h-28l281 700h151zM524 234h-251l10 26h202l-87 217l-63 -159h87l10 -26h-136l102 255z" />
    <glyph glyph-name="b" unicode="b" horiz-adv-x="698" 
d="M372 -1h-251v648h215q210 0 211 -155q0 -95 -81 -138q17 -6 44.5 -22.5t50 -45.5t22.5 -76q0 -70 -56 -113.5t-155 -43.5h-189v258h189q74 0 109.5 -27t35.5 -74q0 -102 -145 -102h-128v28h128q57 0 87 17t30 57q0 39 -30 56t-87 17h-161v-202h161q87 0 135 35.5t48 93.5
q0 56 -51 92q-34 24 -79 36h-242v254h153q74 0 109.5 -26.5t35.5 -73.5q0 -100 -145 -100h-92v28h92q58 0 87.5 16.5t29.5 55.5t-29.5 55.5t-87.5 16.5h-125v-198h214q7 1 23 10q71 40 71 116q0 127 -177 127h-193v-592h223q115 0 182.5 44.5t67.5 138.5q0 41 -18 69
t-40.5 45.5t-37.5 24.5l-22 11l21 13q20 13 40.5 47t20.5 72q0 93 -66.5 137t-183.5 44h-248v-674h-28v702h276q131 0 204.5 -52.5t73.5 -156.5q0 -42 -18.5 -76t-40.5 -53q19 -11 41 -31t38 -50.5t16 -71.5q0 -103 -74 -157t-204 -54z" />
    <glyph glyph-name="c" unicode="c" horiz-adv-x="700" 
d="M398 0q-102 0 -186.5 47t-134.5 126.5t-50 176.5t50 176.5t134.5 126.5t186.5 47q87 0 153.5 -33t120.5 -89l-62 -61q-42 43 -93 67.5t-119 24.5q-116 0 -197 -75.5t-81 -183.5t81 -184.5t197 -76.5q113 0 192 77l-25 24q-71 -60 -167 -60q-60 0 -114.5 25.5t-89 74.5
t-34.5 120t34.5 120t89 74.5t114.5 25.5q61 0 105 -19.5t82 -57.5l-19 -19q-33 34 -72.5 52t-95.5 18q-89 0 -150.5 -53t-61.5 -141t61.5 -141t150.5 -53q56 0 95.5 18t72.5 52l61 -59q-89 -105 -229 -105q-126 0 -215 84.5t-89 203.5t89 202t215 83q62 0 115.5 -22
t95.5 -60l25 24q-102 97 -236 97q-143 0 -244 -95t-101 -229t101 -229t244 -95q154 0 252 117l20 -17q-106 -126 -272 -126z" />
    <glyph glyph-name="d" unicode="d" horiz-adv-x="711" 
d="M309 0h-188v646h188q132 0 221 -76.5t89 -219.5q0 -142 -89 -219t-221 -77h-127v538h127q105 0 176 -61.5t71 -180.5q0 -118 -70 -181q-72 -60 -177 -60h-65v26h65q99 0 160 54.5t61 160.5q0 105 -61.5 160t-159.5 55h-100v-484h100q125 0 204 69.5t79 199.5t-79 200
t-204 70h-162v-594h162q146 0 246 86t100 238t-100 238t-246 86h-223v-674h-26v700h249q153 0 263 -91q51 -45 80 -110.5t29 -148.5t-29 -148.5t-80 -110.5q-110 -91 -263 -91z" />
    <glyph glyph-name="e" unicode="e" horiz-adv-x="624" 
d="M595 0h-474v646h430v28h-465v-674h-26v700h517v-80h-430v-594h422v28h-387v27h387v28h-387v200h307v28h-307v26h307v28h-307v201h395v-27h-368v-148h306v-134h-306v-148h386v-135z" />
    <glyph glyph-name="f" unicode="f" horiz-adv-x="616" 
d="M209 0h-88v646h430v28h-465v-674h-26v700h517v-80h-430v-594h35v248h307v28h-307v26h307v28h-307v236h395v-27h-368v-183h306v-134h-306v-248z" />
    <glyph glyph-name="g" unicode="g" horiz-adv-x="720" 
d="M399 0q-102 0 -186.5 47t-135 126.5t-50.5 176.5t50.5 176.5t135 126.5t186.5 47q80 0 147 -31t118 -82l9 -9l-62 -61q-42 43 -93 67.5t-119 24.5q-115 0 -197 -72.5t-82 -186.5t82 -186.5t197 -72.5q117 0 181 67l2 149h-170v-26h133v-109q-67 -42 -146 -42
q-60 0 -115 25.5t-89.5 74.5t-34.5 120t34.5 120t89.5 74.5t115 25.5t104.5 -19.5t82.5 -57.5l-19 -19q-33 34 -72.5 52t-95.5 18q-88 0 -150.5 -52.5t-62.5 -141.5q0 -88 62.5 -141t150.5 -53q66 0 120 31v67h-133v79l223 1l-3 -187q-70 -82 -207 -82q-83 0 -152.5 36.5
t-111.5 101t-42 147.5t42 147.5t111.5 101t152.5 36.5q124 0 212 -82l24 24q-103 97 -236 97q-144 0 -245 -95t-101 -229q0 -133 101 -228.5t245 -95.5q73 0 137 28.5t105 75.5v230h-255v26h282v-266q-46 -55 -116 -87.5t-153 -32.5z" />
    <glyph glyph-name="h" unicode="h" horiz-adv-x="696" 
d="M636 0h-26v674h-35v-674h-87v283h-280v-283h-88v674h-35v-674h-26v700h87v-674h35v283h333v-283h35v674h87v-700zM514 391h-333v309h27v-283h280v283h26v-309zM514 337h-333v26h333v-26z" />
    <glyph glyph-name="i" unicode="i" horiz-adv-x="269" 
d="M209 0h-88v674h-35v-674h-26v700h87v-674h36v674h26v-700z" />
    <glyph glyph-name="j" unicode="j" horiz-adv-x="540" 
d="M240 0q-94 0 -170 57q-32 25 -67 63l19 17l9 -10q89 -101 209 -101q114 0 171 68q50 58 50 153v427h-269v-28h234v-399q0 -80 -51.5 -135t-133.5 -55q-44 0 -78.5 15t-61 36.5t-46.5 43.5l-10 9q19 17 36 36l27 26l9 -11q16 -22 49.5 -46.5t73.5 -24.5q36 0 63 21
q35 25 35 85v318h-173v27h200v-345q0 -71 -46 -106q-36 -27 -79 -27q-75 0 -134 71l-24 -24q28 -30 66 -54t93 -24q72 0 115.5 46.5t43.5 117.5v372h-235v81h322v-453q0 -104 -56 -171q-65 -76 -191 -76z" />
    <glyph glyph-name="k" unicode="k" horiz-adv-x="702" 
d="M511 0h-34l-218 262l-50 -60v-202h-88v674h-35v-674h-26v700h88v-674h35v185l76 92zM662 0h-109l-292 350l-78 -94v41l313 377h-38l-275 -332v358h26v-285l237 285h106l-274 -329l287 -345h41l-289 347l273 327h34l-272 -327z" />
    <glyph glyph-name="l" unicode="l" horiz-adv-x="625" 
d="M594 0h-535v700h87v-620h422v29h-386v591h26v-565h386v-81h-474v620h-35v-648h509v-26z" />
    <glyph glyph-name="m" unicode="m" horiz-adv-x="864" 
d="M742 54h-26v620h-40l-244 -519l-223 473v-80l205 -435h36l231 490v-61l-215 -455h-69l-215 455v158h22l228 -483l228 483h82v-646zM804 0h-149v344l-162 -344h-122l-162 344v-344h-88v674h-35v-674h-26v700h87v-674h35v435l206 -435h88l205 435v-435h96v674h27v-700z" />
    <glyph glyph-name="n" unicode="n" horiz-adv-x="696" 
d="M636 0h-142l-286 423v-423h-88v646h44l360 -533h25v561h-35v-482l-326 482h-103v-674h-26v700h143l286 -422v422h87v-613h-65l-360 532h-4v-593h36v483l326 -483h102v674h26v-700z" />
    <glyph glyph-name="o" unicode="o" horiz-adv-x="763" 
d="M381 0q-97 0 -177.5 47t-128.5 126.5t-48 176.5t48 176t128.5 126.5t177.5 47.5q98 0 178.5 -47.5t128.5 -126.5t48 -176t-48 -176.5t-128.5 -126.5t-178.5 -47zM381 27q137 0 232.5 95t95.5 228q0 134 -95.5 228.5t-232.5 94.5q-136 0 -232 -94.5t-96 -228.5
q0 -133 96 -228t232 -95zM381 65q-121 0 -206 82.5t-85 202.5t85 202.5t206 82.5t206 -82.5t85 -202.5t-85 -202.5t-206 -82.5zM381 92q111 0 188 74.5t77 183.5t-77 183.5t-188 74.5q-110 0 -187.5 -74.5t-77.5 -183.5t77.5 -183.5t187.5 -74.5zM381 129q-90 0 -158.5 59.5
t-68.5 161.5t68.5 161t158.5 59t159 -58q32 -29 50.5 -70t18.5 -92t-18.5 -92t-50.5 -70q-69 -59 -159 -59zM381 156q81 0 141.5 52.5t60.5 141.5t-60.5 141.5t-141.5 52.5t-141 -52.5t-60 -141.5t60 -141.5t141 -52.5z" />
    <glyph glyph-name="p" unicode="p" horiz-adv-x="630" 
d="M209 0h-88v674h-35v-674h-26v700h87v-674h35v179h109q143 0 219 69q70 69 70 168t-66 165q-74 67 -223 67h-82v-31h89q131 0 192 -59q53 -53 53 -145q0 -91 -56 -144q-62 -60 -189 -60h-116v351h109q93 0 141 -37q47 -39 47 -107q0 -67 -47 -110q-48 -40 -141 -40h-47v27
h47q162 0 162 123q0 59 -37 87q-36 31 -125 31h-82v-298h89q117 0 171 52q48 50 48 125q0 82 -45 126q-52 52 -174 52h-116v83h109q159 0 240 -74q75 -69 75 -184q0 -109 -79 -187q-82 -76 -236 -76h-82v-179z" />
    <glyph glyph-name="q" unicode="q" 
d="M660 -37l-86 86q-83 -49 -184 -49q-100 0 -182.5 47.5t-131.5 127t-49 175.5q0 97 49 176t131.5 126.5t182.5 47.5t182.5 -47.5t131.5 -126.5t49 -176q0 -118 -74 -210l80 -79l-59 -58l-126 125q-83 -61 -184 -61q-77 0 -145 36t-110.5 100t-42.5 147q0 84 41.5 148
t109.5 100.5t147 36.5q80 0 147.5 -37.5t109 -101.5t41.5 -146q0 -62 -25 -114.5t-68 -90.5l105 -105l21 21l-76 77l7 9q75 88 75 203q0 134 -98.5 229t-238.5 95q-139 0 -238 -95t-99 -229t99 -229t238 -95q105 0 189 56q91 -91 100 -101zM390 93q90 0 166 54l-114 114
l-21 -22l84 -84l-18 -7q-46 -18 -97 -18q-91 0 -163 58q-70 60 -70 162t70 162q72 58 163 58q92 0 163 -58q70 -60 70 -162q0 -76 -40 -129l-9 -13l-111 111l19 19q9 -10 88 -89q27 43 27 101q0 89 -61.5 141.5t-145.5 52.5t-145.5 -52.5t-61.5 -141.5t61.5 -141.5
t145.5 -52.5q35 0 67 10l-73 73q6 7 58 59l134 -134q40 34 63 82t23 104q0 74 -37.5 132.5t-99.5 92.5t-135 34t-135 -33t-99.5 -91.5t-37.5 -134.5t38.5 -134t101 -90.5t132.5 -32.5z" />
    <glyph glyph-name="r" unicode="r" horiz-adv-x="702" 
d="M658 0h-33l-181 232q73 30 108.5 79t35.5 131q0 104 -72 168t-215 64h-82v-28q96 0 156 -8.5t108 -45.5q68 -57 68 -150q0 -157 -163 -194l193 -248h-110l-144 184h-108v-184h-88v674h-35v-674h-26v700h88v-674h35v184q108 0 146 1l144 -185h44l-168 216q-27 -4 -59 -4
h-107v354h108q96 0 142 -41t46 -109t-46 -109t-142 -41h-47v27q68 0 106 5.5t65 27.5q38 32 38 90t-39 90.5t-123 32.5h-82v-301h81q118 0 171.5 48.5t53.5 129.5q0 83 -59.5 130t-179.5 47h-93v81h108q107 0 176 -34t103 -92t34 -132q0 -72 -32 -129t-97 -91z" />
    <glyph glyph-name="s" unicode="s" horiz-adv-x="629" 
d="M305 -3q-150 0 -276 77l13 23q118 -73 263 -73q128 0 191 45.5t63 124.5q0 57 -34.5 93.5t-94.5 60.5l-181 68q-42 16 -64 35t-22 51q0 44 43.5 67t104.5 23q120 0 190 -48l11 23q-37 21 -86.5 36t-123.5 15q-79 0 -126.5 -30.5t-47.5 -83.5q0 -66 55 -95q23 -13 46 -21
l186 -71q107 -47 107 -131q0 -48 -31.5 -78t-84 -44t-114.5 -14q-59 0 -111.5 17.5t-84.5 35.5l-33 17l-9 6l35 77l13 -10l25 -16q26 -16 68 -32t91 -16q77 0 112 16t35 41q0 21 -15.5 32.5t-47.5 23.5l-176 63q-40 15 -74.5 39.5t-56.5 61t-22 86.5q0 54 29 101t87 75.5
t145 28.5q81 0 147 -20t108 -45l11 -6l-13 -23q-112 68 -253 68q-113 0 -173.5 -52t-60.5 -127q0 -113 135 -162l176 -64q33 -12 57 -28.5t24 -51.5q0 -41 -46 -62t-128 -21q-43 0 -80.5 11.5t-65 25t-41.5 23.5l-12 -27q13 -7 43.5 -21t73 -26.5t88.5 -12.5
q95 0 149.5 28.5t54.5 81.5q0 69 -91 107l-177 68q-35 13 -57 24q-69 37 -69 119q0 47 27.5 78.5t73.5 47t99 15.5q89 0 144.5 -20t99.5 -47l-34 -75l-13 11l-21 13q-22 13 -63.5 25.5t-103.5 12.5q-55 0 -88.5 -17t-33.5 -46q0 -22 16 -34.5t54 -26.5l181 -69
q62 -25 103.5 -66.5t41.5 -111.5q0 -92 -71.5 -144.5t-208.5 -52.5z" />
    <glyph glyph-name="t" unicode="t" horiz-adv-x="598" 
d="M377 0h-88v619h-201v27h464v28h-499v-83h202v-591h-27v565h-201v135h551v-81h-262v-593h35v565h227v-26h-201v-565z" />
    <glyph glyph-name="u" unicode="u" horiz-adv-x="678" 
d="M349 0q-129 0 -206 67q-83 74 -83 219v414h26v-414q0 -133 75 -199q73 -61 188 -61q114 0 188 61q74 65 74 199v388h-35v-388q0 -117 -66 -173q-60 -53 -161 -53q-102 0 -162 53q-66 59 -66 173v414h88v-414q0 -139 140 -139q65 0 102.5 33.5t37.5 105.5v414h26v-414
q0 -84 -47 -126q-48 -39 -119 -39q-72 0 -120 38q-46 42 -46 127v388h-35v-388q0 -103 57 -153q56 -46 144 -46q89 0 144 46q57 51 57 153v414h87v-414q0 -148 -83 -219q-75 -67 -205 -67z" />
    <glyph glyph-name="v" unicode="v" horiz-adv-x="783" 
d="M463 0h-144l-277 700h28l267 -674h108l257 648h-41l-246 -626h-48l-258 652h96l184 -476l185 476h28l-213 -548l-202 522h-39l237 -600h13l245 626h97z" />
    <glyph glyph-name="w" unicode="w" horiz-adv-x="1272" 
d="M963 0h-144l-173 467l-173 -467h-144l-277 700h28l267 -674h108l191 517l191 -517h108l257 648h-41l-239 -612h-62l-196 538h-35l-196 -538h-63l-251 638h96l184 -475l174 475h143l174 -475l183 475h29l-213 -549l-192 523h-106l-191 -523l-203 523h-39l230 -586h26
l196 538h72l196 -538h26l239 612h97z" />
    <glyph glyph-name="x" unicode="x" horiz-adv-x="744" 
d="M707 0h-101l-237 330l-209 -304h41l171 255q182 -260 196 -281h-32l-164 234l-156 -234h-106l243 353l-230 321h-36l228 -317l-247 -357h-31l245 356l-246 344h100l232 -324l205 298h-32l-167 -246l-203 272h33l169 -227l154 227h96l-238 -347l234 -327h38l-229 330
l226 344h32q-14 -20 -226 -344z" />
    <glyph glyph-name="y" unicode="y" horiz-adv-x="742" 
d="M450 0h-88v286l-245 388h-33l243 -380v-294h-26v286l-265 414h95l244 -386l228 360h-33l-195 -290l-212 316h32l180 -269l181 269h95l-262 -414v-260h35v268l260 406h31l-265 -414v-286z" />
    <glyph glyph-name="z" unicode="z" horiz-adv-x="600" 
d="M575 0h-548v113l332 452h-326v81h446v-65l-345 -469v-31h415v29h-374l360 487v77h-502v26h528v-111l-334 -453h348v-81h-468v65l346 470v29h-393v-28h351l-358 -487v-78h522v-26z" />
    <glyph glyph-name="braceleft" unicode="{" horiz-adv-x="429" 
d="M404 -117q-102 0 -159 19t-79.5 59t-22.5 104v140q0 38 -25 57.5t-87 19.5v149q61 0 86.5 19t25.5 59v140q0 64 23 104t79.5 59t158.5 19v-81h-48q-71 0 -102 -33t-31 -83v-136q0 -44 -27 -82.5t-65 -58.5q38 -20 65 -58.5t27 -82.5v-136q0 -50 31 -83.5t102 -33.5h22v29
q-127 2 -127 104v109q0 63 -20 101t-54 38v26q34 0 54 33.5t20 80.5v134q0 59 37 81.5t116 22.5v-26q-66 0 -96.5 -15.5t-30.5 -62.5v-134q0 -40 -14 -74.5t-42 -53.5q28 -20 42 -60.5t14 -90.5v-109q0 -46 29.5 -62t97.5 -16v-81h-48q-84 0 -121.5 42t-37.5 101v136
q-3 50 -40 89t-78 39v26q41 0 78 39t40 89v136q0 59 37.5 100.5t121.5 41.5h22v28q-84 -1 -129.5 -18.5t-62.5 -51t-17 -85.5v-140q0 -41 -26 -70t-86 -33v-98q60 -5 86 -33.5t26 -69.5v-140q0 -88 48.5 -122t186.5 -34v-26z" />
    <glyph glyph-name="bar" unicode="|" horiz-adv-x="261" 
d="M197 -103h-83l2 909h-31l-2 -909h-26l2 935h83l-2 -909h31l2 909h26z" />
    <glyph glyph-name="braceright" unicode="}" horiz-adv-x="429" 
d="M31 -117v26q138 0 186.5 34t48.5 122v140q0 41 26.5 69.5t85.5 33.5v98q-59 4 -85.5 33t-26.5 70v140q0 52 -17 85.5t-62.5 51t-129.5 18.5v-28h22q84 0 121.5 -41.5t37.5 -100.5v-136q0 -48 39 -88t79 -40v-26q-40 0 -79 -40t-39 -88v-136q0 -59 -37.5 -101t-121.5 -42
h-48v81q68 0 97.5 16t29.5 62v109q0 50 14 90.5t42 60.5q-28 19 -42 53.5t-14 74.5v134q0 47 -30.5 62.5t-96.5 15.5v26q79 0 116 -22.5t37 -81.5v-134q0 -47 20 -80.5t53 -33.5v-26q-33 0 -53 -38t-20 -101v-109q0 -102 -127 -104v-29h22q71 0 102 33.5t31 83.5v136
q0 44 27 82.5t65 58.5q-38 20 -65 58.5t-27 82.5v136q0 50 -31 83t-102 33h-48v81q102 0 159 -19t79.5 -59t22.5 -104v-140q0 -40 25.5 -59t86.5 -19v-149q-63 0 -87.5 -19.5t-24.5 -57.5v-140q0 -64 -22.5 -104t-79 -59t-159.5 -19z" />
    <glyph glyph-name="asciitilde" unicode="~" horiz-adv-x="513" 
d="M333 721h-4q-34 0 -62 10.5t-48 20.5q-45 21 -60 21q-7 0 -16.5 -4.5t-34.5 -35.5l-20 16q12 18 22 28q23 22 49 22q15 0 32 -6.5t38.5 -17t45.5 -19.5t53 -9q59 0 115 60l-17 14q-46 -52 -96 -52q-23 0 -43.5 7.5t-38.5 15.5q-5 3 -12 5.5t-15 6.5q-46 19 -61 19
q-26 0 -45 -15q-25 -20 -45 -44l-57 46q33 42 68.5 63.5t78.5 21.5q32 0 58 -9t46 -20q45 -22 64 -22q12 0 19 4q13 7 39 39l20 -16q-27 -35 -44.5 -44.5t-31.5 -9.5q-30 0 -71 22l-9 4q-19 10 -41 18t-49 8q-54 0 -109 -56l17 -13q16 18 37.5 33.5t53.5 15.5q20 0 39 -7
t36 -15l29 -12q44 -20 67 -20t44 15t50 47l57 -47q-66 -87 -148 -89z" />
    <glyph glyph-name="exclamdown" unicode="&#xa1;" horiz-adv-x="272" 
d="M136 552q-32 0 -55.5 21.5t-23.5 52.5q0 32 23.5 53t55.5 21t55.5 -21t23.5 -53q0 -31 -23.5 -52.5t-55.5 -21.5zM136 578q23 0 37.5 14.5t14.5 33.5q0 20 -14.5 34t-37.5 14q-22 0 -37.5 -14t-15.5 -34q0 -19 15.5 -33.5t37.5 -14.5zM136 604q-9 0 -16 6t-7 16t7 16
t16 6t16 -6t7 -16t-7 -16t-16 -6zM80 0l-26 1l20 524h75v-498h41l-19 498h26l21 -524h-95v497h-24z" />
    <glyph glyph-name="cent" unicode="&#xa2;" horiz-adv-x="558" 
d="M347 -6h-50v121q-51 6 -95 30q-57 32 -91 85.5t-34 119.5t34 119.5t91 85.5q44 25 96 30v118h51v-117q92 -7 164 -82l-42 -41q-62 62 -143 62q-78 0 -133 -50.5t-55 -124.5q0 -73 55 -124.5t133 -51.5q75 0 130 52l-17 16q-48 -41 -113 -41q-40 0 -77 17.5t-60.5 50.5
t-23.5 81t23.5 81t60.5 50.5t77 17.5q41 0 70.5 -13t55.5 -39l-13 -13q-22 23 -48.5 35t-64.5 12q-60 0 -102 -35.5t-42 -95.5t42 -95.5t102 -35.5q38 0 64.5 12t48.5 35l42 -40q-64 -71 -155 -71q-85 0 -145.5 58t-60.5 137q0 81 60.5 137t145.5 56q42 0 78.5 -15t63.5 -41
l17 17q-71 65 -159 65q-97 0 -165 -63.5t-68 -155.5q0 -90 68 -154.5t165 -64.5q104 0 170 79l14 -11q-33 -39 -79 -62q-38 -20 -86 -23v-120zM329 11v103h-15v-103h15zM316 586l14 1v98h-14v-99z" />
    <glyph glyph-name="sterling" unicode="&#xa3;" horiz-adv-x="701" 
d="M638 0h-551v126l8 8q17 15 28.5 31t11.5 42v99h-109v26h109v118q0 113 74.5 181.5t200.5 68.5q82 0 142.5 -20t113.5 -52l-33 -74l-13 9l-26 14q-26 15 -72 29t-106 14q-91 0 -141.5 -46.5t-50.5 -123.5v-231q0 -58 -49 -104v-35h437v27h-415q12 12 25 23.5t24 32.5
t11 68v211q0 69 47 110t123 41q53 0 95 -14t67 -29l24 -14l9 -6l-11 -25l-13 9l-23 13q-22 14 -61 27t-87 13q-69 0 -106 -31.5t-37 -93.5v-110h156v-26h-156v-75q0 -60 -27 -98h381v-79h-490v72l5 4q45 40 45 89v231q0 86 59 142q60 54 159 54q77 0 130.5 -19.5t74.5 -33.5
l11 24q-99 57 -222 57q-118 0 -184 -62q-65 -58 -65 -162v-243q0 -34 -15 -55t-33 -37v-89h525v-26z" />
    <glyph glyph-name="currency" unicode="&#xa4;" horiz-adv-x="476" 
 />
    <glyph glyph-name="yen" unicode="&#xa5;" horiz-adv-x="637" 
d="M382 0h-74v286l-209 388h-28l207 -380v-294h-22v286l-6 11l-143 1v27l128 -1l-11 21l-117 1v75l76 -1l-152 280h81l207 -386l194 360h-29l-165 -290l-180 316h27l153 -269l154 269h80l-223 -414v-260h30v268l221 406h27l-153 -280l95 1v-26l-109 -1l-12 -22l121 1v-75
l-162 -1l-6 -11v-286zM209 372l-12 22l-64 1v-22zM403 324l120 1v21l-109 -1z" />
    <glyph glyph-name="brokenbar" unicode="&#xa6;" horiz-adv-x="313" 
 />
    <glyph glyph-name="section" unicode="&#xa7;" horiz-adv-x="557" 
 />
    <glyph glyph-name="dieresis" unicode="&#xa8;" horiz-adv-x="400" 
d="M121 762q-28 0 -49.5 19.5t-21.5 47.5q0 29 21.5 48.5t49.5 19.5q29 0 50.5 -19.5t21.5 -48.5q0 -28 -21.5 -47.5t-50.5 -19.5zM278 762q-29 0 -50.5 19.5t-21.5 47.5q0 29 21.5 48.5t50.5 19.5t50 -19.5t21 -48.5q0 -28 -21 -47.5t-50 -19.5zM121 788q20 0 32.5 12.5
t12.5 28.5q0 17 -12.5 29.5t-32.5 12.5q-19 0 -32 -12.5t-13 -29.5q0 -16 13 -28.5t32 -12.5zM278 788q19 0 32 12.5t13 28.5q0 17 -13 29.5t-32 12.5t-32 -12.5t-13 -29.5q0 -16 13 -28.5t32 -12.5zM121 809q-8 0 -15 5.5t-7 14.5q0 10 7 15.5t15 5.5t15 -5.5t7 -15.5
q0 -9 -7 -14.5t-15 -5.5zM278 809q-8 0 -15 5.5t-7 14.5q0 10 7 15.5t15 5.5t15 -5.5t7 -15.5q0 -9 -7 -14.5t-15 -5.5z" />
    <glyph glyph-name="copyright" unicode="&#xa9;" horiz-adv-x="809" 
d="M404 0q-100 0 -182.5 48.5t-131.5 130t-49 180.5t49 180.5t131.5 129.5t182.5 48t182.5 -48t131.5 -129.5t49 -180.5t-49 -180.5t-131.5 -130t-182.5 -48.5zM404 26q140 0 238.5 97.5t98.5 235.5q0 137 -98.5 234.5t-238.5 97.5q-139 0 -238 -97.5t-99 -234.5
q0 -138 99 -235.5t238 -97.5zM404 44q-131 0 -225 92.5t-94 222.5q0 131 94 223t225 92q132 0 225.5 -92t93.5 -223q0 -130 -93.5 -222.5t-225.5 -92.5zM404 70q122 0 207.5 84.5t85.5 204.5q0 119 -85.5 203.5t-207.5 84.5q-121 0 -206.5 -84.5t-85.5 -203.5
q0 -120 85.5 -204.5t206.5 -84.5zM420 117q-106 0 -180.5 71t-74.5 171t74.5 170.5t180.5 70.5q55 0 101 -21q53 -24 91 -66l-48 -47l-10 9q-54 55 -134 55q-76 0 -130 -50t-54 -121q0 -72 54 -122.5t130 -50.5q72 0 124 48l-11 11q-48 -40 -113 -40q-64 0 -114.5 41
t-50.5 113q0 71 50 113q51 40 115 40q71 0 123 -47l10 -9l-19 -19l-9 9q-43 40 -105 40q-57 0 -98 -33.5t-41 -93.5q0 -61 41 -94.5t98 -33.5q62 0 105 40l9 9l47 -45q-60 -75 -161 -75q-87 0 -148.5 58t-61.5 141t61.5 140t148.5 57q83 0 143 -54l11 11q-69 61 -154 61
q-95 0 -162 -63t-67 -152t67 -152.5t162 -63.5q50 0 92 20q46 22 78 61l20 -17q-72 -90 -190 -90z" />
    <glyph glyph-name="guillemotleft" unicode="&#xab;" horiz-adv-x="689" 
d="M654 175l-309 135v78l309 135v-71l-247 -103v-1l223 -92v17l-194 73v5l218 83v-26l-156 -59l156 -59v-71l-272 113v34l248 102v17l-261 -113v-46l285 -124v-27zM345 175q-18 7 -310 135v78l310 135v-71l-248 -103v-1l223 -92v17l-194 73v5l219 83v-26l-156 -59l156 -59
v-71l-272 113v34l247 102v17l-260 -113v-46l285 -124v-27z" />
    <glyph glyph-name="registered" unicode="&#xae;" horiz-adv-x="482" 
d="M241 313q-85 0 -145 59t-60 143t60 143t145 59q84 0 144.5 -59t60.5 -143t-60.5 -143t-144.5 -59zM241 335q75 0 128.5 53t53.5 127t-53.5 127t-128.5 53t-128.5 -53t-53.5 -127t53.5 -127t128.5 -53zM241 352q-69 0 -117.5 48t-48.5 115q0 68 48.5 115.5t117.5 47.5
t117.5 -47.5t48.5 -115.5q0 -67 -48.5 -115t-117.5 -48zM241 375q60 0 101.5 41t41.5 99q0 59 -41.5 99.5t-101.5 40.5t-101.5 -40.5t-41.5 -99.5q0 -58 41.5 -99t101.5 -41zM299 427h-22l-37 49l-19 -1v-48h-49v196h17v-179h14v49h46zM339 427h-22l-52 69q20 8 30 18.5
t10 34.5q0 25 -16.5 40.5t-52.5 15.5h-33v18h33q42 0 64 -20.5t22 -53.5q0 -37 -31 -59zM236 504h-33v90h33q54 0 54 -45q0 -20 -13.5 -32.5t-40.5 -12.5zM236 522q20 0 28 7t8 20q0 27 -36 28h-15v-55h15z" />
    <glyph glyph-name="plusminus" unicode="&#xb1;" horiz-adv-x="503" 
d="M318 199h-75v201h-175v-24h153v-177h-26v150h-153v77h201v158h-22v-133h-179v26h153v133h75v-184h175v25h-154v159h27v-133h153v-77h-201v-175h21v151h180v-27h-153v-150zM478 55h-443v26h416v22h-416v74h443v-26h-417v-22h417v-74z" />
    <glyph glyph-name="acute" unicode="&#xb4;" horiz-adv-x="234" 
d="M138 731h-30l74 140h-26l-66 -140h-76q64 158 68 166h28l-57 -140h20l66 140h87q-85 -159 -88 -166z" />
    <glyph glyph-name="cedilla" unicode="&#xb8;" horiz-adv-x="279" 
d="M143 -241h-141l15 27h126q51 0 78 31q24 31 24 76q0 21 -5 34q-14 37 -54 43l-14 4l8 22h-30l-9 -28q29 -1 52 -14q31 -20 31 -62q-3 -40 -34 -62t-81 -22h-79l43 75h67q4 0 6.5 3t2.5 7q0 8 -3 9t-99 1v31q28 79 32 88h27q-12 -37 -17.5 -51t-14.5 -41h64q17 0 27.5 -11
t10.5 -26q0 -14 -10 -25t-26 -11h-52l-13 -23h34q88 0 88 66q0 21 -18.5 32t-45.5 11l-28 -1l26 80h86l-11 -31q22 -6 40 -24q26 -24 26 -74q0 -52 -32 -93t-97 -41z" />
    <glyph glyph-name="guillemotright" unicode="&#xbb;" horiz-adv-x="689" 
d="M35 175v27l285 124v46l-260 113v-17l247 -102v-34l-272 -113v71l156 59l-156 59v26l218 -83v-5l-193 -73v-17l222 92v1l-247 103v71l310 -135v-78zM345 175v27l285 124v46l-261 113v-17l247 -102v-34l-271 -113v71l155 59l-155 59v26l218 -83v-5l-194 -73v-17l223 92v1
l-247 103v71l309 -135v-78z" />
    <glyph glyph-name="questiondown" unicode="&#xbf;" horiz-adv-x="561" 
d="M297 552q-32 0 -55.5 21.5t-23.5 52.5q0 32 23.5 53t55.5 21t55.5 -21t23.5 -53q0 -31 -23.5 -52.5t-55.5 -21.5zM297 578q22 0 37 14.5t15 33.5q0 20 -15 34t-37 14t-37.5 -14t-15.5 -34q0 -19 15.5 -33.5t37.5 -14.5zM297 604q-9 0 -16 6t-7 16t7 16t16 6t16 -6t7 -16
t-7 -16t-16 -6zM296 1q-126 0 -194.5 61.5t-68.5 142.5q0 60 30 107.5t68 84.5l28 29q21 21 37 40q26 32 26 54v13h88v-13q0 -40 -32 -83q-20 -25 -67 -72q-36 -35 -63 -73.5t-27 -86.5t49.5 -86t125.5 -38q51 0 90 10.5t64 22.5t35 19l-11 26q-77 -50 -178 -50
q-60 0 -100 25q-40 28 -40 71q0 47 29 86.5t64 75.5q47 49 69 79q27 37 27 74v13h26v-13q0 -46 -29 -85.5t-64 -75.5q-47 -49 -69 -79q-27 -37 -27 -75q0 -30 29.5 -50t84.5 -20q50 0 90 13.5t63 26.5l23 13l13 10l33 -74l-8 -6l-27 -16q-26 -15 -74 -31t-113 -16
q-84 0 -143 43.5t-59 106.5q0 38 15 70q23 50 84 109q46 46 64 69q20 27 25 54h-35q-7 -30 -31 -58q-20 -24 -46 -49l-20 -21q-36 -37 -63.5 -79.5t-27.5 -94.5q0 -69 59 -123q66 -55 178 -55q78 0 133.5 19.5t86.5 42.5l11 8l15 -21q-93 -75 -246 -75z" />
    <glyph glyph-name="Agrave" unicode="&#xc0;" horiz-adv-x="782" 
d="M464 761h-76l-66 140h-27l75 -140h-30l-88 166h87l65 -140h21l-57 140h28zM756 0h-97l-252 626h-16l-242 -600h39l71 176h277l81 -202h-28l-71 176h-241l-71 -176h-96l263 652h52l251 -626h41l-260 648h-115l-271 -674h-28l281 700h151zM523 234h-251l10 26h202l-87 217
l-63 -159h87l10 -26h-136l102 255z" />
    <glyph glyph-name="Aacute" unicode="&#xc1;" horiz-adv-x="780" 
d="M513 234h-251l10 26h202l-87 217l-63 -159h87l10 -26h-136l102 255zM746 0h-97l-252 626h-16l-242 -600h39l71 176h277l81 -202h-28l-71 176h-241l-71 -176h-96l263 652h52l251 -626h41l-260 648h-115l-271 -674h-28l281 700h151zM452 761h-30l75 140h-27l-65 -140h-76
l67 166h28l-56 -140h20l65 140h87z" />
    <glyph glyph-name="Acircumflex" unicode="&#xc2;" horiz-adv-x="778" 
d="M540 761h-78l-56 101h-38l-42 -75h19l42 67l59 -93h-31l-28 44l-28 -44h-78l71 128h70l56 -102h18l-60 114h-98q-71 -133 -74 -140h-30l88 167h130zM513 234h-251l10 26h202l-87 217l-63 -159h87l10 -26h-136l102 255zM746 0h-97l-252 626h-16l-242 -600h39l71 176h277
l81 -202h-28l-71 176h-241l-71 -176h-96l263 652h52l251 -626h41l-260 648h-115l-271 -674h-28l281 700h151z" />
    <glyph glyph-name="Atilde" unicode="&#xc3;" horiz-adv-x="778" 
d="M513 234h-251l10 26h202l-87 217l-63 -159h87l10 -26h-136l102 255zM746 0h-97l-252 626h-16l-242 -600h39l71 176h277l81 -202h-28l-71 176h-241l-71 -176h-96l263 652h52l251 -626h41l-260 648h-115l-271 -674h-28l281 700h151zM446 761h-3q-23 0 -41 9t-31 18
q-29 16 -35 16q-3 0 -7 -2t-22 -31l-23 13q17 30 28.5 38t23.5 8q11 0 22 -5.5t24.5 -14t28.5 -15.5t33 -7q39 0 71 45l-9 7q-8 -10 -20 -21q-16 -18 -42 -18q-23 0 -53 19l-20 11q-28 15 -35 15q-21 0 -46 -40l-10 -13l-41 44q44 73 98 73q23 0 40 -8.5t30 -17.5l3 -2
q26 -15 34 -15q4 0 8 3l1 1q6 4 24 33l22 -14l-17 -27q-17 -22 -38 -22t-42 16l-10 6q-13 8 -26.5 14.5t-29.5 6.5q-14 0 -31.5 -10.5t-33.5 -32.5l7 -7l5 6q4 7 11.5 14t18.5 12.5t24 5.5t24 -5.5t19.5 -10.5t13 -7.5t7.5 -3.5q26 -18 43 -18q24 0 59 55l42 -45
q-44 -73 -99 -76z" />
    <glyph glyph-name="Adieresis" unicode="&#xc4;" horiz-adv-x="780" 
d="M513 234h-251l10 26h202l-87 217l-63 -159h87l10 -26h-136l102 255zM746 0h-97l-252 626h-16l-242 -600h39l71 176h277l81 -202h-28l-71 176h-241l-71 -176h-96l263 652h52l251 -626h41l-260 648h-115l-271 -674h-28l281 700h151zM467 808q-8 0 -15 5.5t-7 15.5
q0 9 7 14.5t15 5.5q9 0 16 -5.5t7 -14.5q0 -10 -7 -15.5t-16 -5.5zM311 761q-29 0 -50 20t-21 48t21 47.5t50 19.5t50 -19.5t21 -47.5t-21 -48t-50 -20zM311 787q20 0 32.5 12.5t12.5 29.5t-12.5 29t-32.5 12q-19 0 -32 -12t-13 -29t13 -29.5t32 -12.5zM311 808
q-8 0 -15 5.5t-7 15.5q0 9 7 14.5t15 5.5t15 -5.5t7 -14.5q0 -10 -7 -15.5t-15 -5.5zM467 761q-28 0 -49.5 20t-21.5 48t21.5 47.5t49.5 19.5q29 0 50.5 -19.5t21.5 -47.5t-21.5 -48t-50.5 -20zM467 787q20 0 33 12.5t13 29.5t-13 29t-33 12q-19 0 -32 -12t-13 -29t13 -29.5
t32 -12.5z" />
    <glyph glyph-name="Aring" unicode="&#xc5;" horiz-adv-x="780" 
d="M746 0h-97l-252 626h-16l-242 -600h39l71 176h277l81 -202h-28l-71 176h-241l-71 -176h-96l263 652h52l251 -626h41l-260 648h-115l-271 -674h-28l281 700h151zM513 234h-251l10 26h202l-87 217l-63 -159h87l10 -26h-136l102 255zM389 765q-28 0 -48 20t-20 48
q0 29 20 48.5t48 19.5q29 0 49 -19.5t20 -48.5q0 -28 -20 -48t-49 -20zM389 791q18 0 30 12t12 30t-12 30t-30 12t-30 -12t-12 -30t12 -30t30 -12zM389 724q-44 0 -76 32t-32 77t32 76.5t76 31.5q45 0 77 -31.5t32 -76.5t-32 -77t-77 -32zM389 751q34 0 58.5 24t24.5 58
t-24.5 58t-58.5 24t-58 -24t-24 -58t24 -58t58 -24z" />
    <glyph glyph-name="AE" unicode="&#xc6;" horiz-adv-x="1124" 
d="M1054 0h-474v619h-72l-414 -593h35l123 176h293v-202h-26v176h-253l-123 -176h-99l450 646h516v28h-536l-470 -674h-32l488 700h576v-81h-429v-593h421v28h-386v26h386v28h-386v201h306v28h-306v26h306v28h-306v200h394v-26h-368v-148h306v-134h-306v-148h386v-135z
M545 234h-271l18 26h227v280l-154 -222h119v-26h-169l208 300h22v-358z" />
    <glyph glyph-name="OE" unicode="&#x152;" horiz-adv-x="1013" 
d="M971 0h-593q-97 0 -182 40t-137.5 118t-52.5 192q0 115 52.5 192.5t137.5 117.5t182 40h575v-81h-430v-538h421v28h-386v200h306v28h-306v26h306v28h-306v201h395v-27h-369v-148h307v-134h-307v-148h387v-135zM944 26v28h-560q-82 0 -153 34t-114.5 100t-43.5 162
q0 97 43.5 162.5t114.5 99.5t153 34h542v28h-548q-150 0 -248 -88t-98 -236t98 -236t248 -88h566zM497 81v538h-113q-124 0 -204.5 -73t-80.5 -196t80.5 -196t204.5 -73h113zM462 108l-84 1q-63 0 -117.5 29t-88 83.5t-33.5 128.5q0 75 33.5 129t88 83.5t117.5 29.5h84v-484
zM436 135v430h-58q-57 0 -105.5 -25.5t-78 -73.5t-29.5 -116t29.5 -116t78 -73.5t105.5 -25.5h58z" />
    <glyph glyph-name="Ccedilla" unicode="&#xc7;" horiz-adv-x="718" 
d="M423 -236h-141l15 26h126q56 0 78 31q25 31 25 77q0 63 -59 77l-15 3l8 22h-29l-9 -27q28 -1 51 -15q31 -20 31 -56v-5q-7 -84 -115 -84h-79l43 75h67q5 0 7.5 3t2.5 7q0 6 -2 7t-3.5 2t-96.5 1v30l23 67q-135 23 -223 119t-88 226q0 97 50 176.5t134.5 126.5t186.5 47
q80 0 147 -31t118 -82l9 -9l-62 -61q-90 92 -212 92q-116 0 -197 -75.5t-81 -183.5t81 -184.5t197 -76.5q113 0 192 77l-25 24q-71 -60 -167 -60q-94 0 -166 58q-33 29 -52.5 70t-19.5 92t19.5 92t52.5 70q72 58 166 58q102 0 177 -68l10 -9l-19 -19q-33 34 -72.5 52
t-95.5 18q-85 0 -148.5 -53t-63.5 -141t63.5 -141t148.5 -53q98 0 168 70l61 -59q-91 -105 -229 -105q-126 0 -215.5 84.5t-89.5 203.5t89.5 202t215.5 83q62 0 115.5 -22t95.5 -60l25 24q-102 97 -236 97q-143 0 -244 -95t-101 -229t101 -229t244 -95q74 0 138 30t105 77
l9 10l20 -17q-37 -43 -81 -72t-111 -45l-5 -14q22 -5 40 -23q26 -29 26 -74q0 -52 -31 -94q-33 -40 -98 -40zM389 -161q84 0 89 59q0 29 -19 39.5t-48 10.5l-26 -2l18 54l-25 1l-24 -67h64q17 0 27.5 -11t10.5 -25t-10 -25.5t-26 -11.5h-52l-13 -22h34z" />
    <glyph glyph-name="Egrave" unicode="&#xc8;" horiz-adv-x="637" 
d="M595 0h-474v646h430v28h-465v-674h-26v700h517v-80h-430v-594h422v28h-387v27h387v28h-387v200h307v28h-307v26h307v28h-307v201h395v-27h-368v-148h306v-134h-306v-148h386v-135zM395 761h-76l-65 140h-27q64 -120 74 -140h-29l-89 166h87l66 -140h20q-49 122 -57 140
h29z" />
    <glyph glyph-name="Eacute" unicode="&#xc9;" horiz-adv-x="637" 
d="M595 0h-474v646h430v28h-465v-674h-26v700h517v-80h-430v-594h422v28h-387v27h387v28h-387v200h307v28h-307v26h307v28h-307v201h395v-27h-368v-148h306v-134h-306v-148h386v-135zM401 761h-30q10 20 74 140h-26l-66 -140h-76q64 158 68 166h28l-57 -140h20l66 140h87
q-85 -159 -88 -166z" />
    <glyph glyph-name="Ecircumflex" unicode="&#xca;" horiz-adv-x="637" 
d="M595 0h-474v646h430v28h-465v-674h-26v700h517v-80h-430v-594h422v28h-387v27h387v28h-387v200h307v28h-307v26h307v28h-307v201h395v-27h-368v-148h306v-134h-306v-148h386v-135zM474 761h-78l-56 101h-38l-42 -75h19l42 67l59 -93h-31l-28 44l-28 -44h-77l70 128h70
l56 -102h18l-60 114h-98l-74 -140h-30l88 167h130z" />
    <glyph glyph-name="Edieresis" unicode="&#xcb;" horiz-adv-x="637" 
d="M595 0h-474v646h430v28h-465v-674h-26v700h517v-80h-430v-594h422v28h-387v27h387v28h-387v200h307v28h-307v26h307v28h-307v201h395v-27h-368v-148h306v-134h-306v-148h386v-135zM407 808q-8 0 -15 5.5t-7 15.5q0 9 7 14.5t15 5.5t15 -5.5t7 -14.5q0 -10 -7 -15.5
t-15 -5.5zM407 761q-29 0 -50.5 20t-21.5 48t21.5 47.5t50.5 19.5t50 -19.5t21 -47.5t-21 -48t-50 -20zM407 787q19 0 32 12.5t13 29.5t-13 29t-32 12t-32 -12t-13 -29t13 -29.5t32 -12.5zM250 761q-29 0 -50 20t-21 48t21 47.5t50 19.5t50.5 -19.5t21.5 -47.5t-21.5 -48
t-50.5 -20zM250 787q20 0 32.5 12.5t12.5 29.5t-12.5 29t-32.5 12q-19 0 -32 -12t-13 -29t13 -29.5t32 -12.5zM250 808q-8 0 -15 5.5t-7 15.5q0 9 7 14.5t15 5.5t15 -5.5t7 -14.5q0 -10 -7 -15.5t-15 -5.5z" />
    <glyph glyph-name="Igrave" unicode="&#xcc;" horiz-adv-x="269" 
d="M208 0h-87v674h-35v-674h-26v700h87v-674h35v674h26v-700zM192 761h-76l-66 140h-26q64 -120 74 -140h-30l-3 7l-85 159h87l66 -140h20l-57 140h28q4 -8 68 -166z" />
    <glyph glyph-name="Iacute" unicode="&#xcd;" horiz-adv-x="269" 
d="M209 0h-88v674h-35v-674h-26v700h87v-674h36v674h26v-700zM198 761h-30l75 140h-27l-65 -140h-76l67 166h28l-56 -140h20l65 140h88z" />
    <glyph glyph-name="Icircumflex" unicode="&#xce;" horiz-adv-x="269" 
d="M208 0h-87v674h-35v-674h-26v700h87v-674h35v674h26v-700zM287 761h-78l-56 101h-38l-42 -75h19l42 67l59 -93h-31l-28 44l-28 -44h-77l70 128h70l56 -102h19l-61 114h-98q-71 -133 -74 -140h-30l88 167h130z" />
    <glyph glyph-name="Idieresis" unicode="&#xcf;" horiz-adv-x="270" 
d="M209 0h-88v674h-35v-674h-26v700h88v-674h35v674h26v-700zM56 761q-28 0 -49.5 20t-21.5 48t21.5 47.5t49.5 19.5q29 0 50.5 -19.5t21.5 -47.5t-21.5 -48t-50.5 -20zM56 787q20 0 32.5 12.5t12.5 29.5t-12.5 29t-32.5 12q-19 0 -32 -12t-13 -29t13 -29.5t32 -12.5z
M56 808q-8 0 -15 5.5t-7 15.5q0 9 7 14.5t15 5.5t15 -5.5t7 -14.5q0 -10 -7 -15.5t-15 -5.5zM213 808q-8 0 -15 5.5t-7 15.5q0 9 7 14.5t15 5.5t15 -5.5t7 -14.5q0 -10 -7 -15.5t-15 -5.5zM213 761q-29 0 -50.5 20t-21.5 48t21.5 47.5t50.5 19.5t50 -19.5t21 -47.5t-21 -48
t-50 -20zM213 787q19 0 32 12.5t13 29.5t-13 29t-32 12t-32 -12t-13 -29t13 -29.5t32 -12.5z" />
    <glyph glyph-name="Eth" unicode="&#xd0;" horiz-adv-x="777" 
d="M362 0h-156v646h156q132 0 221 -76.5t89 -219.5q0 -142 -89 -219t-221 -77h-95v538h95q105 0 176 -61.5t71 -180.5q0 -118 -70 -181q-72 -60 -177 -60h-34v26h34q98 0 159.5 55t61.5 160t-61.5 160t-159.5 55h-69v-202h157v-26h-157v-256h69q125 0 204 69.5t79 199.5
t-79 199.5t-204 69.5h-130v-593h130q146 0 245 85q101 89 101 239t-101 239q-99 85 -245 85h-191v-674h-27v337h-129v26h129v337h218q153 0 263 -91q51 -45 80 -110.5t29 -148.5t-29 -148.5t-80 -110.5q-110 -91 -263 -91z" />
    <glyph glyph-name="Ntilde" unicode="&#xd1;" horiz-adv-x="698" 
d="M637 0h-142l-286 423v-423h-88v646h44l360 -533h25v561h-35v-482l-326 482h-103v-674h-26v700h143l286 -422v422h87v-613h-65l-360 532h-4v-593h36v483l326 -483h102v674h26v-700zM403 761h-3q-23 0 -41 9t-31 18q-29 16 -35 16q-3 0 -7 -2t-22 -31l-23 13q17 30 28.5 38
t23.5 8q11 0 22.5 -5.5t25.5 -14.5q34 -22 58 -22q35 0 69 47l-5 5q-8 -10 -20 -21q-16 -18 -42 -18q-23 0 -53 19l-20 11q-28 15 -35 15q-21 0 -46 -40l-10 -13l-41 44q44 73 98 73q23 0 40 -8.5t30 -17.5l3 -2q26 -15 34 -15q4 0 8 3l1 1q6 4 24 33l22 -14l-17 -27
q-17 -22 -38 -22t-42 16l-10 6q-13 8 -26.5 14.5t-29.5 6.5q-33 0 -64 -44l6 -6l5 6q4 7 11.5 14t18.5 12.5t24 5.5t24 -5.5t19.5 -10.5t13 -7.5t7.5 -3.5q26 -18 43 -18q24 0 59 55l42 -45q-44 -73 -99 -76z" />
    <glyph glyph-name="Ograve" unicode="&#xd2;" 
d="M395 129q-90 0 -158.5 59.5t-68.5 161.5t68.5 161t158.5 59t159 -58q32 -29 50.5 -70t18.5 -92t-18.5 -92t-50.5 -70q-69 -59 -159 -59zM395 156q81 0 141.5 52.5t60.5 141.5t-60.5 141.5t-141.5 52.5t-141 -52.5t-60 -141.5t60 -141.5t141 -52.5zM395 0q-97 0 -177.5 47
t-128.5 126.5t-48 176.5t48 176t128.5 126.5t177.5 47.5q98 0 178.5 -47.5t128.5 -126.5t48 -176t-48 -176.5t-128.5 -126.5t-178.5 -47zM395 27q137 0 232.5 95t95.5 228q0 134 -95.5 228.5t-232.5 94.5q-136 0 -232 -94.5t-96 -228.5q0 -133 96 -228t232 -95zM395 65
q-121 0 -206 82.5t-85 202.5t85 202.5t206 82.5t206 -82.5t85 -202.5t-85 -202.5t-206 -82.5zM395 92q111 0 188 74.5t77 183.5t-77 183.5t-188 74.5q-110 0 -187.5 -74.5t-77.5 -183.5t77.5 -183.5t187.5 -74.5zM457 761h-76l-65 140h-27q64 -120 74 -140h-30l-3 7l-85 159
h87l66 -140h20q-49 122 -57 140h29z" />
    <glyph glyph-name="Oacute" unicode="&#xd3;" 
d="M395 65q-121 0 -206 82.5t-85 202.5t85 202.5t206 82.5t206 -82.5t85 -202.5t-85 -202.5t-206 -82.5zM395 92q111 0 188 74.5t77 183.5t-77 183.5t-188 74.5q-110 0 -187.5 -74.5t-77.5 -183.5t77.5 -183.5t187.5 -74.5zM395 129q-90 0 -158.5 59.5t-68.5 161.5t68.5 161
t158.5 59t159 -58q32 -29 50.5 -70t18.5 -92t-18.5 -92t-50.5 -70q-69 -59 -159 -59zM395 156q81 0 141.5 52.5t60.5 141.5t-60.5 141.5t-141.5 52.5t-141 -52.5t-60 -141.5t60 -141.5t141 -52.5zM395 0q-97 0 -177.5 47t-128.5 126.5t-48 176.5t48 176t128.5 126.5
t177.5 47.5q98 0 178.5 -47.5t128.5 -126.5t48 -176t-48 -176.5t-128.5 -126.5t-178.5 -47zM395 27q137 0 232.5 95t95.5 228q0 134 -95.5 228.5t-232.5 94.5q-136 0 -232 -94.5t-96 -228.5q0 -133 96 -228t232 -95zM461 761h-29q10 20 74 140h-27l-65 -140h-76l67 166h29
q-8 -18 -57 -140h20l66 140h87z" />
    <glyph glyph-name="Ocircumflex" unicode="&#xd4;" 
d="M395 129q-90 0 -158.5 59.5t-68.5 161.5t68.5 161t158.5 59t159 -58q32 -29 50.5 -70t18.5 -92t-18.5 -92t-50.5 -70q-69 -59 -159 -59zM395 156q81 0 141.5 52.5t60.5 141.5t-60.5 141.5t-141.5 52.5t-141 -52.5t-60 -141.5t60 -141.5t141 -52.5zM395 65
q-121 0 -206 82.5t-85 202.5t85 202.5t206 82.5t206 -82.5t85 -202.5t-85 -202.5t-206 -82.5zM395 92q111 0 188 74.5t77 183.5t-77 183.5t-188 74.5q-110 0 -187.5 -74.5t-77.5 -183.5t77.5 -183.5t187.5 -74.5zM395 0q-97 0 -177.5 47t-128.5 126.5t-48 176.5t48 176
t128.5 126.5t177.5 47.5q98 0 178.5 -47.5t128.5 -126.5t48 -176t-48 -176.5t-128.5 -126.5t-178.5 -47zM395 27q137 0 232.5 95t95.5 228q0 134 -95.5 228.5t-232.5 94.5q-136 0 -232 -94.5t-96 -228.5q0 -133 96 -228t232 -95zM548 761h-77l-56 101h-39l-41 -75h18l42 67
l59 -93h-31l-28 44l-27 -44h-78l71 128h69l56 -102h19l-61 114h-98l-74 -140h-30l89 167h129z" />
    <glyph glyph-name="Otilde" unicode="&#xd5;" 
d="M395 0q-97 0 -177.5 47t-128.5 126.5t-48 176.5t48 176t128.5 126.5t177.5 47.5q98 0 178.5 -47.5t128.5 -126.5t48 -176t-48 -176.5t-128.5 -126.5t-178.5 -47zM395 27q137 0 232.5 95t95.5 228q0 134 -95.5 228.5t-232.5 94.5q-136 0 -232 -94.5t-96 -228.5
q0 -133 96 -228t232 -95zM395 129q-57 0 -109 25.5t-85 75t-33 120.5q0 72 33 121t85 74t109 25q58 0 110 -25t85 -74t33 -121q0 -71 -33 -120.5t-85 -75t-110 -25.5zM395 156q81 0 141.5 52.5t60.5 141.5q0 88 -58.5 141t-143.5 53q-84 0 -142.5 -53t-58.5 -141t58.5 -141
t142.5 -53zM395 65q-121 0 -206 82.5t-85 202.5t85 202.5t206 82.5t206 -82.5t85 -202.5t-85 -202.5t-206 -82.5zM395 92q111 0 188 74.5t77 183.5t-77 183.5t-188 74.5q-110 0 -187.5 -74.5t-77.5 -183.5t77.5 -183.5t187.5 -74.5zM450 761h-3q-34 0 -73 27q-28 16 -34 16
q-4 0 -7 -2q-6 -4 -23 -31l-22 13l4 6q15 26 27 33t21 7q11 0 22.5 -5.5t25.5 -14.5q33 -22 58 -22q33 0 69 47l-6 5q-8 -10 -19 -21q-18 -18 -42 -18q-23 0 -55 20l-15 8q-31 17 -38 17q-13 0 -24 -11t-32 -42l-42 44q23 35 45 54t53 19q22 0 39 -8t30 -17l5 -3
q29 -15 33 -15q5 0 9 3t24 34l23 -14q-11 -17 -18 -26q-16 -23 -38 -23q-11 0 -22 5q-13 7 -29 17q-13 8 -26.5 14.5t-29.5 6.5q-33 0 -64 -44l6 -6l5 6q21 32 53 32q19 0 47 -17q46 -28 61 -28q22 0 49 41l10 14l41 -45q-41 -72 -98 -76z" />
    <glyph glyph-name="Odieresis" unicode="&#xd6;" 
d="M395 65q-121 0 -206 82.5t-85 202.5t85 202.5t206 82.5t206 -82.5t85 -202.5t-85 -202.5t-206 -82.5zM395 92q111 0 188 74.5t77 183.5t-77 183.5t-188 74.5q-110 0 -187.5 -74.5t-77.5 -183.5t77.5 -183.5t187.5 -74.5zM395 0q-97 0 -177.5 47t-128.5 126.5t-48 176.5
t48 176t128.5 126.5t177.5 47.5q98 0 178.5 -47.5t128.5 -126.5t48 -176t-48 -176.5t-128.5 -126.5t-178.5 -47zM395 27q137 0 232.5 95t95.5 228q0 134 -95.5 228.5t-232.5 94.5q-136 0 -232 -94.5t-96 -228.5q0 -133 96 -228t232 -95zM395 129q-90 0 -158.5 59.5
t-68.5 161.5t68.5 161t158.5 59t159 -58q32 -29 50.5 -70t18.5 -92t-18.5 -92t-50.5 -70q-69 -59 -159 -59zM395 156q81 0 141.5 52.5t60.5 141.5t-60.5 141.5t-141.5 52.5t-141 -52.5t-60 -141.5t60 -141.5t141 -52.5zM474 808q-9 0 -15.5 5.5t-6.5 15.5q0 9 6.5 14.5
t15.5 5.5q8 0 15 -5.5t7 -14.5q0 -10 -7 -15.5t-15 -5.5zM317 808q-8 0 -15 5.5t-7 15.5q0 9 7 14.5t15 5.5t15 -5.5t7 -14.5q0 -10 -7 -15.5t-15 -5.5zM317 761q-29 0 -50 20t-21 48t21 47.5t50 19.5t50 -19.5t21 -47.5t-21 -48t-50 -20zM317 787q20 0 32.5 12.5t12.5 29.5
t-12.5 29t-32.5 12q-19 0 -32 -12t-13 -29t13 -29.5t32 -12.5zM474 761q-29 0 -50.5 20t-21.5 48t21.5 47.5t50.5 19.5t50 -19.5t21 -47.5t-21 -48t-50 -20zM474 787q19 0 32 12.5t13 29.5t-13 29t-32 12t-32.5 -12t-13.5 -29t13.5 -29.5t32.5 -12.5z" />
    <glyph glyph-name="multiply" unicode="&#xd7;" horiz-adv-x="461" 
d="M336 102l-108 108l-106 -106l-53 53l142 142l-124 123l-17 -17l108 -108l-124 -125l-19 19l106 106l-108 108l54 55l143 -143l124 124l-16 16l-106 -107l-127 127l18 18l109 -108l106 107l53 -53l-143 -142l124 -124l17 17l-108 109l125 125l19 -19l-107 -106l109 -109
l-55 -54l-142 142l-124 -123l16 -16l106 106l127 -126z" />
    <glyph glyph-name="Oslash" unicode="&#xd8;" horiz-adv-x="798" 
d="M399 65q-121 0 -206 82.5t-85 202.5t85 202.5t206 82.5t206 -82.5t85 -202.5t-85 -202.5t-206 -82.5zM399 92q111 0 188 74.5t77 183.5t-77 183.5t-188 74.5q-110 0 -187.5 -74.5t-77.5 -183.5t77.5 -183.5t187.5 -74.5zM399 0q-138 0 -240 93l-85 -86l-17 18l85 85
q-97 101 -97 240q0 97 48 176t128.5 126.5t177.5 47.5q140 0 240 -93l86 86l17 -18l-85 -85q97 -100 97 -240q0 -97 -48 -176.5t-128.5 -126.5t-178.5 -47zM399 27q137 0 232.5 95t95.5 228q0 134 -95.5 228.5t-232.5 94.5q-136 0 -232 -94.5t-96 -228.5q0 -133 96 -228
t232 -95zM399 129q-57 0 -109 25.5t-85 75t-33 120.5q0 72 33 121t85 74t109 25q58 0 110 -25t85 -74t33 -121q0 -71 -33 -120.5t-85 -75t-110 -25.5zM249 217l283 283q-58 44 -133 44q-84 0 -142.5 -53t-58.5 -141q0 -84 51 -133zM399 156q85 0 143.5 53t58.5 141
q0 81 -51 133l-283 -283q59 -44 132 -44z" />
    <glyph glyph-name="Ugrave" unicode="&#xd9;" horiz-adv-x="688" 
d="M344 0q-79 0 -145 29t-105 92t-39 165v414h26v-414q0 -91 34 -148.5t93.5 -84.5t135.5 -27q77 0 136 27t92.5 84.5t33.5 148.5v388h-35v-388q0 -79 -30 -129t-81.5 -73.5t-115.5 -23.5t-116 23q-112 51 -112 203v414h88v-414q0 -139 140 -139q64 0 102 33t38 106v414h26
v-414q0 -85 -46 -125t-120 -40t-120 39t-46 126v388h-35v-388q0 -72 26.5 -115.5t72 -63.5t102.5 -20t102.5 19.5t72 63.5t26.5 116v414h87v-414q0 -102 -39 -165t-104.5 -92t-144.5 -29zM412 761h-76l-66 140h-26l74 -140h-30l-88 166h87l66 -140h20l-57 140h28z" />
    <glyph glyph-name="Uacute" unicode="&#xda;" horiz-adv-x="688" 
d="M344 0q-129 0 -206 67q-83 74 -83 219v414h26v-414q0 -133 75 -199q73 -61 188 -61q114 0 188 61q74 65 74 199v388h-35v-388q0 -117 -66 -173q-60 -53 -161 -53q-102 0 -162 53q-66 59 -66 173v414h88v-414q0 -139 140 -139q65 0 102.5 33.5t37.5 105.5v414h26v-414
q0 -84 -47 -126q-48 -39 -119 -39q-72 0 -120 38q-46 42 -46 127v388h-35v-388q0 -103 57 -153q56 -46 144 -46q89 0 144 46q57 51 57 153v414h87v-414q0 -148 -83 -219q-75 -67 -205 -67zM409 761h-30q10 20 74 140h-26l-66 -140h-76q64 158 68 166h28l-57 -140h20l66 140
h87q-85 -159 -88 -166z" />
    <glyph glyph-name="Ucircumflex" unicode="&#xdb;" horiz-adv-x="688" 
d="M344 0q-129 0 -206 67q-83 74 -83 219v414h26v-414q0 -133 75 -199q73 -61 188 -61q114 0 188 61q74 65 74 199v388h-35v-388q0 -117 -66 -173q-60 -53 -161 -53q-102 0 -162 53q-66 59 -66 173v414h88v-414q0 -139 140 -139q65 0 102.5 33.5t37.5 105.5v414h26v-414
q0 -84 -47 -126q-48 -39 -119 -39q-72 0 -120 38q-46 42 -46 127v388h-35v-388q0 -103 57 -153q56 -46 144 -46q89 0 144 46q57 51 57 153v414h87v-414q0 -148 -83 -219q-75 -67 -205 -67zM497 761h-78l-56 101h-39l-41 -75h19l42 67l59 -93h-31l-28 44l-28 -44h-78l71 128
h70l56 -102h18l-60 114h-98l-75 -140h-29l88 167h130z" />
    <glyph glyph-name="Udieresis" unicode="&#xdc;" horiz-adv-x="688" 
d="M344 0q-129 0 -206 67q-83 74 -83 219v414h26v-414q0 -133 75 -199q73 -61 188 -61q114 0 188 61q74 65 74 199v388h-35v-388q0 -117 -66 -173q-60 -53 -161 -53q-102 0 -162 53q-66 59 -66 173v414h88v-414q0 -139 140 -139q65 0 102.5 33.5t37.5 105.5v414h26v-414
q0 -84 -47 -126q-48 -39 -119 -39q-72 0 -120 38q-46 42 -46 127v388h-35v-388q0 -103 57 -153q56 -46 144 -46q89 0 144 46q57 51 57 153v414h87v-414q0 -148 -83 -219q-75 -67 -205 -67zM266 761q-29 0 -50.5 20t-21.5 48t21.5 47.5t50.5 19.5t50 -19.5t21 -47.5t-21 -48
t-50 -20zM266 787q19 0 32 12.5t13 29.5t-13 29t-32 12t-32.5 -12t-13.5 -29t13.5 -29.5t32.5 -12.5zM422 808q-8 0 -15 5.5t-7 15.5q0 9 7 14.5t15 5.5t15 -5.5t7 -14.5q0 -10 -7 -15.5t-15 -5.5zM422 761q-29 0 -50 20t-21 48t21 47.5t50 19.5t50 -19.5t21 -47.5t-21 -48
t-50 -20zM422 787q20 0 32.5 12.5t12.5 29.5t-12.5 29t-32.5 12q-19 0 -32 -12t-13 -29t13 -29.5t32 -12.5zM266 808q-9 0 -15.5 5.5t-6.5 15.5q0 9 6.5 14.5t15.5 5.5q8 0 15 -5.5t7 -14.5q0 -10 -7 -15.5t-15 -5.5z" />
    <glyph glyph-name="Ydieresis" unicode="&#x178;" horiz-adv-x="779" 
d="M464 0h-88v286l-245 388h-33l243 -380v-294h-26v286l-265 414h95l244 -386l228 360h-33l-195 -290l-212 316h32l180 -269l181 269h95l-262 -414v-260h35v268l260 406h31l-265 -414v-286zM468 808q-8 0 -15 5.5t-7 15.5q0 9 7 14.5t15 5.5t15 -5.5t7 -14.5q0 -10 -7 -15.5
t-15 -5.5zM311 808q-8 0 -15 5.5t-7 15.5q0 9 7 14.5t15 5.5t15 -5.5t7 -14.5q0 -10 -7 -15.5t-15 -5.5zM468 761q-29 0 -50.5 20t-21.5 48t21.5 47.5t50.5 19.5t50 -19.5t21 -47.5t-21 -48t-50 -20zM468 787q19 0 32 12.5t13 29.5t-13 29t-32 12t-32 -12t-13 -29t13 -29.5
t32 -12.5zM311 761q-29 0 -50 20t-21 48t21 47.5t50 19.5t50.5 -19.5t21.5 -47.5t-21.5 -48t-50.5 -20zM311 787q20 0 32.5 12.5t12.5 29.5t-12.5 29t-32.5 12q-19 0 -32 -12t-13 -29t13 -29.5t32 -12.5z" />
    <glyph glyph-name="Yacute" unicode="&#xdd;" horiz-adv-x="779" 
d="M464 0h-88v286l-245 388h-33l243 -380v-294h-26v286l-265 414h95l244 -386l228 360h-33l-195 -290l-212 316h32l180 -269l181 269h95l-262 -414v-260h35v268l260 406h31l-265 -414v-286zM442 761h-29q10 20 74 140h-27l-65 -140h-76l67 166h29q-8 -18 -57 -140h20l66 140
h87z" />
    <glyph glyph-name="Thorn" unicode="&#xde;" horiz-adv-x="644" 
d="M209 0h-88v674h-35v-674h-26v700h87v-674h35v87h109q143 0 219 70q70 68 70 167q0 101 -66 165q-74 67 -223 67h-82v-31h89q131 0 192 -59q53 -53 53 -145q0 -41 -13 -79q-44 -124 -232 -124h-116v350h109q93 0 141 -36q47 -40 47 -108q0 -67 -47 -110q-48 -40 -141 -40
h-47v27h47q162 0 162 123q0 59 -37 87q-36 31 -125 31h-82v-298h89q117 0 171 52q48 50 48 125q0 82 -45 126q-52 52 -174 52h-116v175h27v-92h82q159 0 240 -74q75 -68 75 -184q0 -54 -19.5 -102.5t-59 -84.5t-98.5 -56t-138 -20h-82v-87z" />
    <glyph glyph-name="germandbls" unicode="&#xdf;" horiz-adv-x="684" 
d="M361 0q-62 0 -114 12l18 76q54 -9 100 -9q66 0 116 21q72 31 72 110q0 38 -21.5 62t-46.5 37q-30 16 -61 23t-53 7v27q44 0 90 36q48 41 48 93q0 59 -46 95t-123 36q-118 0 -164 -69q-32 -47 -32 -109v-422h35v422q0 153 162 156q62 0 99 -29t37 -76q0 -51 -33 -76
q-36 -28 -117 -31v-79q87 -2 135 -27q54 -30 54 -84q0 -96 -169 -96q-24 0 -76 8l5 26q35 -8 71 -8q72 0 107.5 17t35.5 53q0 39 -40 60q-46 25 -136 25h-13v131h13q60 0 89 11.5t38 30t9 39.5q0 36 -29.5 57t-79.5 21q-136 0 -136 -125v-452h-88v448q0 84 50 140
q59 64 173 64q83 0 137 -40q58 -45 58 -117q0 -64 -57 -114q-19 -15 -41 -25q31 -8 60 -24q82 -45 82 -122q0 -73 -56.5 -115t-157.5 -42q-46 0 -80 5l-6 -25q42 -7 82 -7q120 0 187.5 45.5t67.5 125.5q0 50 -20 84t-46.5 51.5t-46.5 17.5v26q27 0 46 32t19 78q0 44 -22 87
t-72 72t-134 29q-124 0 -191 -58.5t-67 -167.5v-448h-26v448q0 120 74.5 186t209.5 66q88 0 144 -31t83 -80t27 -103q0 -81 -48 -121q38 -18 67.5 -61t29.5 -107q0 -88 -74 -142.5t-208 -54.5z" />
    <glyph glyph-name="agrave" unicode="&#xe0;" horiz-adv-x="782" 
d="M464 761h-76l-66 140h-27l75 -140h-30l-88 166h87l65 -140h21l-57 140h28zM756 0h-97l-252 626h-16l-242 -600h39l71 176h277l81 -202h-28l-71 176h-241l-71 -176h-96l263 652h52l251 -626h41l-260 648h-115l-271 -674h-28l281 700h151zM523 234h-251l10 26h202l-87 217
l-63 -159h87l10 -26h-136l102 255z" />
    <glyph glyph-name="aacute" unicode="&#xe1;" horiz-adv-x="780" 
d="M513 234h-251l10 26h202l-87 217l-63 -159h87l10 -26h-136l102 255zM746 0h-97l-252 626h-16l-242 -600h39l71 176h277l81 -202h-28l-71 176h-241l-71 -176h-96l263 652h52l251 -626h41l-260 648h-115l-271 -674h-28l281 700h151zM452 761h-30l75 140h-27l-65 -140h-76
l67 166h28l-56 -140h20l65 140h87z" />
    <glyph glyph-name="acircumflex" unicode="&#xe2;" horiz-adv-x="778" 
d="M540 761h-78l-56 101h-38l-42 -75h19l42 67l59 -93h-31l-28 44l-28 -44h-78l71 128h70l56 -102h18l-60 114h-98q-71 -133 -74 -140h-30l88 167h130zM513 234h-251l10 26h202l-87 217l-63 -159h87l10 -26h-136l102 255zM746 0h-97l-252 626h-16l-242 -600h39l71 176h277
l81 -202h-28l-71 176h-241l-71 -176h-96l263 652h52l251 -626h41l-260 648h-115l-271 -674h-28l281 700h151z" />
    <glyph glyph-name="atilde" unicode="&#xe3;" horiz-adv-x="778" 
d="M513 234h-251l10 26h202l-87 217l-63 -159h87l10 -26h-136l102 255zM746 0h-97l-252 626h-16l-242 -600h39l71 176h277l81 -202h-28l-71 176h-241l-71 -176h-96l263 652h52l251 -626h41l-260 648h-115l-271 -674h-28l281 700h151zM446 761h-3q-23 0 -41 9t-31 18
q-29 16 -35 16q-3 0 -7 -2t-22 -31l-23 13q17 30 28.5 38t23.5 8q11 0 22 -5.5t24.5 -14t28.5 -15.5t33 -7q39 0 71 45l-9 7q-8 -10 -20 -21q-16 -18 -42 -18q-23 0 -53 19l-20 11q-28 15 -35 15q-21 0 -46 -40l-10 -13l-41 44q44 73 98 73q23 0 40 -8.5t30 -17.5l3 -2
q26 -15 34 -15q4 0 8 3l1 1q6 4 24 33l22 -14l-17 -27q-17 -22 -38 -22t-42 16l-10 6q-13 8 -26.5 14.5t-29.5 6.5q-14 0 -31.5 -10.5t-33.5 -32.5l7 -7l5 6q4 7 11.5 14t18.5 12.5t24 5.5t24 -5.5t19.5 -10.5t13 -7.5t7.5 -3.5q26 -18 43 -18q24 0 59 55l42 -45
q-44 -73 -99 -76z" />
    <glyph glyph-name="adieresis" unicode="&#xe4;" horiz-adv-x="780" 
d="M513 234h-251l10 26h202l-87 217l-63 -159h87l10 -26h-136l102 255zM746 0h-97l-252 626h-16l-242 -600h39l71 176h277l81 -202h-28l-71 176h-241l-71 -176h-96l263 652h52l251 -626h41l-260 648h-115l-271 -674h-28l281 700h151zM467 808q-8 0 -15 5.5t-7 15.5
q0 9 7 14.5t15 5.5q9 0 16 -5.5t7 -14.5q0 -10 -7 -15.5t-16 -5.5zM311 761q-29 0 -50 20t-21 48t21 47.5t50 19.5t50 -19.5t21 -47.5t-21 -48t-50 -20zM311 787q20 0 32.5 12.5t12.5 29.5t-12.5 29t-32.5 12q-19 0 -32 -12t-13 -29t13 -29.5t32 -12.5zM311 808
q-8 0 -15 5.5t-7 15.5q0 9 7 14.5t15 5.5t15 -5.5t7 -14.5q0 -10 -7 -15.5t-15 -5.5zM467 761q-28 0 -49.5 20t-21.5 48t21.5 47.5t49.5 19.5q29 0 50.5 -19.5t21.5 -47.5t-21.5 -48t-50.5 -20zM467 787q20 0 33 12.5t13 29.5t-13 29t-33 12q-19 0 -32 -12t-13 -29t13 -29.5
t32 -12.5z" />
    <glyph glyph-name="aring" unicode="&#xe5;" horiz-adv-x="780" 
d="M746 0h-97l-252 626h-16l-242 -600h39l71 176h277l81 -202h-28l-71 176h-241l-71 -176h-96l263 652h52l251 -626h41l-260 648h-115l-271 -674h-28l281 700h151zM513 234h-251l10 26h202l-87 217l-63 -159h87l10 -26h-136l102 255zM389 765q-28 0 -48 20t-20 48
q0 29 20 48.5t48 19.5q29 0 49 -19.5t20 -48.5q0 -28 -20 -48t-49 -20zM389 791q18 0 30 12t12 30t-12 30t-30 12t-30 -12t-12 -30t12 -30t30 -12zM389 724q-44 0 -76 32t-32 77t32 76.5t76 31.5q45 0 77 -31.5t32 -76.5t-32 -77t-77 -32zM389 751q34 0 58.5 24t24.5 58
t-24.5 58t-58.5 24t-58 -24t-24 -58t24 -58t58 -24z" />
    <glyph glyph-name="ae" unicode="&#xe6;" horiz-adv-x="1124" 
d="M1054 0h-474v619h-72l-414 -593h35l123 176h293v-202h-26v176h-253l-123 -176h-99l450 646h516v28h-536l-470 -674h-32l488 700h576v-81h-429v-593h421v28h-386v26h386v28h-386v201h306v28h-306v26h306v28h-306v200h394v-26h-368v-148h306v-134h-306v-148h386v-135z
M545 234h-271l18 26h227v280l-154 -222h119v-26h-169l208 300h22v-358z" />
    <glyph glyph-name="oe" unicode="&#x153;" horiz-adv-x="1013" 
d="M971 0h-593q-97 0 -182 40t-137.5 118t-52.5 192q0 115 52.5 192.5t137.5 117.5t182 40h575v-81h-430v-538h421v28h-386v200h306v28h-306v26h306v28h-306v201h395v-27h-369v-148h307v-134h-307v-148h387v-135zM944 26v28h-560q-82 0 -153 34t-114.5 100t-43.5 162
q0 97 43.5 162.5t114.5 99.5t153 34h542v28h-548q-150 0 -248 -88t-98 -236t98 -236t248 -88h566zM497 81v538h-113q-124 0 -204.5 -73t-80.5 -196t80.5 -196t204.5 -73h113zM462 108l-84 1q-63 0 -117.5 29t-88 83.5t-33.5 128.5q0 75 33.5 129t88 83.5t117.5 29.5h84v-484
zM436 135v430h-58q-57 0 -105.5 -25.5t-78 -73.5t-29.5 -116t29.5 -116t78 -73.5t105.5 -25.5h58z" />
    <glyph glyph-name="ccedilla" unicode="&#xe7;" horiz-adv-x="718" 
d="M423 -236h-141l15 26h126q56 0 78 31q25 31 25 77q0 63 -59 77l-15 3l8 22h-29l-9 -27q28 -1 51 -15q31 -20 31 -56v-5q-7 -84 -115 -84h-79l43 75h67q5 0 7.5 3t2.5 7q0 6 -2 7t-3.5 2t-96.5 1v30l23 67q-135 23 -223 119t-88 226q0 97 50 176.5t134.5 126.5t186.5 47
q80 0 147 -31t118 -82l9 -9l-62 -61q-90 92 -212 92q-116 0 -197 -75.5t-81 -183.5t81 -184.5t197 -76.5q113 0 192 77l-25 24q-71 -60 -167 -60q-94 0 -166 58q-33 29 -52.5 70t-19.5 92t19.5 92t52.5 70q72 58 166 58q102 0 177 -68l10 -9l-19 -19q-33 34 -72.5 52
t-95.5 18q-85 0 -148.5 -53t-63.5 -141t63.5 -141t148.5 -53q98 0 168 70l61 -59q-91 -105 -229 -105q-126 0 -215.5 84.5t-89.5 203.5t89.5 202t215.5 83q62 0 115.5 -22t95.5 -60l25 24q-102 97 -236 97q-143 0 -244 -95t-101 -229t101 -229t244 -95q74 0 138 30t105 77
l9 10l20 -17q-37 -43 -81 -72t-111 -45l-5 -14q22 -5 40 -23q26 -29 26 -74q0 -52 -31 -94q-33 -40 -98 -40zM389 -161q84 0 89 59q0 29 -19 39.5t-48 10.5l-26 -2l18 54l-25 1l-24 -67h64q17 0 27.5 -11t10.5 -25t-10 -25.5t-26 -11.5h-52l-13 -22h34z" />
    <glyph glyph-name="egrave" unicode="&#xe8;" horiz-adv-x="637" 
d="M595 0h-474v646h430v28h-465v-674h-26v700h517v-80h-430v-594h422v28h-387v27h387v28h-387v200h307v28h-307v26h307v28h-307v201h395v-27h-368v-148h306v-134h-306v-148h386v-135zM395 761h-76l-65 140h-27q64 -120 74 -140h-29l-89 166h87l66 -140h20q-49 122 -57 140
h29z" />
    <glyph glyph-name="eacute" unicode="&#xe9;" horiz-adv-x="637" 
d="M595 0h-474v646h430v28h-465v-674h-26v700h517v-80h-430v-594h422v28h-387v27h387v28h-387v200h307v28h-307v26h307v28h-307v201h395v-27h-368v-148h306v-134h-306v-148h386v-135zM401 761h-30q10 20 74 140h-26l-66 -140h-76q64 158 68 166h28l-57 -140h20l66 140h87
q-85 -159 -88 -166z" />
    <glyph glyph-name="ecircumflex" unicode="&#xea;" horiz-adv-x="637" 
d="M595 0h-474v646h430v28h-465v-674h-26v700h517v-80h-430v-594h422v28h-387v27h387v28h-387v200h307v28h-307v26h307v28h-307v201h395v-27h-368v-148h306v-134h-306v-148h386v-135zM474 761h-78l-56 101h-38l-42 -75h19l42 67l59 -93h-31l-28 44l-28 -44h-77l70 128h70
l56 -102h18l-60 114h-98l-74 -140h-30l88 167h130z" />
    <glyph glyph-name="edieresis" unicode="&#xeb;" horiz-adv-x="637" 
d="M595 0h-474v646h430v28h-465v-674h-26v700h517v-80h-430v-594h422v28h-387v27h387v28h-387v200h307v28h-307v26h307v28h-307v201h395v-27h-368v-148h306v-134h-306v-148h386v-135zM407 808q-8 0 -15 5.5t-7 15.5q0 9 7 14.5t15 5.5t15 -5.5t7 -14.5q0 -10 -7 -15.5
t-15 -5.5zM407 761q-29 0 -50.5 20t-21.5 48t21.5 47.5t50.5 19.5t50 -19.5t21 -47.5t-21 -48t-50 -20zM407 787q19 0 32 12.5t13 29.5t-13 29t-32 12t-32 -12t-13 -29t13 -29.5t32 -12.5zM250 761q-29 0 -50 20t-21 48t21 47.5t50 19.5t50.5 -19.5t21.5 -47.5t-21.5 -48
t-50.5 -20zM250 787q20 0 32.5 12.5t12.5 29.5t-12.5 29t-32.5 12q-19 0 -32 -12t-13 -29t13 -29.5t32 -12.5zM250 808q-8 0 -15 5.5t-7 15.5q0 9 7 14.5t15 5.5t15 -5.5t7 -14.5q0 -10 -7 -15.5t-15 -5.5z" />
    <glyph glyph-name="igrave" unicode="&#xec;" horiz-adv-x="269" 
d="M208 0h-87v674h-35v-674h-26v700h87v-674h35v674h26v-700zM192 761h-76l-66 140h-26q64 -120 74 -140h-30l-3 7l-85 159h87l66 -140h20l-57 140h28q4 -8 68 -166z" />
    <glyph glyph-name="iacute" unicode="&#xed;" horiz-adv-x="269" 
d="M209 0h-88v674h-35v-674h-26v700h87v-674h36v674h26v-700zM198 761h-30l75 140h-27l-65 -140h-76l67 166h28l-56 -140h20l65 140h88z" />
    <glyph glyph-name="icircumflex" unicode="&#xee;" horiz-adv-x="269" 
d="M208 0h-87v674h-35v-674h-26v700h87v-674h35v674h26v-700zM287 761h-78l-56 101h-38l-42 -75h19l42 67l59 -93h-31l-28 44l-28 -44h-77l70 128h70l56 -102h19l-61 114h-98q-71 -133 -74 -140h-30l88 167h130z" />
    <glyph glyph-name="idieresis" unicode="&#xef;" horiz-adv-x="270" 
d="M209 0h-88v674h-35v-674h-26v700h88v-674h35v674h26v-700zM56 761q-28 0 -49.5 20t-21.5 48t21.5 47.5t49.5 19.5q29 0 50.5 -19.5t21.5 -47.5t-21.5 -48t-50.5 -20zM56 787q20 0 32.5 12.5t12.5 29.5t-12.5 29t-32.5 12q-19 0 -32 -12t-13 -29t13 -29.5t32 -12.5z
M56 808q-8 0 -15 5.5t-7 15.5q0 9 7 14.5t15 5.5t15 -5.5t7 -14.5q0 -10 -7 -15.5t-15 -5.5zM213 808q-8 0 -15 5.5t-7 15.5q0 9 7 14.5t15 5.5t15 -5.5t7 -14.5q0 -10 -7 -15.5t-15 -5.5zM213 761q-29 0 -50.5 20t-21.5 48t21.5 47.5t50.5 19.5t50 -19.5t21 -47.5t-21 -48
t-50 -20zM213 787q19 0 32 12.5t13 29.5t-13 29t-32 12t-32 -12t-13 -29t13 -29.5t32 -12.5z" />
    <glyph glyph-name="eth" unicode="&#xf0;" horiz-adv-x="777" 
d="M362 0h-156v646h156q132 0 221 -76.5t89 -219.5q0 -142 -89 -219t-221 -77h-95v538h95q105 0 176 -61.5t71 -180.5q0 -118 -70 -181q-72 -60 -177 -60h-34v26h34q98 0 159.5 55t61.5 160t-61.5 160t-159.5 55h-69v-202h157v-26h-157v-256h69q125 0 204 69.5t79 199.5
t-79 199.5t-204 69.5h-130v-593h130q146 0 245 85q101 89 101 239t-101 239q-99 85 -245 85h-191v-674h-27v337h-129v26h129v337h218q153 0 263 -91q51 -45 80 -110.5t29 -148.5t-29 -148.5t-80 -110.5q-110 -91 -263 -91z" />
    <glyph glyph-name="ntilde" unicode="&#xf1;" horiz-adv-x="698" 
d="M637 0h-142l-286 423v-423h-88v646h44l360 -533h25v561h-35v-482l-326 482h-103v-674h-26v700h143l286 -422v422h87v-613h-65l-360 532h-4v-593h36v483l326 -483h102v674h26v-700zM403 761h-3q-23 0 -41 9t-31 18q-29 16 -35 16q-3 0 -7 -2t-22 -31l-23 13q17 30 28.5 38
t23.5 8q11 0 22.5 -5.5t25.5 -14.5q34 -22 58 -22q35 0 69 47l-5 5q-8 -10 -20 -21q-16 -18 -42 -18q-23 0 -53 19l-20 11q-28 15 -35 15q-21 0 -46 -40l-10 -13l-41 44q44 73 98 73q23 0 40 -8.5t30 -17.5l3 -2q26 -15 34 -15q4 0 8 3l1 1q6 4 24 33l22 -14l-17 -27
q-17 -22 -38 -22t-42 16l-10 6q-13 8 -26.5 14.5t-29.5 6.5q-33 0 -64 -44l6 -6l5 6q4 7 11.5 14t18.5 12.5t24 5.5t24 -5.5t19.5 -10.5t13 -7.5t7.5 -3.5q26 -18 43 -18q24 0 59 55l42 -45q-44 -73 -99 -76z" />
    <glyph glyph-name="ograve" unicode="&#xf2;" 
d="M395 129q-90 0 -158.5 59.5t-68.5 161.5t68.5 161t158.5 59t159 -58q32 -29 50.5 -70t18.5 -92t-18.5 -92t-50.5 -70q-69 -59 -159 -59zM395 156q81 0 141.5 52.5t60.5 141.5t-60.5 141.5t-141.5 52.5t-141 -52.5t-60 -141.5t60 -141.5t141 -52.5zM395 0q-97 0 -177.5 47
t-128.5 126.5t-48 176.5t48 176t128.5 126.5t177.5 47.5q98 0 178.5 -47.5t128.5 -126.5t48 -176t-48 -176.5t-128.5 -126.5t-178.5 -47zM395 27q137 0 232.5 95t95.5 228q0 134 -95.5 228.5t-232.5 94.5q-136 0 -232 -94.5t-96 -228.5q0 -133 96 -228t232 -95zM395 65
q-121 0 -206 82.5t-85 202.5t85 202.5t206 82.5t206 -82.5t85 -202.5t-85 -202.5t-206 -82.5zM395 92q111 0 188 74.5t77 183.5t-77 183.5t-188 74.5q-110 0 -187.5 -74.5t-77.5 -183.5t77.5 -183.5t187.5 -74.5zM457 761h-76l-65 140h-27q64 -120 74 -140h-30l-3 7l-85 159
h87l66 -140h20q-49 122 -57 140h29z" />
    <glyph glyph-name="oacute" unicode="&#xf3;" 
d="M395 65q-121 0 -206 82.5t-85 202.5t85 202.5t206 82.5t206 -82.5t85 -202.5t-85 -202.5t-206 -82.5zM395 92q111 0 188 74.5t77 183.5t-77 183.5t-188 74.5q-110 0 -187.5 -74.5t-77.5 -183.5t77.5 -183.5t187.5 -74.5zM395 129q-90 0 -158.5 59.5t-68.5 161.5t68.5 161
t158.5 59t159 -58q32 -29 50.5 -70t18.5 -92t-18.5 -92t-50.5 -70q-69 -59 -159 -59zM395 156q81 0 141.5 52.5t60.5 141.5t-60.5 141.5t-141.5 52.5t-141 -52.5t-60 -141.5t60 -141.5t141 -52.5zM395 0q-97 0 -177.5 47t-128.5 126.5t-48 176.5t48 176t128.5 126.5
t177.5 47.5q98 0 178.5 -47.5t128.5 -126.5t48 -176t-48 -176.5t-128.5 -126.5t-178.5 -47zM395 27q137 0 232.5 95t95.5 228q0 134 -95.5 228.5t-232.5 94.5q-136 0 -232 -94.5t-96 -228.5q0 -133 96 -228t232 -95zM461 761h-29q10 20 74 140h-27l-65 -140h-76l67 166h29
q-8 -18 -57 -140h20l66 140h87z" />
    <glyph glyph-name="ocircumflex" unicode="&#xf4;" 
d="M395 129q-90 0 -158.5 59.5t-68.5 161.5t68.5 161t158.5 59t159 -58q32 -29 50.5 -70t18.5 -92t-18.5 -92t-50.5 -70q-69 -59 -159 -59zM395 156q81 0 141.5 52.5t60.5 141.5t-60.5 141.5t-141.5 52.5t-141 -52.5t-60 -141.5t60 -141.5t141 -52.5zM395 65
q-121 0 -206 82.5t-85 202.5t85 202.5t206 82.5t206 -82.5t85 -202.5t-85 -202.5t-206 -82.5zM395 92q111 0 188 74.5t77 183.5t-77 183.5t-188 74.5q-110 0 -187.5 -74.5t-77.5 -183.5t77.5 -183.5t187.5 -74.5zM395 0q-97 0 -177.5 47t-128.5 126.5t-48 176.5t48 176
t128.5 126.5t177.5 47.5q98 0 178.5 -47.5t128.5 -126.5t48 -176t-48 -176.5t-128.5 -126.5t-178.5 -47zM395 27q137 0 232.5 95t95.5 228q0 134 -95.5 228.5t-232.5 94.5q-136 0 -232 -94.5t-96 -228.5q0 -133 96 -228t232 -95zM548 761h-77l-56 101h-39l-41 -75h18l42 67
l59 -93h-31l-28 44l-27 -44h-78l71 128h69l56 -102h19l-61 114h-98l-74 -140h-30l89 167h129z" />
    <glyph glyph-name="otilde" unicode="&#xf5;" 
d="M395 0q-97 0 -177.5 47t-128.5 126.5t-48 176.5t48 176t128.5 126.5t177.5 47.5q98 0 178.5 -47.5t128.5 -126.5t48 -176t-48 -176.5t-128.5 -126.5t-178.5 -47zM395 27q137 0 232.5 95t95.5 228q0 134 -95.5 228.5t-232.5 94.5q-136 0 -232 -94.5t-96 -228.5
q0 -133 96 -228t232 -95zM395 129q-57 0 -109 25.5t-85 75t-33 120.5q0 72 33 121t85 74t109 25q58 0 110 -25t85 -74t33 -121q0 -71 -33 -120.5t-85 -75t-110 -25.5zM395 156q81 0 141.5 52.5t60.5 141.5q0 88 -58.5 141t-143.5 53q-84 0 -142.5 -53t-58.5 -141t58.5 -141
t142.5 -53zM395 65q-121 0 -206 82.5t-85 202.5t85 202.5t206 82.5t206 -82.5t85 -202.5t-85 -202.5t-206 -82.5zM395 92q111 0 188 74.5t77 183.5t-77 183.5t-188 74.5q-110 0 -187.5 -74.5t-77.5 -183.5t77.5 -183.5t187.5 -74.5zM450 761h-3q-34 0 -73 27q-28 16 -34 16
q-4 0 -7 -2q-6 -4 -23 -31l-22 13l4 6q15 26 27 33t21 7q11 0 22.5 -5.5t25.5 -14.5q33 -22 58 -22q33 0 69 47l-6 5q-8 -10 -19 -21q-18 -18 -42 -18q-23 0 -55 20l-15 8q-31 17 -38 17q-13 0 -24 -11t-32 -42l-42 44q23 35 45 54t53 19q22 0 39 -8t30 -17l5 -3
q29 -15 33 -15q5 0 9 3t24 34l23 -14q-11 -17 -18 -26q-16 -23 -38 -23q-11 0 -22 5q-13 7 -29 17q-13 8 -26.5 14.5t-29.5 6.5q-33 0 -64 -44l6 -6l5 6q21 32 53 32q19 0 47 -17q46 -28 61 -28q22 0 49 41l10 14l41 -45q-41 -72 -98 -76z" />
    <glyph glyph-name="odieresis" unicode="&#xf6;" 
d="M395 65q-121 0 -206 82.5t-85 202.5t85 202.5t206 82.5t206 -82.5t85 -202.5t-85 -202.5t-206 -82.5zM395 92q111 0 188 74.5t77 183.5t-77 183.5t-188 74.5q-110 0 -187.5 -74.5t-77.5 -183.5t77.5 -183.5t187.5 -74.5zM395 0q-97 0 -177.5 47t-128.5 126.5t-48 176.5
t48 176t128.5 126.5t177.5 47.5q98 0 178.5 -47.5t128.5 -126.5t48 -176t-48 -176.5t-128.5 -126.5t-178.5 -47zM395 27q137 0 232.5 95t95.5 228q0 134 -95.5 228.5t-232.5 94.5q-136 0 -232 -94.5t-96 -228.5q0 -133 96 -228t232 -95zM395 129q-90 0 -158.5 59.5
t-68.5 161.5t68.5 161t158.5 59t159 -58q32 -29 50.5 -70t18.5 -92t-18.5 -92t-50.5 -70q-69 -59 -159 -59zM395 156q81 0 141.5 52.5t60.5 141.5t-60.5 141.5t-141.5 52.5t-141 -52.5t-60 -141.5t60 -141.5t141 -52.5zM474 808q-9 0 -15.5 5.5t-6.5 15.5q0 9 6.5 14.5
t15.5 5.5q8 0 15 -5.5t7 -14.5q0 -10 -7 -15.5t-15 -5.5zM317 808q-8 0 -15 5.5t-7 15.5q0 9 7 14.5t15 5.5t15 -5.5t7 -14.5q0 -10 -7 -15.5t-15 -5.5zM317 761q-29 0 -50 20t-21 48t21 47.5t50 19.5t50 -19.5t21 -47.5t-21 -48t-50 -20zM317 787q20 0 32.5 12.5t12.5 29.5
t-12.5 29t-32.5 12q-19 0 -32 -12t-13 -29t13 -29.5t32 -12.5zM474 761q-29 0 -50.5 20t-21.5 48t21.5 47.5t50.5 19.5t50 -19.5t21 -47.5t-21 -48t-50 -20zM474 787q19 0 32 12.5t13 29.5t-13 29t-32 12t-32.5 -12t-13.5 -29t13.5 -29.5t32.5 -12.5z" />
    <glyph glyph-name="divide" unicode="&#xf7;" horiz-adv-x="501" 
d="M250 349q-31 0 -54.5 21.5t-23.5 52.5q0 32 23.5 53.5t54.5 21.5q32 0 55.5 -21.5t23.5 -53.5q0 -31 -23.5 -52.5t-55.5 -21.5zM250 375q23 0 38 14.5t15 33.5q0 20 -15 34t-38 14q-22 0 -37 -14t-15 -34q0 -19 15 -33.5t37 -14.5zM250 401q-8 0 -15.5 6t-7.5 16t7.5 16
t15.5 6q9 0 16.5 -6t7.5 -16t-7.5 -16t-16.5 -6zM472 213h-443v27h416v21h-416v75h443v-26h-417v-22h417v-75zM250 51q-31 0 -54.5 22t-23.5 53t23.5 52.5t54.5 21.5q32 0 55.5 -21.5t23.5 -52.5t-23.5 -53t-55.5 -22zM250 78q23 0 38 14.5t15 33.5q0 20 -15 34t-38 14
q-22 0 -37 -14t-15 -34q0 -19 15 -33.5t37 -14.5zM250 104q-8 0 -15.5 6t-7.5 16t7.5 16t15.5 6q9 0 16.5 -6t7.5 -16t-7.5 -16t-16.5 -6z" />
    <glyph glyph-name="oslash" unicode="&#xf8;" horiz-adv-x="798" 
d="M399 65q-121 0 -206 82.5t-85 202.5t85 202.5t206 82.5t206 -82.5t85 -202.5t-85 -202.5t-206 -82.5zM399 92q111 0 188 74.5t77 183.5t-77 183.5t-188 74.5q-110 0 -187.5 -74.5t-77.5 -183.5t77.5 -183.5t187.5 -74.5zM399 0q-138 0 -240 93l-85 -86l-17 18l85 85
q-97 101 -97 240q0 97 48 176t128.5 126.5t177.5 47.5q140 0 240 -93l86 86l17 -18l-85 -85q97 -100 97 -240q0 -97 -48 -176.5t-128.5 -126.5t-178.5 -47zM399 27q137 0 232.5 95t95.5 228q0 134 -95.5 228.5t-232.5 94.5q-136 0 -232 -94.5t-96 -228.5q0 -133 96 -228
t232 -95zM399 129q-57 0 -109 25.5t-85 75t-33 120.5q0 72 33 121t85 74t109 25q58 0 110 -25t85 -74t33 -121q0 -71 -33 -120.5t-85 -75t-110 -25.5zM249 217l283 283q-58 44 -133 44q-84 0 -142.5 -53t-58.5 -141q0 -84 51 -133zM399 156q85 0 143.5 53t58.5 141
q0 81 -51 133l-283 -283q59 -44 132 -44z" />
    <glyph glyph-name="ugrave" unicode="&#xf9;" horiz-adv-x="688" 
d="M344 0q-79 0 -145 29t-105 92t-39 165v414h26v-414q0 -91 34 -148.5t93.5 -84.5t135.5 -27q77 0 136 27t92.5 84.5t33.5 148.5v388h-35v-388q0 -79 -30 -129t-81.5 -73.5t-115.5 -23.5t-116 23q-112 51 -112 203v414h88v-414q0 -139 140 -139q64 0 102 33t38 106v414h26
v-414q0 -85 -46 -125t-120 -40t-120 39t-46 126v388h-35v-388q0 -72 26.5 -115.5t72 -63.5t102.5 -20t102.5 19.5t72 63.5t26.5 116v414h87v-414q0 -102 -39 -165t-104.5 -92t-144.5 -29zM412 761h-76l-66 140h-26l74 -140h-30l-88 166h87l66 -140h20l-57 140h28z" />
    <glyph glyph-name="uacute" unicode="&#xfa;" horiz-adv-x="688" 
d="M344 0q-129 0 -206 67q-83 74 -83 219v414h26v-414q0 -133 75 -199q73 -61 188 -61q114 0 188 61q74 65 74 199v388h-35v-388q0 -117 -66 -173q-60 -53 -161 -53q-102 0 -162 53q-66 59 -66 173v414h88v-414q0 -139 140 -139q65 0 102.5 33.5t37.5 105.5v414h26v-414
q0 -84 -47 -126q-48 -39 -119 -39q-72 0 -120 38q-46 42 -46 127v388h-35v-388q0 -103 57 -153q56 -46 144 -46q89 0 144 46q57 51 57 153v414h87v-414q0 -148 -83 -219q-75 -67 -205 -67zM409 761h-30q10 20 74 140h-26l-66 -140h-76q64 158 68 166h28l-57 -140h20l66 140
h87q-85 -159 -88 -166z" />
    <glyph glyph-name="ucircumflex" unicode="&#xfb;" horiz-adv-x="688" 
d="M344 0q-129 0 -206 67q-83 74 -83 219v414h26v-414q0 -133 75 -199q73 -61 188 -61q114 0 188 61q74 65 74 199v388h-35v-388q0 -117 -66 -173q-60 -53 -161 -53q-102 0 -162 53q-66 59 -66 173v414h88v-414q0 -139 140 -139q65 0 102.5 33.5t37.5 105.5v414h26v-414
q0 -84 -47 -126q-48 -39 -119 -39q-72 0 -120 38q-46 42 -46 127v388h-35v-388q0 -103 57 -153q56 -46 144 -46q89 0 144 46q57 51 57 153v414h87v-414q0 -148 -83 -219q-75 -67 -205 -67zM497 761h-78l-56 101h-39l-41 -75h19l42 67l59 -93h-31l-28 44l-28 -44h-78l71 128
h70l56 -102h18l-60 114h-98l-75 -140h-29l88 167h130z" />
    <glyph glyph-name="udieresis" unicode="&#xfc;" horiz-adv-x="688" 
d="M344 0q-129 0 -206 67q-83 74 -83 219v414h26v-414q0 -133 75 -199q73 -61 188 -61q114 0 188 61q74 65 74 199v388h-35v-388q0 -117 -66 -173q-60 -53 -161 -53q-102 0 -162 53q-66 59 -66 173v414h88v-414q0 -139 140 -139q65 0 102.5 33.5t37.5 105.5v414h26v-414
q0 -84 -47 -126q-48 -39 -119 -39q-72 0 -120 38q-46 42 -46 127v388h-35v-388q0 -103 57 -153q56 -46 144 -46q89 0 144 46q57 51 57 153v414h87v-414q0 -148 -83 -219q-75 -67 -205 -67zM266 761q-29 0 -50.5 20t-21.5 48t21.5 47.5t50.5 19.5t50 -19.5t21 -47.5t-21 -48
t-50 -20zM266 787q19 0 32 12.5t13 29.5t-13 29t-32 12t-32.5 -12t-13.5 -29t13.5 -29.5t32.5 -12.5zM422 808q-8 0 -15 5.5t-7 15.5q0 9 7 14.5t15 5.5t15 -5.5t7 -14.5q0 -10 -7 -15.5t-15 -5.5zM422 761q-29 0 -50 20t-21 48t21 47.5t50 19.5t50 -19.5t21 -47.5t-21 -48
t-50 -20zM422 787q20 0 32.5 12.5t12.5 29.5t-12.5 29t-32.5 12q-19 0 -32 -12t-13 -29t13 -29.5t32 -12.5zM266 808q-9 0 -15.5 5.5t-6.5 15.5q0 9 6.5 14.5t15.5 5.5q8 0 15 -5.5t7 -14.5q0 -10 -7 -15.5t-15 -5.5z" />
    <glyph glyph-name="yacute" unicode="&#xfd;" horiz-adv-x="779" 
d="M464 0h-88v286l-245 388h-33l243 -380v-294h-26v286l-265 414h95l244 -386l228 360h-33l-195 -290l-212 316h32l180 -269l181 269h95l-262 -414v-260h35v268l260 406h31l-265 -414v-286zM442 761h-29q10 20 74 140h-27l-65 -140h-76l67 166h29q-8 -18 -57 -140h20l66 140
h87z" />
    <glyph glyph-name="thorn" unicode="&#xfe;" horiz-adv-x="644" 
d="M209 0h-88v674h-35v-674h-26v700h87v-674h35v87h109q143 0 219 70q70 68 70 167q0 101 -66 165q-74 67 -223 67h-82v-31h89q131 0 192 -59q53 -53 53 -145q0 -41 -13 -79q-44 -124 -232 -124h-116v350h109q93 0 141 -36q47 -40 47 -108q0 -67 -47 -110q-48 -40 -141 -40
h-47v27h47q162 0 162 123q0 59 -37 87q-36 31 -125 31h-82v-298h89q117 0 171 52q48 50 48 125q0 82 -45 126q-52 52 -174 52h-116v175h27v-92h82q159 0 240 -74q75 -68 75 -184q0 -54 -19.5 -102.5t-59 -84.5t-98.5 -56t-138 -20h-82v-87z" />
    <glyph glyph-name="ydieresis" unicode="&#xff;" horiz-adv-x="779" 
d="M464 0h-88v286l-245 388h-33l243 -380v-294h-26v286l-265 414h95l244 -386l228 360h-33l-195 -290l-212 316h32l180 -269l181 269h95l-262 -414v-260h35v268l260 406h31l-265 -414v-286zM468 808q-8 0 -15 5.5t-7 15.5q0 9 7 14.5t15 5.5t15 -5.5t7 -14.5q0 -10 -7 -15.5
t-15 -5.5zM311 808q-8 0 -15 5.5t-7 15.5q0 9 7 14.5t15 5.5t15 -5.5t7 -14.5q0 -10 -7 -15.5t-15 -5.5zM468 761q-29 0 -50.5 20t-21.5 48t21.5 47.5t50.5 19.5t50 -19.5t21 -47.5t-21 -48t-50 -20zM468 787q19 0 32 12.5t13 29.5t-13 29t-32 12t-32 -12t-13 -29t13 -29.5
t32 -12.5zM311 761q-29 0 -50 20t-21 48t21 47.5t50 19.5t50.5 -19.5t21.5 -47.5t-21.5 -48t-50.5 -20zM311 787q20 0 32.5 12.5t12.5 29.5t-12.5 29t-32.5 12q-19 0 -32 -12t-13 -29t13 -29.5t32 -12.5z" />
    <glyph glyph-name="circumflex" unicode="&#x2c6;" horiz-adv-x="327" 
d="M312 758h-78l-56 101h-38l-42 -75h19l42 67l59 -93h-31l-28 44l-28 -44h-77l70 127h70l56 -101h19l-61 114h-98q-71 -133 -74 -140h-30l88 166h130z" />
    <glyph glyph-name="caron" unicode="&#x2c7;" horiz-adv-x="329" 
d="M234 761h-130l-88 166h30q3 -7 74 -140h98l61 114h-19l-56 -102h-70l-70 128h77l28 -44l28 44h31l-59 -93l-42 67h-19l42 -75h38l56 101h78z" />
    <glyph glyph-name="ring" unicode="&#x2da;" horiz-adv-x="301" 
d="M149 760q-44 0 -76 32t-32 77q0 44 32 76t76 32q45 0 77 -32t32 -76q0 -45 -32 -77t-77 -32zM149 787q35 0 59 24t24 58t-24 58t-59 24q-34 0 -58 -24t-24 -58t24 -58t58 -24zM149 800q-28 0 -48 20.5t-20 48.5q0 29 20 48.5t48 19.5q29 0 49 -19.5t20 -48.5
q0 -28 -20 -48.5t-49 -20.5zM149 827q19 0 31 12t12 30t-12 30t-31 12q-18 0 -30 -12t-12 -30t12 -30t30 -12z" />
    <glyph glyph-name="ogonek" unicode="&#x2db;" horiz-adv-x="277" 
d="M275 -200h-127q-61 0 -96.5 31t-35.5 82q0 31 12 57.5t27.5 46.5t27.5 31.5t13 12.5t3 2h90l-32 -24l-9 -8q-10 -7 -22 -20.5t-20.5 -30t-8.5 -33.5q0 -30 19 -46q18 -18 58 -18h40l-12 30h-40q-18 0 -30.5 13.5t-12.5 31.5q0 40 63 89l21 16h40l-35 -28l-10 -8
q-9 -9 -22 -21.5t-22 -26t-9 -21.5q0 -18 17 -18h57l33 -83h-78q-48 0 -76 24q-27 27 -27 66q0 25 12.5 45.5t26.5 35.5l9 9h-14q-5 -5 -20 -23t-29 -44.5t-14 -56.5q0 -42 26 -63q25 -23 80 -23h116z" />
    <glyph glyph-name="tilde" unicode="&#x2dc;" horiz-adv-x="402" 
d="M264 763h-3q-34 0 -73 27q-30 16 -35 16q-3 0 -7 -2.5t-22 -30.5l-22 14l4 7q14 23 26 32q9 6 22 6q15 0 41 -16l7 -4q33 -22 58 -22q33 0 69 47l-6 6q-9 -12 -19 -22q-18 -18 -42 -18q-21 0 -51 18l-24 13q-27 14 -33 14q-21 0 -44 -35l-12 -18l-42 44l5 9q42 64 93 64
q31 0 67 -23l6 -4q30 -16 34 -16q2 0 3.5 0.5t6 3.5t23.5 33l22 -14q-9 -16 -16 -26q-17 -23 -38 -23q-12 0 -22 4.5t-34 19.5q-12 7 -24.5 13t-27.5 6q-30 0 -64 -44l5 -6q7 10 16 19q18 19 43 19q21 0 51 -20l16 -8q25 -16 41 -16q11 0 25 11q16 16 33 43l42 -44
q-41 -74 -98 -77z" />
    <glyph glyph-name="quoteleft" unicode="&#x2018;" horiz-adv-x="214" 
d="M108 447q-32 0 -55.5 21.5t-23.5 52.5q0 7 39 176h88l-24 -105q54 -21 54 -71q0 -31 -23 -52.5t-55 -21.5zM108 473q22 0 37 14.5t15 33.5q0 26 -16.5 36.5t-43.5 13.5l23 100h-35q-32 -140 -33 -150q0 -19 15.5 -33.5t37.5 -14.5zM108 499q-9 0 -16 6t-7 16t7 16t16 6
q8 0 15.5 -6t7.5 -16t-7.5 -16t-15.5 -6zM108 517l1 1q2 1 2 3t-2 4l-1 1q-3 0 -3 -5q0 -4 3 -4z" />
    <glyph glyph-name="quoteright" unicode="&#x2019;" horiz-adv-x="212" 
d="M105 605q-9 0 -16 6t-7 16t7 16t16 6q8 0 15.5 -6t7.5 -16t-7.5 -16t-15.5 -6zM105 623l1 1q2 1 2 3t-2 4l-1 1q-3 0 -3 -5q0 -4 3 -4zM145 451h-88l24 107q-24 7 -39.5 25.5t-15.5 43.5q0 32 23.5 53.5t55.5 21.5t55 -21.5t23 -53.5l-1 -16zM124 477l32 140q1 3 1 10
q0 20 -15 34t-37 14t-37.5 -14t-15.5 -34q0 -25 17 -35.5t44 -13.5l-23 -101h34z" />
    <glyph glyph-name="quotesinglbase" unicode="&#x201a;" horiz-adv-x="212" 
d="M105 155q-9 0 -16 6t-7 16t7 16t16 6q8 0 15.5 -6t7.5 -16t-7.5 -16t-15.5 -6zM105 173l1 1q2 1 2 3t-2 4l-1 1q-3 0 -3 -5q0 -4 3 -4zM145 1h-88l24 107q-24 7 -39.5 25.5t-15.5 43.5q0 32 23.5 53.5t55.5 21.5t55 -21.5t23 -53.5l-1 -16zM124 27l32 140q1 3 1 10
q0 20 -15 34t-37 14t-37.5 -14t-15.5 -34q0 -25 17 -35.5t44 -13.5l-23 -101h34z" />
    <glyph glyph-name="quotedblleft" unicode="&#x201c;" horiz-adv-x="386" 
d="M108 499q-9 0 -16 6t-7 16t7 16t16 6q8 0 15.5 -6t7.5 -16t-7.5 -16t-15.5 -6zM280 499q-8 0 -15.5 6t-7.5 16t7.5 16t15.5 6q9 0 16 -6t7 -16t-7 -16t-16 -6zM280 447q-32 0 -55 21.5t-23 52.5q0 9 1 16l37 160h88l-24 -106q55 -20 55 -70q0 -31 -23.5 -52.5
t-55.5 -21.5zM280 473q23 0 38 14.5t15 33.5q0 26 -17 36.5t-44 13.5l23 100h-34l-32 -140q-1 -3 -1 -10q0 -19 15 -33.5t37 -14.5zM108 447q-32 0 -55.5 21.5t-23.5 52.5q0 7 39 176h88l-25 -106q55 -20 55 -70q0 -31 -23 -52.5t-55 -21.5zM108 473q22 0 37 14.5t15 33.5
q0 26 -16.5 36.5t-43.5 13.5l23 100h-35q-32 -140 -33 -150q0 -19 15.5 -33.5t37.5 -14.5z" />
    <glyph glyph-name="quotedblright" unicode="&#x201d;" horiz-adv-x="385" 
d="M106 601q-9 0 -16 6t-7 16t7 16t16 6q8 0 15.5 -6t7.5 -16t-7.5 -16t-15.5 -6zM146 447h-88l24 107q-24 7 -39.5 25.5t-15.5 43.5q0 32 23.5 53.5t55.5 21.5t55 -21.5t23 -53.5l-1 -16zM125 473l32 140l1 10q0 20 -15 34t-37 14t-37.5 -14t-15.5 -34q0 -25 17 -35.5
t44 -13.5l-23 -101h34zM318 447h-88l25 107q-51 17 -56 69q0 32 23.5 53.5t55.5 21.5t55.5 -21.5t23.5 -53.5q0 -7 -39 -176zM298 473l27 118q5 22 6 32q0 20 -15 34t-38 14q-22 0 -37 -14t-15 -34q0 -25 16.5 -35.5t43.5 -13.5l-23 -101h35zM278 601q-8 0 -15.5 6t-7.5 16
t7.5 16t15.5 6q9 0 16 -6t7 -16t-7 -16t-16 -6z" />
    <glyph glyph-name="quotedblbase" unicode="&#x201e;" horiz-adv-x="385" 
d="M106 151q-9 0 -16 6t-7 16t7 16t16 6q8 0 15.5 -6t7.5 -16t-7.5 -16t-15.5 -6zM146 -3h-88l24 107q-24 7 -39.5 25.5t-15.5 43.5q0 32 23.5 53.5t55.5 21.5t55 -21.5t23 -53.5l-1 -16zM125 23l32 140l1 10q0 20 -15 34t-37 14t-37.5 -14t-15.5 -34q0 -25 17 -35.5
t44 -13.5l-23 -101h34zM318 -3h-88l25 107q-51 17 -56 69q0 32 23.5 53.5t55.5 21.5t55.5 -21.5t23.5 -53.5q0 -7 -39 -176zM298 23l27 118q5 22 6 32q0 20 -15 34t-38 14q-22 0 -37 -14t-15 -34q0 -25 16.5 -35.5t43.5 -13.5l-23 -101h35zM278 151q-8 0 -15.5 6t-7.5 16
t7.5 16t15.5 6q9 0 16 -6t7 -16t-7 -16t-16 -6z" />
    <glyph glyph-name="ellipsis" unicode="&#x2026;" horiz-adv-x="838" 
d="M104 56q-9 0 -16 6t-7 16t7 16t16 6q8 0 15.5 -6t7.5 -16t-7.5 -16t-15.5 -6zM104 4q-32 0 -55.5 21.5t-23.5 52.5q0 32 23.5 53.5t55.5 21.5t55 -21.5t23 -53.5q0 -31 -23 -52.5t-55 -21.5zM104 30q22 0 37 14.5t15 33.5q0 20 -15 34t-37 14t-37.5 -14t-15.5 -34
q0 -19 15.5 -33.5t37.5 -14.5zM419 56q-9 0 -16 6t-7 16t7 16t16 6q8 0 15.5 -6t7.5 -16t-7.5 -16t-15.5 -6zM419 4q-32 0 -55.5 21.5t-23.5 52.5q0 32 23.5 53.5t55.5 21.5t55 -21.5t23 -53.5q0 -31 -23 -52.5t-55 -21.5zM419 30q22 0 37 14.5t15 33.5q0 20 -15 34t-37 14
t-37.5 -14t-15.5 -34q0 -19 15.5 -33.5t37.5 -14.5zM734 56q-9 0 -16 6t-7 16t7 16t16 6q8 0 15.5 -6t7.5 -16t-7.5 -16t-15.5 -6zM734 4q-32 0 -55.5 21.5t-23.5 52.5q0 32 23.5 53.5t55.5 21.5t55 -21.5t23 -53.5q0 -31 -23 -52.5t-55 -21.5zM734 30q22 0 37 14.5t15 33.5
q0 20 -15 34t-37 14t-37.5 -14t-15.5 -34q0 -19 15.5 -33.5t37.5 -14.5z" />
    <glyph glyph-name="lira" unicode="&#x20a4;" horiz-adv-x="708" 
d="M645 0h-551v126l8 8q17 15 28.5 31t11.5 42v55h-109v27h109v61h-109v26h109v74q0 113 74.5 181.5t200.5 68.5q82 0 142.5 -20t113.5 -52l-33 -74l-13 9l-26 14q-26 15 -72 29t-106 14q-91 0 -141.5 -46.5t-50.5 -123.5v-231q0 -58 -49 -104v-35h437v27h-415
q12 12 25 23.5t24 32.5t11 68v211q0 69 47 110t123 41q53 0 95 -14t67 -29l24 -14l9 -7l-11 -23l-13 8l-23 13q-22 14 -61 27t-87 13q-69 0 -106 -31.5t-37 -93.5v-66h156v-26h-156v-61h156v-27h-156v-31q0 -60 -27 -98h381v-79h-489v72l4 4q45 40 45 89v231q0 86 59 142
q60 54 159 54q77 0 130.5 -19.5t74.5 -33.5l11 24q-99 57 -222 57q-118 0 -184 -62q-65 -58 -65 -162v-243q0 -34 -15 -55t-33 -37v-89h525v-26z" />
    <glyph glyph-name="Euro" unicode="&#x20ac;" horiz-adv-x="768" 
d="M443 -6q-93 0 -165 39.5t-116.5 107t-56.5 152.5h-116v26h113l-1 32l1 31h-113v27h116q12 85 56.5 152t116.5 106.5t165 39.5q81 0 158 -30q88 -34 139 -91l-63 -62l-10 9q-39 38 -100.5 59.5t-123.5 21.5q-115 0 -181.5 -76t-66.5 -187q0 -112 66.5 -189t181.5 -77
q57 0 117 20.5t96 54.5l-24 24q-38 -31 -89 -44.5t-100 -13.5q-96 0 -151.5 61t-55.5 164q0 102 55 164q56 60 152 60q52 0 107 -16q62 -17 101 -60l-19 -19q-32 36 -90 53q-51 15 -99 15q-87 0 -132 -51q-31 -34 -42 -88h164v-27h-168q-2 -16 -2 -31q0 -16 2 -32h168v-26
h-164q11 -55 42 -88q45 -52 132 -52q48 0 99 15q58 17 90 53l62 -60q-41 -52 -116 -79q-68 -24 -135 -24q-64 0 -115 23t-87 63q-72 87 -72 207t73.5 205t200.5 85q63 0 125.5 -21t107.5 -59l26 25q-115 94 -259 94q-97 0 -168 -44t-109 -118.5t-38 -166.5t38 -167t109 -119
t168 -44q76 0 150 29q81 31 124 86l21 -17l-9 -10q-48 -54 -126.5 -84.5t-159.5 -30.5z" />
    <glyph glyph-name="lessequal" unicode="&#x2264;" horiz-adv-x="521" 
d="M479 140l-449 162v94l449 162v-82l-377 -126v-2l350 -117v26l-318 92l345 100v-27l-251 -73l251 -73v-82l-404 135v40l377 126v26l-396 -143v-58l423 -152v-28zM473 5h-443v74h417v22h-417v26h443v-74h-417v-22h417v-26z" />
    <glyph glyph-name="greaterequal" unicode="&#x2265;" horiz-adv-x="521" 
d="M42 140v28l422 152v58l-396 143v-26l377 -126v-40l-403 -135v82l251 73l-251 73v27l345 -100l-319 -92v-26l351 117v2l-377 126v82l449 -162v-94zM491 5h-443v26h416v22h-416v74h443v-26h-417v-22h417v-74z" />
    <glyph glyph-name="Lslash" unicode="&#x141;" horiz-adv-x="671" 
d="M651 0h-535v285q-61 -61 -70 -69l-17 17l87 87v380h87v-620h422v29h-387v591h27v-231l75 75l17 -17q-8 -9 -92 -93v-299h386v-81h-474v620h-35v-648h509v-26z" />
    <glyph glyph-name="Scaron" unicode="&#x160;" horiz-adv-x="641" 
d="M317 -3q-150 0 -276 77l13 23q118 -73 263 -73q128 0 191 45.5t63 124.5q0 57 -34.5 93.5t-94.5 60.5l-181 68q-43 16 -64.5 35t-21.5 51q0 44 43 67t104 23q119 0 191 -48l11 23q-37 21 -86.5 36t-123.5 15q-79 0 -126.5 -30.5t-47.5 -83.5q0 -66 55 -95q23 -13 46 -21
l186 -71q107 -47 107 -131q0 -48 -31.5 -78t-84 -44t-114.5 -14q-59 0 -111.5 17.5t-84.5 35.5l-33 17l-9 6l35 77l13 -10l25 -16q26 -16 68 -32t91 -16q147 0 147 57q0 21 -15.5 32.5t-47.5 23.5l-176 63q-40 15 -74.5 39.5t-56.5 61t-22 86.5q0 54 29 101t87 75.5
t145 28.5q149 0 266 -71l-13 -23q-112 68 -253 68q-113 0 -173.5 -52t-60.5 -127q0 -113 135 -162l176 -64q33 -12 57 -28.5t24 -51.5q0 -41 -46 -62t-128 -21q-43 0 -80.5 11.5t-65 25t-41.5 23.5l-12 -27q13 -7 43.5 -21t73 -26.5t88.5 -12.5q95 0 149.5 28.5t54.5 81.5
q0 69 -91 107l-177 68q-35 13 -57 24q-69 37 -69 119q0 47 27.5 78.5t73.5 47t99 15.5q89 0 144.5 -20t99.5 -47l-34 -75l-13 11l-21 13q-22 13 -63.5 25.5t-103.5 12.5q-55 0 -88.5 -17t-33.5 -46q0 -22 16 -34.5t54 -26.5l181 -69q145 -57 145 -178q0 -92 -71.5 -144.5
t-208.5 -52.5zM384 761h-130l-88 167h30l74 -141h98l60 114h-18l-56 -101h-70l-70 128h77l28 -44l28 44h31l-59 -94l-42 67h-19l42 -75h38l56 102h78z" />
    <glyph glyph-name="Zcaron" unicode="&#x17d;" horiz-adv-x="626" 
d="M588 0h-548v113l332 452h-326v81h446v-65l-345 -469v-31h415v29h-374l360 487v77h-502v26h528v-111l-334 -453h348v-81h-468v65l346 470v29h-393v-27h351l-358 -488v-78h522v-26zM379 761h-130l-88 167h30q3 -7 74 -141h98l60 114h-18l-56 -101h-70l-70 128h77l28 -44
l28 44h31l-59 -94l-42 67h-19l42 -75h38l56 102h78z" />
    </font>
</defs>
</svg>
